<?xml version="1.0" encoding="utf-8"?>
<!-- Generator: Adobe Illustrator 24.2.1, SVG Export Plug-In . SVG Version: 6.00 Build 0)  -->
<svg version="1.1" id="Lager_1" xmlns="http://www.w3.org/2000/svg" xmlns:xlink="http://www.w3.org/1999/xlink" x="0px" y="0px"
	 viewBox="0 0 154.63 176.71" style="enable-background:new 0 0 154.63 176.71;" xml:space="preserve">
<style type="text/css">
	.st0{fill:currentColor;}
</style>
<g transform="translate(0,-952.36218)">
	<path class="st0" d="M76.77,952.4c-1.87,0.26-3.15,2.04-3.15,3.93v14.16c0,1.88,1.28,3.66,3.15,3.93c2.27,0.32,4.22-1.43,4.22-3.64
		v-14.73C80.99,953.83,79.05,952.08,76.77,952.4z M25.25,973.93c-0.83,0-1.65,0.29-2.32,0.85c-1.7,1.41-1.63,4.06-0.07,5.63
		l9.24,9.24c2.12,2.12,4.27,2.45,5.76,1.31c1.82-1.39,1.95-3.96,0.39-5.52l-10.41-10.41C27.12,974.3,26.19,973.93,25.25,973.93z
		 M129.37,973.93c-0.94,0-1.87,0.37-2.59,1.09l-10.23,10.23c-1.32,1.32-1.65,3.48-0.52,4.96c1.39,1.82,3.96,1.95,5.52,0.39
		l10.21-10.21c1.56-1.56,1.63-4.22-0.06-5.63C131.01,974.22,130.2,973.93,129.37,973.93z M77.31,985.49
		c-22.45,0-44.18,17.42-44.18,42.05c0,31.91,23.85,38.63,23.93,60.92c0,0.06,0.05,0.11,0.1,0.11h40.29c0.06,0,0.1-0.05,0.1-0.11
		c0.08-22.29,23.93-29.01,23.93-60.92C121.49,1002.91,99.76,985.49,77.31,985.49L77.31,985.49z M65.98,996.65c0.02,0,0.04,0,0.06,0
		c0.1,0,0.19,0,0.29,0c2.03,0.01,3.67,1.67,3.66,3.7c-0.01,1.53-0.96,2.9-2.4,3.43c-8.97,3.38-15.71,11.33-17.43,21
		c-0.37,2-2.28,3.33-4.29,2.96c-2-0.37-3.33-2.28-2.96-4.29c2.18-12.24,10.65-22.23,22.03-26.52
		C65.27,996.79,65.62,996.7,65.98,996.65L65.98,996.65z M3.68,1025.99c-2.21,0-3.96,1.95-3.64,4.22c0.26,1.87,2.04,3.15,3.93,3.15
		h14.16c1.88,0,3.66-1.28,3.93-3.15c0.32-2.27-1.43-4.22-3.64-4.22H3.68z M136.21,1025.99c-2.21,0-3.96,1.95-3.64,4.22
		c0.26,1.87,2.04,3.15,3.93,3.15h14.16c1.88,0,3.66-1.28,3.93-3.15c0.32-2.27-1.43-4.22-3.64-4.22H136.21z M57.06,1096.04v7.15
		c0,0.06,0.05,0.11,0.11,0.11h40.28c0.06,0,0.11-0.05,0.11-0.11v-7.15c0-0.06-0.05-0.11-0.11-0.11H57.17
		C57.11,1095.93,57.06,1095.98,57.06,1096.04z M57.18,1110.66c-0.06,0-0.11,0.05-0.11,0.12c0.06,4.17,3.51,7.25,7.36,7.25H90.2
		c3.85,0,7.3-3.08,7.36-7.25c0-0.06-0.05-0.12-0.11-0.12H57.18z M70.06,1121.7c-0.06,0-0.11,0.05-0.11,0.12
		c0.06,4.03,3.32,7.25,7.36,7.25s7.3-3.22,7.36-7.25c0-0.06-0.05-0.12-0.11-0.12H70.06z"/>
</g>
</svg>
