<?xml version="1.0" encoding="utf-8"?>
<!-- Generator: Adobe Illustrator 24.2.1, SVG Export Plug-In . SVG Version: 6.00 Build 0)  -->
<svg version="1.1" id="Lager_1" xmlns="http://www.w3.org/2000/svg" xmlns:xlink="http://www.w3.org/1999/xlink" x="0px" y="0px"
	 viewBox="0 0 151.52 151.53" style="enable-background:new 0 0 151.52 151.53;" xml:space="preserve">
<style type="text/css">
	.st0{fill:currentColor;}
</style>
<g>
	<g>
		<path class="st0" d="M95.96,151.53H5.05c-2.79,0-5.05-2.26-5.05-5.05V20.21c0-2.79,2.26-5.05,5.05-5.05h90.92
			c2.79,0,5.05,2.26,5.05,5.05v126.27C101.02,149.27,98.76,151.53,95.96,151.53z M10.1,141.43h80.82V25.26H10.1V141.43z"/>
	</g>
	<g>
		<path class="st0" d="M146.47,151.53H95.96c-2.79,0-5.05-2.26-5.05-5.05V75.77c0-2.79,2.26-5.05,5.05-5.05h50.51
			c2.79,0,5.05,2.26,5.05,5.05v70.71C151.52,149.27,149.27,151.53,146.47,151.53z M101.02,141.43h40.41V80.82h-40.41V141.43z"/>
	</g>
	<g>
		<path class="st0" d="M70.71,151.53H30.3c-2.79,0-5.05-2.26-5.05-5.05v-35.36c0-2.79,2.26-5.05,5.05-5.05h40.41
			c2.79,0,5.05,2.26,5.05,5.05v35.36C75.76,149.27,73.5,151.53,70.71,151.53z M35.35,141.43h30.31v-25.26H35.35V141.43z"/>
	</g>
	<g>
		<path class="st0" d="M25.25,25.26c-2.79,0-5.05-2.26-5.05-5.05V5.05C20.2,2.26,22.46,0,25.25,0s5.05,2.26,5.05,5.05V20.2
			C30.3,23,28.04,25.26,25.25,25.26z"/>
	</g>
	<g>
		<path class="st0" d="M45.46,25.26c-2.79,0-5.05-2.26-5.05-5.05V5.05c0-2.79,2.26-5.05,5.05-5.05s5.05,2.26,5.05,5.05V20.2
			C50.51,23,48.24,25.26,45.46,25.26z"/>
	</g>
	<g>
		<path class="st0" d="M55.56,45.46h-10.1c-2.79,0-5.05-2.26-5.05-5.05s2.26-5.05,5.05-5.05h10.1c2.79,0,5.05,2.26,5.05,5.05
			S58.35,45.46,55.56,45.46z"/>
	</g>
	<g>
		<path class="st0" d="M80.81,45.46h-10.1c-2.79,0-5.05-2.26-5.05-5.05s2.26-5.05,5.05-5.05h10.1c2.79,0,5.05,2.26,5.05,5.05
			S83.6,45.46,80.81,45.46z"/>
	</g>
	<g>
		<path class="st0" d="M30.3,45.46H20.2c-2.79,0-5.05-2.26-5.05-5.05s2.26-5.05,5.05-5.05h10.1c2.79,0,5.05,2.26,5.05,5.05
			S33.09,45.46,30.3,45.46z"/>
	</g>
	<g>
		<path class="st0" d="M55.56,70.72h-10.1c-2.79,0-5.05-2.26-5.05-5.05s2.26-5.05,5.05-5.05h10.1c2.79,0,5.05,2.26,5.05,5.05
			S58.35,70.72,55.56,70.72z"/>
	</g>
	<g>
		<path class="st0" d="M80.81,70.72h-10.1c-2.79,0-5.05-2.26-5.05-5.05s2.26-5.05,5.05-5.05h10.1c2.79,0,5.05,2.26,5.05,5.05
			S83.6,70.72,80.81,70.72z"/>
	</g>
	<g>
		<path class="st0" d="M30.3,70.72H20.2c-2.79,0-5.05-2.26-5.05-5.05s2.26-5.05,5.05-5.05h10.1c2.79,0,5.05,2.26,5.05,5.05
			S33.09,70.72,30.3,70.72z"/>
	</g>
	<g>
		<path class="st0" d="M55.56,95.97h-10.1c-2.79,0-5.05-2.26-5.05-5.05s2.26-5.05,5.05-5.05h10.1c2.79,0,5.05,2.26,5.05,5.05
			S58.35,95.97,55.56,95.97z"/>
	</g>
	<g>
		<path class="st0" d="M80.81,95.97h-10.1c-2.79,0-5.05-2.26-5.05-5.05s2.26-5.05,5.05-5.05h10.1c2.79,0,5.05,2.26,5.05,5.05
			S83.6,95.97,80.81,95.97z"/>
	</g>
	<g>
		<path class="st0" d="M30.3,95.97H20.2c-2.79,0-5.05-2.26-5.05-5.05s2.26-5.05,5.05-5.05h10.1c2.79,0,5.05,2.26,5.05,5.05
			S33.09,95.97,30.3,95.97z"/>
	</g>
	<g>
		<path class="st0" d="M131.32,101.02h-20.2c-2.79,0-5.05-2.26-5.05-5.05s2.26-5.05,5.05-5.05h20.2c2.79,0,5.05,2.26,5.05,5.05
			S134.11,101.02,131.32,101.02z"/>
	</g>
	<g>
		<path class="st0" d="M131.32,121.22h-20.2c-2.79,0-5.05-2.26-5.05-5.05s2.26-5.05,5.05-5.05h20.2c2.79,0,5.05,2.26,5.05,5.05
			S134.11,121.22,131.32,121.22z"/>
	</g>
</g>
</svg>
