<?xml version="1.0" encoding="utf-8"?>
<!-- Generator: Adobe Illustrator 24.2.1, SVG Export Plug-In . SVG Version: 6.00 Build 0)  -->
<svg version="1.1" id="Lager_1" xmlns="http://www.w3.org/2000/svg" xmlns:xlink="http://www.w3.org/1999/xlink" x="0px" y="0px"
	 viewBox="0 0 156.87 158.91" style="enable-background:new 0 0 156.87 158.91;" xml:space="preserve">
<style type="text/css">
	.st0{fill:currentColor;}
</style>
<path class="st0" d="M134.09,18.39h-13.4V5.96c0-3.29-2.67-5.96-5.96-5.96s-5.96,2.67-5.96,5.96v12.43H48.11V5.96
	c0-3.29-2.67-5.96-5.96-5.96s-5.96,2.66-5.96,5.96v12.43H22.78C10.21,18.4,0.02,28.59,0,41.17v94.96
	c0.01,12.57,10.2,22.77,22.78,22.78h111.31c12.57-0.02,22.76-10.21,22.78-22.78V41.17C156.85,28.59,146.66,18.4,134.09,18.39z
	 M58.68,73.79v16.93H41.75V73.79L58.68,73.79L58.68,73.79z M86.27,73.79v16.93H70.6V73.79L86.27,73.79L86.27,73.79z M115.12,73.79
	v16.93H98.19V73.79L115.12,73.79L115.12,73.79z M144.94,73.79v16.93h-17.9V73.79L144.94,73.79L144.94,73.79z M86.27,102.64v15.06
	H70.6v-15.06H86.27z M29.83,90.72H11.92V73.79h17.91V90.72z M11.92,102.64h17.91v15.06H11.92V102.64z M41.75,102.64h16.93v15.06
	H41.75V102.64z M58.68,129.62v17.37H41.75v-17.37H58.68z M70.6,129.62h15.67v17.37H70.6V129.62z M98.19,129.62h16.93v17.37H98.19
	V129.62z M127.04,102.64h17.9v15.06h-17.9V102.64z M22.78,30.31h13.41v5.88c0,3.29,2.67,5.96,5.96,5.96s5.95-2.67,5.96-5.96v-5.88
	h60.66v5.88c0,3.29,2.67,5.96,5.96,5.96s5.96-2.67,5.96-5.96v-5.88h13.4c5.99,0.01,10.85,4.86,10.86,10.86v20.7H11.92v-20.7
	C11.93,35.17,16.78,30.32,22.78,30.31z M11.92,136.12v-6.51h17.91v17.37h-7.05C16.78,146.97,11.93,142.12,11.92,136.12z
	 M134.09,146.98h-7.05v-17.37h17.9v6.51C144.94,142.12,140.08,146.97,134.09,146.98z M91.46,106.16l10.5-1.51l4.69-9.53l4.69,9.53
	l10.5,1.51l-7.61,7.41l1.82,10.46l-9.4-4.95l-9.4,4.95l1.79-10.46L91.46,106.16z"/>
</svg>
