<?xml version="1.0" encoding="utf-8"?>
<!-- Generator: Adobe Illustrator 24.2.1, SVG Export Plug-In . SVG Version: 6.00 Build 0)  -->
<svg version="1.1" id="Lager_1" xmlns="http://www.w3.org/2000/svg" xmlns:xlink="http://www.w3.org/1999/xlink" x="0px" y="0px"
	 viewBox="0 0 225.38 111.76" style="enable-background:new 0 0 225.38 111.76;" xml:space="preserve">
<style type="text/css">
	.st0{fill:currentColor;}
</style>
<path class="st0" d="M194.39,49.1c7.51,0.63,6.5,3.58,10.15,4.75c3.66,1.17,3.6-0.19,6.63,1.46c3.03,1.64,3.52,6.11,5.16,6.63
	s7.63-0.76,8.81,1.48s-2.41,12.18-1.71,13.72c0.7,1.54-10.49,9.12-13.51,11.2c-3.02,2.08-8.22,7.18-11.43,6.57
	c-3.21-0.61-8.4-8.56-16.88-9.06c-8.48-0.5-10.33,5.76-15.91,5.74c-5.58-0.01-16.32-4.39-21.52-6.74c-9.63-4.2-20.05-5.86-29.53-4.7
	c-12.18,1.7-18.37,4.44-18.32,10.92c0.05,6.47-3.57,10.9-8.99,9.47c-5.42-1.44-15.58-8.06-23.41-6.73
	c-7.83,1.32-31.11,10.53-35.81,5.77c-4.71-4.76-7.38-10.48-10.98-10.9S4.6,92.19,0.58,84.59s14.22-7.22,17.8-10.16
	c3.58-2.94,4.86-7.45,11.05-9.98s8.8-8.16,14.03-9.25s17.7,8.47,24.96,8.47c5.73,0,9.39-1.89,12.06-4.29
	c1.75-1.57,2.45-4.3,3.67-5.74c2.14-2.53,4.53-3.47,7.5-4.13c3.39-0.76,10.6-6.9,15.57-2.94c5.47,4.36,12.05,3.33,14.93,4.36
	c5.77,2.06,9.34-0.53,13.37-0.47c2.02,0.03,6.11-1.31,10.85-2.62c4.73-1.32,13.95-1.59,11,1.89c-7.08,8.34,12.07,3.81,15.42,5.05
	c2.59,0.96,6.69,0.43,8.92,0.45C186.79,55.25,189.06,48.65,194.39,49.1z"/>
<g id="Your_Icon_8_">
	<path class="st0" d="M198.64,58.75L169.5,5.77L172.67,0h-2.35l-2,3.64l-2-3.64h-2.35l3.17,5.77L138,58.75H198.64z M168.29,33.83
		l10.93,19.87h-21.85L168.29,33.83z"/>
</g>
<ellipse transform="matrix(0.9891 -0.147 0.147 0.9891 -14.4968 8.672)" class="st0" cx="51.42" cy="102.41" rx="10.38" ry="1.54"/>
<ellipse transform="matrix(0.9998 -0.0212 0.0212 0.9998 -2.2629 1.524)" class="st0" cx="70.75" cy="107.49" rx="9.53" ry="4.26"/>
<g id="Your_Icon_1_">
	<path class="st0" d="M92.46,63.65l-24.8-45.08l2.7-4.91h-2l-1.7,3.1l-1.7-3.1h-2l2.7,4.91l-24.8,45.08H92.46z M66.63,42.44
		l9.3,16.91h-18.6L66.63,42.44z"/>
</g>
<g id="Your_Icon_2_">
	<path class="st0" d="M144.05,52.37l-21.03-38.23l2.29-4.16h-1.7l-1.44,2.63l-1.44-2.63h-1.7l2.29,4.16l-21.03,38.23H144.05z
		 M122.14,34.39l7.89,14.34h-15.77L122.14,34.39z"/>
</g>
<path class="st0" d="M130.03,48.73"/>
</svg>
