<?xml version="1.0" encoding="utf-8"?>
<!-- Generator: Adobe Illustrator 24.2.1, SVG Export Plug-In . SVG Version: 6.00 Build 0)  -->
<svg version="1.1" id="Lager_1" xmlns="http://www.w3.org/2000/svg" xmlns:xlink="http://www.w3.org/1999/xlink" x="0px" y="0px"
	 viewBox="0 0 206.22 201.46" style="enable-background:new 0 0 206.22 201.46;" xml:space="preserve">
<style type="text/css">
	.st0{fill:currentColor;}
	.st1{fill-rule:evenodd;clip-rule:evenodd;fill:currentColor;}
</style>
<g id="Your_Icon">
	<path class="st0" d="M125.15,116.4L65.02,11.43L71.55,0H66.7l-4.12,7.21L58.46,0H53.6l6.53,11.43L0,116.4H125.15z M62.54,67.01
		l22.55,39.37h-45.1L62.54,67.01z"/>
</g>
<g>
	<g>
		<path class="st1" d="M152.95,43.56c-6.25-10.06,4.39-14.07,4.16-19.21C162.21,34.18,152.26,35.3,152.95,43.56z"/>
		<path class="st1" d="M150.42,47.14c0.69,4.47,2.55,8.49,7.63,10.95c-6.01-10.06-3.24-20.33,4.39-24.57
			c-0.69,1.34-1.62,4.24,0.46,5.59c6.25-6.48,7.86-16.76,6.47-25.03c7.86,7.38,12.25,17.65,7.17,26.81c-3.47,6.48,2.08,12.74,5.09,0
			c13.87,12.74,13.41,35.08-7.86,39.99c1.86-2.24,13.18-12.51,1.86-24.13c1.39,9.16-6.25,9.16-5.09,18.1
			c-6.01-9.83,6.94-10.28-4.16-24.57c2.77,11.85-15.26,16.53-2.55,30.39C144.86,76.86,143.25,59.88,150.42,47.14z"/>
	</g>
	<g>
		<g>
			<path class="st1" d="M167.83,89.62c0.12,2.12-1.55,4.06-3.73,4.31l-30.58,3.54c-2.18,0.25-4.07-1.28-4.2-3.39l-0.16-2.67
				c-0.12-2.12,1.56-3.96,3.76-4.08l30.68-1.73c2.19-0.12,4.1,1.5,4.23,3.63L167.83,89.62L167.83,89.62z"/>
		</g>
		<g>
			<path class="st1" d="M167.73,88.16c0.38-2.08,2.48-3.6,4.66-3.35l30.51,3.42c2.17,0.25,3.64,2.15,3.26,4.23l-0.49,2.62
				c-0.38,2.08-2.47,3.48-4.62,3.12l-30.17-5.18c-2.16-0.37-3.61-2.38-3.22-4.47L167.73,88.16z"/>
		</g>
		<g>
			<path class="st1" d="M162.56,86.88c1.32-1.7,3.91-2.12,5.74-0.94l25.65,16.5c1.83,1.18,2.24,3.53,0.92,5.22l-1.67,2.14
				c-1.32,1.7-3.85,2.03-5.6,0.75l-24.51-17.92c-1.75-1.28-2.1-3.71-0.78-5.41L162.56,86.88z"/>
		</g>
		<g>
			<path class="st1" d="M159.49,89.78c1.89,1.1,2.64,3.55,1.66,5.46l-8.5,16.78c-0.96,1.91-3.3,2.58-5.18,1.48l-2.38-1.38
				c-1.89-1.1-2.5-3.48-1.37-5.31l9.9-15.93c1.13-1.82,3.6-2.42,5.49-1.32L159.49,89.78z"/>
		</g>
		<g>
			<path class="st1" d="M163.58,84.64c2.15-0.46,4.42,0.83,5.05,2.86l7.09,23c0.63,2.04-0.61,4.08-2.76,4.54l-2.7,0.58
				c-2.15,0.46-4.29-0.86-4.76-2.93l-5.35-23.35c-0.48-2.07,0.89-4.15,3.03-4.6L163.58,84.64z"/>
		</g>
	</g>
</g>
<g>
	<g>
		<g>
			<path class="st0" d="M139.74,119.37c-4.56,0-8.27,3.67-8.27,8.23c0,4.58,3.71,8.27,8.27,8.27s8.27-3.69,8.27-8.27
				C148.01,123.04,144.3,119.37,139.74,119.37z"/>
			<path class="st0" d="M139.74,127.6"/>
		</g>
		<g>
			<path class="st0" d="M69.78,121.7c-3.75,0.47-6.79,3.55-7.16,7.31c-0.49,4.96,3.39,9.11,8.23,9.11c4.56,0,8.27-3.69,8.27-8.27
				C79.11,124.95,74.81,121.07,69.78,121.7z"/>
			<path class="st0" d="M70.43,129.06"/>
		</g>
		<path class="st0" d="M175.14,175.45c0,0-2.25-9.42-10.53-17.87c0,0-0.53,11.41-41.69,15.61c-1.45-1.71-2.4-4.61,3.66-7.51
			l13.17,5.01c0,0,4.11-1.76,2.98-4.57l-9.43-4.39c0,0-2.39-1.91-0.88-2.83c1.9-1.78,4.07-3.8,4.07-3.8s0,0,2.27,0.76
			c2.26,2.11,4.57-1.31,5.72-2.42l6.6-6.8c0,0,3.38-2.8,4.88-2.6c1.51,0.17,1.96-4.72,1.96-4.72s-5.16-1.19-12.33,4.65
			c0,0-1.56,2.26-4.88-0.56c0,0-7.15-5.62-9.42-6.57c0,0-2.45-2.25-5.65,0.6c0,0-9.61,6-16.58,17.11c0,0-7.45,11.43-6,19.93
			c-3.84,0.13-7.93,0.21-12.26,0.23c-15.62-0.08-27.93-0.9-37.64-2.15c-1.11-1.74-1.24-4.31,4.12-6.87l12.65,4.96
			c0,0,3.3-0.58,2.62-3.65l-8.68-5.71c0,0-2.27-1.46-0.76-2.39c1.51-1.92,4.14-4.7,4.14-4.7s0.75,0.35,3.02,1.11
			s3.75-0.76,4.91-1.88l7.53-6.8c0,0,2.45-2.81,3.96-2.6c0.25,0.03,0.43-0.07,0.55-0.26c0.61-0.95,1.99-4.34,1.99-4.34
			s-3.47-2.39-12.91,5.59c0,0-2.8,2.45-4.89-0.56c0,0-7.15-6.68-9.42-7.63c0,0-2.45-2.25-5.65,0.6c0,0-9.61,6-16.58,17.11
			c0,0-4.59,7.04-5.87,14.17c-16.64-4.94-16.92-11.14-16.92-11.14c-8.29,8.45-10.54,17.87-10.54,17.87
			c-5.08,14.51,7.72,22.41,7.72,22.41c9.79,6.25,14.59-3.85,14.59-3.85c2.16,3.07,6.04,7.46,10.45,7.46c4.33,0,8.1-4.39,10.29-7.4
			c2.21,2.93,5.83,7.15,10.12,7.15c4.56,0,8.41-4.33,10.51-7.63c2.19,3.13,5.92,7.63,10.35,7.63c4.43,0,8.16-4.31,10.33-7.42
			c2.17,3.09,5.88,7.55,10.31,7.55c4.35,0,8.04-4.25,10.22-7.26c2.21,2.99,5.88,7.38,10.2,7.38c4.58,0,8.49-4.41,10.6-7.73
			c2.16,3.09,5.94,7.61,10.37,7.61c4.31,0,8.14-4.33,10.35-7.3c0,0,4.82,10.06,14.62,3.81
			C167.43,197.85,180.25,189.96,175.14,175.45z"/>
	</g>
	<circle class="st0" cx="88.36" cy="142.42" r="3.11"/>
	<polygon class="st0" points="62.17,175 85.94,143.28 89.6,143.28 66.77,175 	"/>
	<circle class="st0" cx="157.91" cy="142.42" r="3.11"/>
	<polygon class="st0" points="131.72,175 155.5,143.28 159.16,143.28 136.32,175 	"/>
</g>
</svg>
