<?xml version="1.0" encoding="utf-8"?>
<!-- Generator: Adobe Illustrator 24.2.1, SVG Export Plug-In . SVG Version: 6.00 Build 0)  -->
<svg version="1.1" id="Lager_1" xmlns="http://www.w3.org/2000/svg" xmlns:xlink="http://www.w3.org/1999/xlink" x="0px" y="0px"
	 viewBox="0 0 182.19 212.69" style="enable-background:new 0 0 182.19 212.69;" xml:space="preserve">
<style type="text/css">
	.st0{fill:currentColor;}
</style>
<path class="st0" d="M60.45,0C33.32,0,11.33,21.99,11.33,49.12c0,21.05,13.3,38.86,31.9,45.86l4.94,15.01l12.28,37.38l12.28-37.38
	l4.95-15.01c18.6-7,31.9-24.81,31.9-45.86C109.57,21.99,87.56,0,60.45,0z M59.63,63.86c-8.14,0-14.74-6.6-14.74-14.74
	s6.6-14.74,14.74-14.74s14.74,6.6,14.74,14.74S67.77,63.86,59.63,63.86z"/>
<g>
	<g>
		<path class="st0" d="M24.85,182.59c9.9,1.22,19.94,0.4,29.83-2.35c-0.41-0.42-1.04-1-1.73-1.33c-2.7-1.28-6.14-1.98-9.47-1.92
			c-2.49,0.03-4.23,0.37-5.33,1.03c-1.88,1.13-1.27,2.86-0.73,3.33l1.37,1.17l-3.15-0.49c-12.74-1.98-20.8-5.64-22.13-10.05
			c-1.22-4.07,3.53-8.2,12.15-10.52c10.61-2.86,27.93-2.89,42.44,1.88c-2.68-2.45-7.88-5.51-17.91-6.96
			c-7.38-1.07-15.67-0.92-23.31,0.4c-9.24,1.6-16.65,4.75-20.35,8.64c-3.65,3.84-3.18,8,1.28,11.42
			C11.48,179.65,17.51,181.69,24.85,182.59z"/>
		<path class="st0" d="M49.24,191.56c-1.41-0.88-1.93-1.74-1.17-2.53c0.59-0.61,2.15-1.38,5.83-1.8c1.12-1.47,1.69-2.75,1.88-3.85
			c-24.42,6.7-42.6,1.66-47.71-0.11c-3.99-1.39-6.49-2.93-8.07-4.21c0.24,4.78,3.83,14.25,28.04,15.9
			C35.79,195.46,45.14,193.94,49.24,191.56z"/>
		<path class="st0" d="M136.43,197.52c7.2,1.04,15.35,0.89,22.91-0.41c9.24-1.59,16.64-4.7,20.32-8.53
			c3.73-3.89,3.33-8.08-1.11-11.51c-3.68-2.84-9.84-4.91-17.36-5.84c-10.22-1.26-19.42-0.13-25.64,1.14
			c19.28-0.24,32.64,3.89,36,8.62c2.74,3.84-0.56,8.16-8.39,11.01c-8.51,3.1-20.94,4.02-34.14,2.53l-3.26-0.37l3.04-0.58
			c1.22-0.23,4.63-1.43,5.08-2.75c0.27-0.77-0.5-1.45-2.39-2.06c-2.46-0.83-6.31-1.11-10.57-0.76c-1.1,0.09-2.55,0.39-3.59,0.62
			C120.32,193.1,126.7,196.11,136.43,197.52z"/>
		<path class="st0" d="M83.36,169.17l0.01,4.45c0.13,1.87,0.26,3.63-0.35,5.72c-1.01,3.47-3.02,6.17-4.64,8.33l-0.29,0.38
			l-0.04,0.04c1.45,0.18,3.77,0.46,3.77,0.46s0.41,0.08,0.44,0.06c0,0,2.29,0.34,3.7,0.54c0.01-0.01,0.5-0.43,0.5-0.43
			c2.53-2.16,5.4-4.61,10.48-7.52c3.09-1.77,6.17-3.1,9.44-4.51l7.53-3.43c4.54-2.23,7.73-4.53,9.9-6.8
			c8.8-9.22,0.86-18.03-1.37-20.19c-5.37,1.13-26.42,6.03-35.23,15.26C85.05,163.8,83.61,166.35,83.36,169.17z"/>
		<path class="st0" d="M64.97,156.43c-0.64-2.08-0.02-3.88,1.46-5.43c3.5-3.67,11.5-5.9,17.28-7.11
			c-10.31,0.38-30.6,1.99-49.92,7.86C41.27,151.1,52.84,151.37,64.97,156.43z"/>
		<path class="st0" d="M76.36,194.79c14.37,1.92,22.41,1.53,23.88,1.22c-0.6-0.59-6.17-2.81-20.52-4.73l-0.44-0.06
			c-14.36-1.92-22.41-1.53-23.88-1.22c0.6,0.59,6.17,2.81,20.52,4.73L76.36,194.79z"/>
		<path class="st0" d="M54.17,194.8c-1.45,0.79-14.28,7.17-39.58,2.38c3.56,1.91,9.91,5,17.33,7.2c13.84-0.57,24.12-3.51,30.53-8.78
			c-2.66-0.53-4.99-1.07-6.99-1.63C54.88,194.35,54.2,194.79,54.17,194.8z"/>
		<path class="st0" d="M52.93,174.12c8.71,2.37,12.21,7.06,9.35,12.55c0,0-0.11,0.18-0.2,0.32c2.4,0.04,4.98,0.15,7.73,0.35
			c2.09-2.8,6.7-9.37,3.55-16c-1.76-5.18-17.71-8.62-30.78-8.24c-4.5,0.13-13.55,0.9-17.28,4.81c-1.12,1.17-1.76,2.63-1.65,4.43
			c0.92,2.56,3.8,3.99,5.9,4.76c0.05-0.42,0.21-0.86,0.64-1.32c0.79-0.83,2.35-1.65,5.13-2.24
			C40.68,172.41,47.44,172.63,52.93,174.12z"/>
		<path class="st0" d="M143.68,188.05c1.15,1.11,0.96,2.12,0.17,2.95c-0.43,0.45-1.07,0.83-1.74,1.17c2.93-0.1,7.55-0.51,12.53-2.24
			c3.18-1.39,5.17-2.68,6.3-3.86c3.74-3.92-1.95-6.65-5.2-7.82c-9.46-3.4-27.62-4.51-37.79-0.91c-13.61,4.36-21.17,10.53-24.3,13.19
			c2.48,0.5,4.65,1.02,6.58,1.56c0.16-0.12,0.34-0.26,0.39-0.3c7.07-4.93,17.71-7.72,28.46-7.49
			C135.84,184.46,141.43,185.89,143.68,188.05z"/>
		<path class="st0" d="M93.08,200l-0.03,0.01c0,0,0.24-0.52,0.43-0.95c-2.49-0.04-5.21-0.18-8.16-0.4
			c-3.96,5.6-0.99,10.31,8.74,14.03c9.48,0.07,19.64-0.82,25.6-1.45C91.99,208.94,92.87,200.96,93.08,200z"/>
		<path class="st0" d="M149.71,167.77c17.95-1.03,27.35,1.51,32.02,3.79c-5-9.12-17.97-15.18-25.3-17.92
			c2.43,2.3,4.83,5.93,1.33,9.6C156.28,164.77,153.72,166.32,149.71,167.77z"/>
		<path class="st0" d="M73.82,197.46c0,0-0.22-0.04-0.44-0.06c0,0-2.27-0.33-3.7-0.54c-4.6,4.28-10.43,8.6-24.9,11
			c5.85,1.39,14.16,2.59,15.94,2.83l0.39,0.05c1.81,0.24,10.24,1.29,17.12,1.59c-7.11-5.29-4.32-10.02-0.63-14.42
			C76.16,197.74,73.82,197.46,73.82,197.46z"/>
		<path class="st0" d="M148.28,202.02c-6.95,0.16-29.55-0.26-37.09-11.23c-1.71,0.9-3.44,2.02-5.07,3.43
			c2.14,1.19,2.04,2.16,1.45,2.78c-0.76,0.8-2.62,1.33-5.19,1.68c-0.87,2.82,3.79,6.21,10.67,7.64c21.51,4.47,40.32-2,48.6-5.63
			C158.24,201.3,153.72,201.9,148.28,202.02L148.28,202.02z"/>
	</g>
	<path class="st0" d="M76.02,162.25c0.51-1.63,1.3-3.17,2.6-4.53c7.5-7.86,26.22-11.37,36.67-12.78
		c-13.14-0.46-24.8,0.79-32.49,3.76c-3.16,1.23-5.51,2.66-7.01,4.23C73.11,155.75,73.24,158.98,76.02,162.25z"/>
	<path class="st0" d="M131.07,169.62c2.36-1.38,4.35-2.76,5.65-4.12c7.5-7.86-1.02-15.02-6.71-18.59
		c10.94,2.76,17.84,6.5,18.75,10.62c0.37,1.7-0.24,3.36-1.74,4.94C144.34,165.28,138.76,167.75,131.07,169.62z"/>
</g>
</svg>
