<?xml version="1.0" encoding="utf-8"?>
<!-- Generator: Adobe Illustrator 24.2.1, SVG Export Plug-In . SVG Version: 6.00 Build 0)  -->
<svg version="1.1" id="Lager_1" xmlns="http://www.w3.org/2000/svg" xmlns:xlink="http://www.w3.org/1999/xlink" x="0px" y="0px"
	 viewBox="0 0 240.15 235.1" style="enable-background:new 0 0 240.15 235.1;" xml:space="preserve">
<style type="text/css">
	.st0{fill:currentColor;}
	.st1{fill-rule:evenodd;clip-rule:evenodd;fill:currentColor;}
</style>
<g>
	<g>
		<path class="st0" d="M150.06,211.55c0,6.93,5.67,12.59,12.59,12.59h7.91c6.93,0,12.59-5.67,12.59-12.59v-29.1
			c0-6.93-5.66-12.59-12.59-12.59h-7.91c-6.93,0-12.59,5.67-12.59,12.59V211.55z"/>
		<path class="st0" d="M153.29,154.5c0,7.18,5.82,13.01,13.01,13.01c7.18,0,13.01-5.83,13.01-13.01s-5.83-13.01-13.01-13.01
			C159.12,141.49,153.29,147.32,153.29,154.5"/>
		<path class="st0" d="M160.9,182.3c1.71-3.63,0.73-7.71-2.18-9.08c-2.91-1.37-6.68,0.48-8.39,4.1l-14.9,31.62
			c-1.71,3.63-0.73,7.72,2.18,9.08c2.91,1.37,6.68-0.48,8.39-4.1L160.9,182.3z"/>
		<path class="st0" d="M171.47,182.3c-1.71-3.63-0.73-7.71,2.18-9.08c2.91-1.37,6.68,0.48,8.39,4.1l14.9,31.62
			c1.71,3.63,0.73,7.72-2.18,9.08c-2.91,1.37-6.68-0.48-8.39-4.1L171.47,182.3z"/>
	</g>
	<g>
		<path class="st0" d="M47.94,126.92c0,6.08-4.97,11.05-11.05,11.05h-6.94c-6.08,0-11.05-4.97-11.05-11.05v-25.53
			c0-6.08,4.97-11.05,11.05-11.05h6.94c6.08,0,11.05,4.97,11.05,11.05V126.92z"/>
		<path class="st0" d="M27.43,137.91c-3.34-1.09-5.19-4.72-4.09-8.06l0.28-0.86c1.09-3.34,4.72-5.19,8.06-4.09l32.83,10.73
			c3.34,1.09,5.19,4.72,4.09,8.06l-0.28,0.86c-1.09,3.34-4.72,5.18-8.06,4.09L27.43,137.91z"/>
		<path class="st0" d="M44.83,77.29c0,6.3-5.11,11.41-11.41,11.41s-11.41-5.11-11.41-11.41s5.11-11.41,11.41-11.41
			C39.73,65.88,44.83,70.99,44.83,77.29"/>
		<path class="st0" d="M37.24,132.59c-3.34-1.09-5.19-4.72-4.09-8.06l0.28-0.86c1.09-3.34,4.72-5.19,8.06-4.09l35.32,11.54
			c3.34,1.09,5.19,4.72,4.09,8.06l-0.28,0.86c-1.09,3.34-4.72,5.19-8.06,4.09L37.24,132.59z"/>
		<path class="st0" d="M30.17,103.07c1.98-2.91,1.3-6.85-1.51-8.77c-2.81-1.91-6.73-1.11-8.71,1.8L1.13,123.71
			c-1.98,2.91-1.3,6.85,1.51,8.77s6.73,1.11,8.71-1.8L30.17,103.07z"/>
	</g>
	<g>
		<path class="st0" d="M188.18,116.35c0,6.61,5.41,12.02,12.02,12.02h7.55c6.61,0,12.01-5.41,12.01-12.02V88.58
			c0-6.61-5.41-12.02-12.01-12.02h-7.55c-6.61,0-12.02,5.41-12.02,12.02V116.35z"/>
		<path class="st0" d="M208.17,129.25c3.77-0.65,6.33-4.26,5.68-8.03l-0.17-0.97c-0.65-3.77-4.26-6.33-8.03-5.68l-37.03,6.36
			c-3.77,0.65-6.33,4.26-5.68,8.03l0.17,0.97c0.65,3.77,4.26,6.33,8.03,5.68L208.17,129.25z"/>
		<path class="st0" d="M191.56,62.37c0,6.86,5.56,12.41,12.41,12.41c6.86,0,12.41-5.56,12.41-12.41c0-6.86-5.56-12.41-12.41-12.41
			C197.12,49.95,191.56,55.51,191.56,62.37"/>
		<path class="st0" d="M198.45,121.97c3.77-0.65,6.33-4.26,5.68-8.03l-0.17-0.97c-0.65-3.77-4.26-6.33-8.03-5.68l-39.84,6.84
			c-3.77,0.65-6.32,4.26-5.68,8.03l0.17,0.97c0.65,3.77,4.26,6.33,8.03,5.68L198.45,121.97z"/>
		<path class="st0" d="M207.32,90.02c-2.15-3.16-1.41-7.45,1.64-9.54c3.06-2.08,7.32-1.2,9.48,1.96l20.47,30.03
			c2.15,3.16,1.42,7.46-1.64,9.54c-3.06,2.09-7.32,1.2-9.48-1.95L207.32,90.02z"/>
	</g>
	<g>
		<path class="st0" d="M108.51,91.84c0,9.14,7.33,16.62,16.3,16.62l10.32,0.75c8.96,0,16.22-8.23,16.22-17.37V53.43
			c0-9.14-7.33-16.62-16.29-16.62h-10.24c-8.96,0-16.3,7.48-16.3,16.62L108.51,91.84L108.51,91.84z"/>
		<path class="st0" d="M135.63,109.68c5.12-0.89,8.58-5.89,7.7-11.11l-0.23-1.35c-0.88-5.22-5.78-8.75-10.89-7.86l-50.22,8.79
			c-5.12,0.89-8.58,5.89-7.7,11.11l0.23,1.35c0.88,5.22,5.78,8.75,10.89,7.86L135.63,109.68z"/>
		<path class="st0" d="M113.09,17.17c0,9.48,7.54,17.17,16.84,17.17s16.84-7.69,16.84-17.17S139.23,0,129.93,0
			C120.63-0.01,113.09,7.68,113.09,17.17"/>
		<path class="st0" d="M122.45,99.62c5.12-0.89,8.58-5.89,7.7-11.11l-0.23-1.35c-0.88-5.22-5.78-8.75-10.89-7.86L65,88.76
			c-5.11,0.89-8.58,5.89-7.7,11.11l0.23,1.35c0.88,5.22,5.78,8.75,10.89,7.86L122.45,99.62z"/>
		<path class="st0" d="M134.47,55.43c-2.92-4.37-1.92-10.31,2.23-13.19s9.93-1.67,12.85,2.71l27.76,41.55
			c2.92,4.37,1.92,10.31-2.23,13.19c-4.15,2.89-9.93,1.67-12.85-2.7L134.47,55.43z"/>
	</g>
	<g>
		<path class="st0" d="M62.96,222.17c0,7.11,5.82,12.93,12.93,12.93h8.12c7.11,0,12.93-5.82,12.93-12.93v-29.88
			c0-7.11-5.82-12.93-12.93-12.93h-8.12c-7.11,0-12.93,5.82-12.93,12.93V222.17z"/>
		<path class="st0" d="M66.28,163.6c0,7.38,5.98,13.36,13.36,13.36S93,170.98,93,163.6s-5.98-13.36-13.36-13.36
			S66.28,156.22,66.28,163.6"/>
		<path class="st0" d="M74.1,192.13c1.75-3.72,0.75-7.92-2.24-9.33c-2.99-1.4-6.86,0.49-8.62,4.21l-15.29,32.46
			c-1.75,3.72-0.75,7.92,2.24,9.33s6.86-0.49,8.62-4.21L74.1,192.13z"/>
		<path class="st0" d="M84.94,192.13c-1.75-3.72-0.75-7.92,2.24-9.33c2.99-1.4,6.86,0.49,8.62,4.21l15.29,32.46
			c1.75,3.72,0.75,7.92-2.24,9.33c-2.99,1.41-6.86-0.49-8.62-4.21L84.94,192.13z"/>
	</g>
	<g>
		<g>
			<path class="st1" d="M115.25,136.69c-3.33-5.55,2.34-7.77,2.22-10.61C120.18,131.51,114.87,132.13,115.25,136.69z"/>
			<path class="st1" d="M113.89,138.66c0.37,2.47,1.36,4.69,4.07,6.04c-3.21-5.55-1.73-11.22,2.34-13.57
				c-0.37,0.74-0.86,2.34,0.25,3.08c3.33-3.58,4.19-9.25,3.45-13.81c4.19,4.07,6.54,9.74,3.82,14.8c-1.85,3.58,1.11,7.03,2.71,0
				c7.4,7.03,7.15,19.36-4.19,22.08c0.99-1.23,7.03-6.91,0.99-13.32c0.74,5.06-3.33,5.06-2.71,9.99c-3.21-5.43,3.7-5.67-2.22-13.57
				c1.48,6.54-8.14,9.13-1.36,16.77C110.93,155.06,110.07,145.69,113.89,138.66z"/>
		</g>
		<g>
			<path class="st1" d="M140.49,160.91c0.53,1.89-0.68,3.98-2.7,4.65l-28.22,9.38c-2.01,0.67-4.1-0.33-4.63-2.22l-0.67-2.38
				c-0.53-1.89,0.71-3.89,2.76-4.45l28.66-7.77c2.05-0.55,4.16,0.53,4.69,2.42L140.49,160.91z"/>
		</g>
		<g>
			<path class="st1" d="M104.36,158.79c0.65-1.85,2.83-2.81,4.84-2.12l28.12,9.55c2.01,0.69,3.12,2.76,2.48,4.61l-0.81,2.33
				c-0.65,1.85-2.79,2.72-4.76,1.92l-27.58-11.13c-1.97-0.8-3.05-2.96-2.4-4.81L104.36,158.79z"/>
		</g>
	</g>
</g>
</svg>
