<?xml version="1.0" encoding="utf-8"?>
<!-- Generator: Adobe Illustrator 24.2.1, SVG Export Plug-In . SVG Version: 6.00 Build 0)  -->
<svg version="1.1" id="Lager_1" xmlns="http://www.w3.org/2000/svg" xmlns:xlink="http://www.w3.org/1999/xlink" x="0px" y="0px"
	 viewBox="0 0 182.67 208.77" style="enable-background:new 0 0 182.67 208.77;" xml:space="preserve">
<style type="text/css">
	.st0{fill:currentColor;}
</style>
<g id="Layer_2">
	<path class="st0" d="M166.05,71.24c0,6.71-5.43,12.15-12.15,12.15c-6.7,0-12.14-5.44-12.14-12.15c0-6.7,5.44-12.14,12.14-12.14
		C160.62,59.09,166.05,64.53,166.05,71.24z"/>
	<path class="st0" d="M179.61,122.36l-19.8-7.05l-8.89-24.39c-2.21-4.26-5.76-7.23-9.94-8c-9.82-1.83-13.25,9.38-13.25,9.38
		l-7.31,30.72l20.75-12.1l-1.88-4.07c-0.41-0.89-0.02-1.94,0.86-2.34c0.88-0.42,1.93-0.03,2.34,0.86l2.48,5.34
		c0,0.01,0.01,0.02,0.02,0.03c0.02,0.03,0.02,0.06,0.03,0.09l4.78,10.31l0.48,0.98c0.28,0.55,1.29,1.58,2.23,1.97l19.23,7.34
		l-12.29,21.09l-16.11-15.12l3.22-14.81l-3.92-8.46l-23.37,13.63l-9.04,37.97l-19.15,29.96c-0.71,1-1.07,2.18-1.07,3.61
		c-0.28,2.4,0.36,4.48,1.91,6.26c1.55,1.76,3.54,2.78,5.94,3.07c3.53,0.27,6.22-1.14,8.05-4.25l20.42-32.05
		c0.42-0.86,0.98-2.04,1.7-3.62l4.05-17.1l18.88,15.48l-22.31,38.35c-0.61,1.05-0.25,2.41,0.8,3.02c0.35,0.21,0.73,0.31,1.11,0.31
		c0.76,0,1.5-0.4,1.91-1.1l19.06-32.78l-0.03,25.98c0.86,4.1,3.47,6.36,7.85,6.79c2.4,0.14,4.48-0.56,6.25-2.12
		c1.76-1.57,2.72-3.47,2.85-5.73c0-0.43,0-1.06,0-1.91l-0.16-32.41c0-2.56-0.59-5.11-2.22-6.73l-3.33-3.15l13.29-22.86
		c3.53,0.21,6.07-1.8,6.58-5.29C182.98,125.18,181.44,123.05,179.61,122.36z"/>
	<path class="st0" d="M111.13,62.21c-9.6-2.33-19.25,3.57-21.56,13.16l-7.78,32.18l-0.03,0.04l-0.86,3.47l0.05-0.03l-2.54,10.49
		c-1.87,7.67,1.36,11.39,9.05,13.38c1.12,0.29,13.42,3.13,18.33,4.26l-1.94,7.78c-0.3,1.19,0.43,2.41,1.63,2.7
		c0.19,0.05,0.77,0.17,0.96,0.17c1-0.01,1.89-0.68,2.15-1.69l15.72-64.33C126.6,74.18,120.72,64.53,111.13,62.21z"/>
</g>
<path class="st0" d="M60.85,107.5c4.68,2.18,10.25,0.15,12.44-4.53c2.19-4.69,0.16-10.26-4.53-12.44
	c-4.68-2.19-10.25-0.16-12.44,4.53C54.13,99.74,56.16,105.31,60.85,107.5z M77.15,146.56l-17.91-8.35l5.35-11.48
	c2.69-5.77,0.19-12.62-5.57-15.31c-5.77-2.69-12.62-0.19-15.31,5.57l0,0l-5.36,11.48l0,0l-4.87,10.44l0,0l-10.17,21.41l-2.83,6.46
	L7.7,196.19c-1.68,3.6-0.12,7.89,3.48,9.57c3.61,1.68,7.89,0.12,9.57-3.48l15.05-34.69l15.26,35.14c1.68,3.6,5.96,5.16,9.57,3.48
	c3.6-1.68,5.16-5.97,3.48-9.57l-15.6-35.87l5.84-12.13l17.91,8.35c2.88,1.34,6.31,0.1,7.66-2.78
	C81.28,151.33,80.03,147.91,77.15,146.56z M39.78,117.54c0-3.98-3.23-7.2-7.2-7.2c-2.89,0-5.36,1.71-6.51,4.17l0,0l-8.86,19l0,0
	c-1.68,3.6-0.12,7.88,3.48,9.57c3.61,1.68,7.89,0.12,9.57-3.48l8.85-19l-0.02-0.01C39.52,119.65,39.78,118.63,39.78,117.54z"/>
<path class="st0" d="M76.67,21.11V5.5H60.31v4.78L45.02,0L0,30.32v7.89h13.29V79.1H77.7V38.21h12.27v-7.89L76.67,21.11z"/>
</svg>
