<?xml version="1.0" encoding="utf-8"?>
<!-- Generator: Adobe Illustrator 24.2.1, SVG Export Plug-In . SVG Version: 6.00 Build 0)  -->
<svg version="1.1" id="Lager_1" xmlns="http://www.w3.org/2000/svg" xmlns:xlink="http://www.w3.org/1999/xlink" x="0px" y="0px"
	 viewBox="0 0 207.47 205.09" style="enable-background:new 0 0 207.47 205.09;" xml:space="preserve">
<style type="text/css">
	.st0{fill:currentColor;}
</style>
<g>
	<path class="st0" d="M84.37,78.95c0-13.42,2.75-17.89,12.9-26.32c6.37-5.5,9.46-10.84,9.46-17.2c0-7.57-3.61-11.7-10.49-11.7
		c-7.91,0-11.7,7.22-12.56,20.81l-30.1-6.53C55.99,16.85,72.16,0,100.54,0c19.27,0,42.14,12.38,42.14,36.29
		c0,13.76-6.88,23.39-18.75,30.79c-5.16,3.27-10.84,8.08-10.84,13.07v1.38H84.37C84.37,81.53,84.37,78.95,84.37,78.95z M82.65,91.21
		h33.03v31.3H82.65C82.65,122.51,82.65,91.21,82.65,91.21z"/>
</g>
<g>
	<path class="st0" d="M23.9,121.92c0-10.41,2.14-13.88,10.01-20.43c4.94-4.27,7.34-8.41,7.34-13.35c0-5.87-2.8-9.08-8.14-9.08
		c-6.14,0-9.08,5.61-9.75,16.15L0,90.14c1.87-16.42,14.42-29.5,36.45-29.5c14.95,0,32.71,9.61,32.71,28.17
		c0,10.68-5.34,18.16-14.55,23.9c-4.01,2.54-8.41,6.27-8.41,10.15v1.07H23.9C23.9,123.93,23.9,121.92,23.9,121.92z M22.57,131.44
		H48.2v24.3H22.57V131.44z"/>
</g>
<g>
	<path class="st0" d="M155.3,133.21c0-12.01,2.46-16.01,11.54-23.55c5.7-4.93,8.47-9.7,8.47-15.39c0-6.77-3.23-10.47-9.39-10.47
		c-7.08,0-10.47,6.46-11.24,18.62l-26.94-5.85c2.16-18.93,16.62-34.02,42.02-34.02c17.24,0,37.71,11.08,37.71,32.48
		c0,12.31-6.16,20.93-16.78,27.55c-4.62,2.92-9.7,7.23-9.7,11.7v1.23h-25.71v-2.3H155.3z M153.76,144.18h29.55v28.01h-29.55V144.18z
		"/>
</g>
<g>
	<path class="st0" d="M91.09,181.1c0-7.39,1.52-9.85,7.1-14.49c3.51-3.03,5.21-5.97,5.21-9.47c0-4.17-1.99-6.44-5.78-6.44
		c-4.36,0-6.44,3.98-6.91,11.46l-16.58-3.6c1.33-11.65,10.23-20.93,25.86-20.93c10.61,0,23.21,6.82,23.21,19.99
		c0,7.58-3.79,12.88-10.32,16.96c-2.84,1.8-5.97,4.45-5.97,7.2v0.76H91.09L91.09,181.1L91.09,181.1z M90.14,187.85h18.19v17.24
		H90.14V187.85z"/>
</g>
</svg>
