<?xml version="1.0" encoding="utf-8"?>
<!-- Generator: Adobe Illustrator 24.2.1, SVG Export Plug-In . SVG Version: 6.00 Build 0)  -->
<svg version="1.1" id="Lager_1" xmlns="http://www.w3.org/2000/svg" xmlns:xlink="http://www.w3.org/1999/xlink" x="0px" y="0px"
	 viewBox="0 0 150.7 175.38" style="enable-background:new 0 0 150.7 175.38;" xml:space="preserve">
<style type="text/css">
	.st0{fill:currentColor;}
</style>
<path class="st0" d="M150.01,60.56l-13.29,36.46l-12.35,44.23c-7.56,25.19-20.15,33.17-43.29,33.13
	c-19.92-0.02-32.29-7.23-44.02-25.75L1.29,88.21c-2.63-5.25-1.1-10.38,3.27-12.75c4.38-2.35,9.73-1.71,13.5,3.58
	c1.19,1.67,6.98,9.33,13.38,17.98l0.02,0.02c2.71,3.9,6.42,8.79,11,14.96l13.73,19.92l11.46,17.98c1.06,1.92,3.23,2.85,5,1.77
	c1.71-1.04,2.25-2.69,1.08-5.02l-7.54-15.85c-0.44-0.9,0.73-1.69,1.4-0.94l18.08,23.48c1.54,1.73,4.69,2.75,6.54,1.1
	s1.58-4.48,0.1-6.44l-15.25-21.63c-0.56-0.73,0.48-1.63,1.13-0.98l21.27,22.31c1.54,1.73,4.63,2.48,6.48,0.83
	c1.85-1.65,1.58-4.54-0.02-6.4L83.27,117.4c-0.54-0.63,0.25-1.52,0.94-1.04l19.21,14.65c2.35,1.65,5.29,1.92,6.88,0
	c1.77-2.13,0.31-5.13-1.67-6.73l-27.69-23.33c-4.42-3.46-2.81-7.27,2.67-7.13c6.98,0.21,14.81,0.31,16.15,0.35
	c3.15,0.12,4.98-1.73,5.38-4.1c0.4-2.38-1.13-4.48-3.92-5.04l-33.75-4.27c-4.15-0.4-8.96-0.9-13.85-1.19l1.92-54.54
	c0.08-5.27,3.44-10.02,9.15-9.85c5.13,0.15,8.9,4.42,9.19,10.33l0.81,46c0.06,1.73,2.54,1.92,2.88,0.21l10.4-64.27
	c0.98-4.96,5.77-8.23,10.79-7.29c5.04,0.94,8.31,5.98,7.44,10.69l-8.19,58.42c-0.25,1.9,2.5,2.44,3,0.6l13.92-47.75
	c1.31-4.9,5.81-7.96,10.83-7.02c5.04,0.94,8.1,6.46,7.23,11.15l-14,54.82c-0.35,2,2.42,2.92,3.31,1.08l13.79-27.08
	c2.33-4.85,6.1-6.04,9.96-4.58C149.97,52,151.8,56.4,150.01,60.56z"/>
</svg>
