<?xml version="1.0" encoding="utf-8"?>
<!-- Generator: Adobe Illustrator 24.2.1, SVG Export Plug-In . SVG Version: 6.00 Build 0)  -->
<svg version="1.1" id="Lager_1" xmlns="http://www.w3.org/2000/svg" xmlns:xlink="http://www.w3.org/1999/xlink" x="0px" y="0px"
	 viewBox="0 0 155.95 174.33" style="enable-background:new 0 0 155.95 174.33;" xml:space="preserve">
<style type="text/css">
	.st0{fill:currentColor;}
</style>
<path class="st0" d="M84.94,42.47c0,23.45-19.01,42.47-42.47,42.47S0,65.93,0,42.47S19.01,0,42.47,0S84.94,19.02,84.94,42.47z
	 M19.28,53.69h8.02v-6.85l2.5-3.18l4.54,10.03h8.7l-8.48-15.86l7.27-9.84h-7.3l-7.15,10.9h-0.07v-10.9h-8.02L19.28,53.69
	L19.28,53.69z M44.93,53.69h8.02v-9.73h2.57l3.63,9.73h8.97L63.31,42.6c2.69-1.17,4.54-3.48,4.54-6.7c0-5.45-4.81-7.91-9.42-7.91
	H44.92v25.7H44.93z M52.95,38.44v-4.69h3.33c2.31,0,3.52,0.83,3.52,2.16c0,1.78-0.95,2.53-3.71,2.53H52.95z"/>
<g>
	<path class="st0" d="M151.95,42.74c0,2.77-1.06,5.29-2.79,7.18l-18.05,20.45c-2.2,2.6-4.6,3.9-7.3,3.9c-5,0-9.2-4.2-9.2-9.2
		c0-2.5,1.5-5.2,4.7-8.3l5-5h-44.3c-6.3,0-10.4-3.5-10.4-8.9s4.1-9,10.3-9h44.4l-5.3-5.3c-3.5-3.5-4.8-5.8-4.8-8.6
		c0-5.1,4.3-9.3,9.4-9.3c2.8,0,5.3,1.3,7.6,4l17.95,20.89C150.9,37.46,151.95,39.98,151.95,42.74"/>
</g>
<path class="st0" d="M155.95,131.86c0,23.45-19.01,42.47-42.47,42.47s-42.47-19.01-42.47-42.47s19.01-42.47,42.47-42.47
	S155.95,108.41,155.95,131.86z M90.29,143.09h8.02v-6.85l2.5-3.18l4.54,10.03h8.7l-8.48-15.86l7.27-9.84h-7.3l-7.15,10.9h-0.07
	v-10.9H90.3L90.29,143.09L90.29,143.09z M115.94,143.09h8.02v-9.73h2.57l3.63,9.73h8.97L134.32,132c2.69-1.17,4.54-3.48,4.54-6.7
	c0-5.45-4.81-7.91-9.42-7.91h-13.51L115.94,143.09L115.94,143.09z M123.97,127.84v-4.69h3.33c2.31,0,3.52,0.83,3.52,2.16
	c0,1.78-0.95,2.53-3.71,2.53H123.97z"/>
<g>
	<path class="st0" d="M4.77,131.59c0-2.77,1.06-5.29,2.79-7.18l18.05-20.45c2.2-2.6,4.6-3.9,7.3-3.9c5,0,9.2,4.2,9.2,9.2
		c0,2.5-1.5,5.2-4.7,8.3l-5,5h44.3c6.3,0,10.4,3.5,10.4,8.9s-4.1,9-10.3,9h-44.4l5.3,5.3c3.5,3.5,4.8,5.8,4.8,8.6
		c0,5.1-4.3,9.3-9.4,9.3c-2.8,0-5.3-1.3-7.6-4L7.56,138.77C5.83,136.88,4.77,134.36,4.77,131.59"/>
</g>
</svg>
