<?xml version="1.0" encoding="utf-8"?>
<!-- Generator: Adobe Illustrator 24.2.1, SVG Export Plug-In . SVG Version: 6.00 Build 0)  -->
<svg version="1.1" id="Lager_1" xmlns="http://www.w3.org/2000/svg" xmlns:xlink="http://www.w3.org/1999/xlink" x="0px" y="0px"
	 viewBox="0 0 97.18 197.61" style="enable-background:new 0 0 97.18 197.61;" xml:space="preserve">
<style type="text/css">
	.st0{fill:currentColor;}
</style>
<path class="st0" d="M86.05,99.7c-3.06-2.64-6.64-4.77-10.57-6.23V33.52c0.25-0.62,0.38-1.29,0.38-1.99c0-2.64,2.31-4.8,5.16-4.8
	c2.77,0,5.02,2.21,5.02,4.92L86.05,99.7L86.05,99.7z M48.72,186.7c-20.59,0-37.34-16.39-37.34-36.57l-0.16-34.68l7.37,10.21
	c3.15,4.36,8.14,6.69,13.22,6.69c3.22,0,6.48-0.94,9.3-2.89c2.32-1.6,4.13-3.71,5.32-6.11c0.88,0.09,1.77,0.13,2.68,0.13l10.11,0.06
	c2.78,0,5.03,2.21,5.03,4.92c0,3.01,2.49,5.45,5.57,5.45s5.57-2.45,5.57-5.45c0-8.73-7.25-15.83-16.13-15.83l-10.12-0.06
	c-7.01,0-13-4.37-15.28-10.47H62.8c12.77,0,23.16,9.5,23.16,21.18l0.06,26.85C86.05,170.31,69.3,186.7,48.72,186.7 M21.43,93.55
	v2.25c0,0.66,0.13,1.31,0.36,1.91c0.38,9.47,5.81,17.7,13.7,22.18c-0.23,0.24-0.49,0.46-0.78,0.65c-2.26,1.57-5.41,1.04-7-1.18
	l-13.93-19.3c-1.08-1.53-4.2-6.7,0.23-10.24c0.7-0.3,1.5-0.48,2.35-0.48C18.85,89.35,21.01,91.2,21.43,93.55 M32.57,36.88
	c0-2.65,2.3-4.8,5.15-4.8c2.77,0,5.03,2.21,5.03,4.92c0,0.59,0.09,1.15,0.26,1.67V91.2H32.56V36.88H32.57z M54.16,15.7
	c0-2.65,2.31-4.8,5.16-4.8c2.77,0,5.03,2.21,5.03,4.93v75.4c-0.51-0.02-1.01-0.03-1.52-0.03h-8.67V15.7z M97.18,31.66
	c0-8.73-7.26-15.82-16.16-15.82c-1.95,0-3.81,0.32-5.54,0.93v-0.93C75.48,7.1,68.22,0,59.32,0c-8.99,0-16.3,7.05-16.3,15.71v6.34
	c-1.66-0.56-3.44-0.87-5.29-0.87c-8.98,0-16.3,7.04-16.3,15.7v42.36c-1.59-0.51-3.3-0.79-5.08-0.79c-2.73,0-5.29,0.64-7.55,1.77
	c-0.39,0.16-0.75,0.36-1.1,0.61C3.09,83.57,0,88.43,0,93.99l0.25,56.16c0,26.17,21.75,47.46,48.47,47.46s48.46-21.29,48.46-47.47
	l-0.07-26.85c0-0.84-0.03-1.67-0.1-2.48c0.1-0.43,0.17-0.87,0.17-1.33L97.18,31.66L97.18,31.66z"/>
</svg>
