<?xml version="1.0" encoding="utf-8"?>
<!-- Generator: Adobe Illustrator 24.2.1, SVG Export Plug-In . SVG Version: 6.00 Build 0)  -->
<svg version="1.1" id="Lager_1" xmlns="http://www.w3.org/2000/svg" xmlns:xlink="http://www.w3.org/1999/xlink" x="0px" y="0px"
	 viewBox="0 0 170.97 221.63" style="enable-background:new 0 0 170.97 221.63;" xml:space="preserve">
<style type="text/css">
	.st0{fill:currentColor;}
</style>
<g transform="matrix( 1, 0, 0, 1, 0,0) ">
	<g>
		<g id="a">
			<path class="st0" d="M170.63,88.6l0.34-76.73c-6.21,5.25-13.73,9.7-22.54,13.35c-5.87,2.47-12.12,2.73-18.74,0.78
				c-8.12-3.42-15.94-7.75-23.45-13.02c-6.53-3.69-14.12-5.74-22.77-6.17c-12.26,0.77-22.95,4.81-32.08,12.11l-0.23,81.78
				l14.47-6.62c5.76-2.38,11.48-3.88,17.16-4.49c4.07-0.43,8.48,0.39,13.23,2.46l15.25,8.42c7.43,4.38,15.43,7.34,24,8.86
				c4.75,0.56,9.62,0.15,14.59-1.23c5.11-1.51,9.93-4.01,14.47-7.51c4.16-3.49,6.25-4.41,6.28-8.92 M45.55,1.49
				c-4.12-2.09-7.74-1.98-10.88,0.34v205.98c7.93,3.21,4.66,1.9,10.88,3.95V1.49z"/>
		</g>
	</g>
</g>
<g transform="matrix( 1, 0, 0, 1, 0,0) ">
	<g>
		<g id="a_1_">
			<path class="st0" d="M79.99,155.97l0.2-45.15c-3.65,3.09-8.07,4.2-13.26,6.35c-3.46,1.45-7.13,1.61-11.02,0.47
				c-4.78-2.01-9.38-4.56-13.8-7.65c-3.85-2.17-8.3-3.38-13.39-3.63c-7.21,0.46-13.5,2.83-18.88,7.13l-0.13,49.62l8.52-3.89
				c3.39-1.4,6.76-2.29,10.1-2.64c2.4-0.25,5,0.23,7.79,1.45l8.97,4.95c4.37,2.58,9.08,4.32,14.12,5.21
				c2.79,0.34,5.65,0.08,8.58-0.73c3.01-0.89,5.85-2.36,8.52-4.42C78.74,160.97,79.98,158.61,79.99,155.97 M6.4,102.9
				c-2.42-1.23-4.55-1.16-6.4,0.2v84.22c3.2,2.86,3.24,2.8,6.4,5.12V102.9z"/>
		</g>
	</g>
</g>
<g transform="matrix( 1, 0, 0, 1, 0,0) ">
	<g>
		<g id="a_2_">
			<path class="st0" d="M146.37,156.94l0.14-32.84c-2.65,2.25-5.87,4.16-9.65,5.72c-2.51,1.06-5.19,1.17-8.02,0.33
				c-3.47-1.46-6.82-3.32-10.03-5.56c-2.79-1.58-6.04-2.45-9.75-2.64c-5.24,0.33-9.82,2.06-13.74,5.19l-0.1,34.99l6.19-2.83
				c2.47-1.02,4.91-1.66,7.35-1.92c1.74-0.18,3.63,0.17,5.66,1.06l6.53,3.6c3.18,1.88,6.61,3.14,10.28,3.79
				c2.04,0.24,4.11,0.07,6.25-0.53c2.19-0.64,4.25-1.72,6.19-3.22C145.45,160.59,146.36,158.88,146.37,156.94 M92.07,118.35
				c-1.76-0.89-3.32-0.85-4.66,0.14v102.63c2.18,0.28,2.21,0.28,4.66,0.51V118.35z"/>
		</g>
	</g>
</g>
</svg>
