<?xml version="1.0" encoding="utf-8"?>
<!-- Generator: Adobe Illustrator 24.2.1, SVG Export Plug-In . SVG Version: 6.00 Build 0)  -->
<svg version="1.1" id="Lager_1" xmlns="http://www.w3.org/2000/svg" xmlns:xlink="http://www.w3.org/1999/xlink" x="0px" y="0px"
	 viewBox="0 0 151.24 181.07" style="enable-background:new 0 0 151.24 181.07;" xml:space="preserve">
<style type="text/css">
	.st0{fill:currentColor;}
</style>
<g>
	<path class="st0" d="M151.06,176.07V81.23c0-8.45-6.85-15.31-15.31-15.31c-4.46,0-8.46,1.92-11.26,4.97
		c-0.82-7.68-7.31-13.67-15.22-13.67c-4.43,0-8.4,1.89-11.2,4.89v-3.39c0-8.45-6.85-15.31-15.31-15.31c-4.43,0-8.41,1.89-11.2,4.91
		V15.31C71.56,6.86,64.71,0,56.25,0S40.96,6.85,40.96,15.31v104.85l-13.1-18.76c-4.84-6.92-14.39-8.62-21.31-3.78
		c-6.94,4.84-8.62,14.39-3.8,21.31l38.21,54.71v2.42c0,0.08,0.01,0.15,0.01,0.24v4.77h110.27v-5.01L151.06,176.07L151.06,176.07z"/>
</g>
</svg>
