<?xml version="1.0" encoding="utf-8"?>
<!-- Generator: Adobe Illustrator 24.2.1, SVG Export Plug-In . SVG Version: 6.00 Build 0)  -->
<svg version="1.1" id="Lager_1" xmlns="http://www.w3.org/2000/svg" xmlns:xlink="http://www.w3.org/1999/xlink" x="0px" y="0px"
	 viewBox="0 0 203.23 216.7" style="enable-background:new 0 0 203.23 216.7;" xml:space="preserve">
<style type="text/css">
	.st0{fill-rule:evenodd;clip-rule:evenodd;fill:currentColor;}
	.st1{fill:currentColor;}
</style>
<g>
	<path class="st0" d="M69.85,64.94C56.57,42.8,79.2,33.95,78.71,22.63C89.53,44.27,68.38,46.73,69.85,64.94z"/>
	<path class="st0" d="M64.44,72.81c1.48,9.84,5.41,18.69,16.24,24.11c-12.79-22.14-6.89-44.77,9.35-54.12
		c-1.48,2.95-3.44,9.35,0.98,12.3c13.28-14.27,16.73-36.9,13.78-55.1c16.73,16.24,26.07,38.87,15.25,59.04
		c-7.38,14.27,4.43,28.04,10.82,0c29.52,28.04,28.53,77.24-16.73,88.06c3.94-4.92,28.04-27.55,3.94-53.13
		c2.95,20.17-13.28,20.17-10.82,39.85c-12.79-21.65,14.76-22.63-8.86-54.12c5.9,26.07-32.47,36.41-5.41,66.91
		C52.63,138.24,49.19,100.85,64.44,72.81z"/>
</g>
<path id="Symbols_1_" class="st1" d="M23.18,174.99c17.07,2.72,22.96-12.99,23.87-21.63c1.05-11.38-7.36-19.45-21.01-20.53
	c-12.94,0-19.93,5.86-21.12,17.84C3.73,162.65,6.11,172.27,23.18,174.99z"/>
<path id="Symbols_2_" class="st1" d="M53.58,202.92c16.73,2.66,22.49-12.73,23.38-21.19c1.03-11.15-7.21-19.06-20.58-20.11
	c-12.68,0-19.53,5.74-20.69,17.47C34.53,190.83,36.86,200.26,53.58,202.92z"/>
<path id="Symbols_3_" class="st1" d="M94.89,216.32c20.94,3.33,28.16-15.94,29.27-26.53c1.28-13.96-9.03-23.85-25.76-25.17
	c-15.87,0-24.44,7.19-25.9,21.87C71.04,201.19,73.95,212.99,94.89,216.32z"/>
<path id="Symbols_4_" class="st1" d="M139.24,205.47c17.35,2.76,23.34-13.21,24.26-21.99c1.06-11.57-7.48-19.77-21.35-20.86
	c-13.15,0-20.26,5.96-21.47,18.13C119.47,192.92,121.88,202.71,139.24,205.47z"/>
<path id="Symbols_5_" class="st1" d="M165.92,181.29c15.29,5.38,23.37-8.12,25.65-15.93c2.88-10.32-3.52-19.18-15.92-22.47
	c-11.93-2.18-19.37,2.05-22.48,12.9C150.06,166.63,150.63,175.91,165.92,181.29z"/>
<path id="Symbols_7_" class="st1" d="M181.37,149.08c15.58,2.48,20.95-11.86,21.78-19.74c0.96-10.39-6.72-17.75-19.17-18.73
	c-11.81,0-18.19,5.35-19.27,16.28S165.79,146.6,181.37,149.08z"/>
<path id="Symbols_9_" class="st1" d="M16.36,137.94c15.07,2.4,20.27-11.47,21.07-19.1c0.92-10.05-6.5-17.17-18.55-18.12
	c-11.42,0-17.6,5.17-18.65,15.75C-0.82,127.04,1.28,135.54,16.36,137.94z"/>
<path id="Symbols_10_" class="st1" d="M31.85,109.66c12.92,2.06,17.37-9.83,18.06-16.37c0.79-8.61-5.57-14.72-15.89-15.53
	c-9.79,0-15.08,4.43-15.98,13.5C17.13,100.32,18.93,107.6,31.85,109.66z"/>
<path id="Symbols_6_" class="st1" d="M171.2,114.58c12.92,2.06,17.37-9.83,18.06-16.37c0.79-8.61-5.57-14.72-15.89-15.53
	c-9.79,0-15.08,4.43-15.98,13.5S158.29,112.52,171.2,114.58z"/>
</svg>
