<?xml version="1.0" encoding="utf-8"?>
<!-- Generator: Adobe Illustrator 24.2.1, SVG Export Plug-In . SVG Version: 6.00 Build 0)  -->
<svg version="1.1" id="Lager_1" xmlns="http://www.w3.org/2000/svg" xmlns:xlink="http://www.w3.org/1999/xlink" x="0px" y="0px"
	 viewBox="0 0 159.59 159.59" style="enable-background:new 0 0 159.59 159.59;" xml:space="preserve">
<style type="text/css">
	.st0{fill:currentColor;}
</style>
<path class="st0" d="M156.42,102c-12.26,42.32-56.51,66.68-98.83,54.42S-9.09,99.91,3.17,57.59S59.68-9.09,102,3.17
	S168.68,59.69,156.42,102z M32.08,87.93l14.48,4.19l3.58-12.36l6.17-4.43l2.95,20.47l15.71,4.55l-7-33.04l18.25-13.95l-13.18-3.82
	L54.43,65.47l-0.14-0.04l5.7-19.67l-14.48-4.19L32.08,87.93z M78.36,101.34l14.47,4.19l5.09-17.55l4.64,1.35l1.47,19.45l16.18,4.69
	l-2.87-22.52c5.46-0.71,10.01-3.91,11.7-9.71c2.85-9.83-4.54-16.78-12.87-19.2l-24.38-7.06L78.36,101.34z M100.81,78.01l2.45-8.47
	l6.01,1.74c4.17,1.21,5.92,3.34,5.22,5.73c-0.93,3.21-3.03,4.08-8.02,2.63L100.81,78.01z"/>
</svg>
