<?xml version="1.0" encoding="utf-8"?>
<!-- Generator: Adobe Illustrator 24.2.1, SVG Export Plug-In . SVG Version: 6.00 Build 0)  -->
<svg version="1.1" id="Lager_1" xmlns="http://www.w3.org/2000/svg" xmlns:xlink="http://www.w3.org/1999/xlink" x="0px" y="0px"
	 viewBox="0 0 217.09 179.97" style="enable-background:new 0 0 217.09 179.97;" xml:space="preserve">
<style type="text/css">
	.st0{fill:currentColor;}
</style>
<g>
	<path class="st0" d="M107.34,160.68l-4.43-8.93l-2.3,4.03c-2.05,3.6-0.8,8.18,2.79,10.23c2.7,1.55,5.97,1.22,8.29-0.57
		C109.86,164.33,108.34,162.7,107.34,160.68z"/>
	<path class="st0" d="M134.33,126.99l7.47,2.59l-4.5,38.29c-0.48,4.11,2.46,7.84,6.57,8.32c4.11,0.48,7.84-2.46,8.32-6.57l5.8-49.29
		l0.17-0.48l-31.15-10.79l-0.47,1.35l-9.71,17l8.03,16.18L134.33,126.99z"/>
	<path class="st0" d="M159.33,116.14l9.84-28.1c0.07-0.03,0.14-0.04,0.21-0.07l44.61-18.79c2.58-1.08,3.78-4.05,2.7-6.63
		c-1.08-2.58-4.05-3.78-6.63-2.7l-41.5,17.48c-0.08-0.03-0.16-0.07-0.24-0.1l-21.61-7.48l-20.67-37.72
		c-1.34-2.45-4.42-3.35-6.87-2.01s-3.35,4.42-2.01,6.87l21.33,38.94l-10.33,29.53L159.33,116.14z"/>
	<ellipse class="st0" cx="163.01" cy="55.48" rx="15.11" ry="15.11"/>
	<path class="st0" d="M109.68,159.52c2.22,4.47,7.64,6.29,12.11,4.07c4.47-2.22,6.29-7.64,4.08-12.1L99.29,97.95l-0.14-0.56
		L60.62,107l0.41,1.63l3.69,62.83c0.29,4.98,4.57,8.78,9.55,8.49s8.78-4.56,8.49-9.54l-2.94-50.17l9.23-2.3L109.68,159.52z"/>
	<path class="st0" d="M98.13,92.59l-8.81-34.57c0.05-0.07,0.11-0.14,0.16-0.21l32.64-47.31c1.89-2.79,1.15-6.58-1.64-8.46
		c-2.79-1.88-6.58-1.15-8.46,1.64L81.66,47.62c-0.1,0.02-0.2,0.03-0.31,0.06l-26.72,6.66L8.97,29.87C6,28.28,3.31,29.4,1.72,32.36
		c-1.59,2.97-0.47,6.66,2.49,8.25l46.14,25.25l9.25,36.34L98.13,92.59z"/>
	<ellipse class="st0" cx="61.68" cy="29.2" rx="18.2" ry="18.2"/>
</g>
</svg>
