<?xml version="1.0" encoding="utf-8"?>
<!-- Generator: Adobe Illustrator 24.2.1, SVG Export Plug-In . SVG Version: 6.00 Build 0)  -->
<svg version="1.1" id="Lager_1" xmlns="http://www.w3.org/2000/svg" xmlns:xlink="http://www.w3.org/1999/xlink" x="0px" y="0px"
	 viewBox="0 0 119.28 171.53" style="enable-background:new 0 0 119.28 171.53;" xml:space="preserve">
<style type="text/css">
	.st0{fill:currentColor;}
</style>
<g>
	<path class="st0" d="M58.7,98.69c-3.82-10.13-13.37-19.14-28.65-27.01c-4.21-2.18-7.37-3.86-9.47-5.03
		c-7.17-4.21-12.4-8.85-15.67-13.91C1.64,47.67,0,41.59,0,34.5c0-9.98,2.88-18.22,8.65-24.73c5.77-6.51,13.02-9.76,21.75-9.76
		c3.04,0,5.87,0.47,8.48,1.4c2.61,0.94,5.4,2.53,8.36,4.79c1.17,1.01,2.73,2.53,4.68,4.56c3.2,3.2,5.77,4.79,7.72,4.79
		c1.87,0,4.72-1.87,8.54-5.61c1.25-1.25,2.26-2.26,3.04-3.04c2.34-2.18,5.03-3.88,8.07-5.09C82.33,0.6,85.52,0,88.88,0
		c8.73,0,15.98,3.24,21.75,9.7c5.77,6.47,8.65,14.66,8.65,24.56c0,7.09-1.64,13.21-4.91,18.36s-8.42,9.82-15.44,14.03
		c-2.1,1.17-5.22,2.81-9.35,4.91c-15.59,8.03-25.26,17.07-29,27.13H58.7z M97.76,139.14c0,9.04-3.65,16.7-10.93,22.98
		c-7.29,6.28-16.35,9.41-27.19,9.41c-10.91,0-19.99-3.1-27.25-9.3c-7.25-6.2-10.87-13.89-10.87-23.09c0-9.12,3.64-16.82,10.93-23.09
		c7.29-6.27,16.35-9.41,27.19-9.41s19.9,3.14,27.19,9.41C94.11,122.33,97.76,130.02,97.76,139.14z"/>
</g>
</svg>
