<?xml version="1.0" encoding="utf-8"?>
<!-- Generator: Adobe Illustrator 24.2.1, SVG Export Plug-In . SVG Version: 6.00 Build 0)  -->
<svg version="1.1" id="Lager_1" xmlns="http://www.w3.org/2000/svg" xmlns:xlink="http://www.w3.org/1999/xlink" x="0px" y="0px"
	 viewBox="0 0 149.76 182.34" style="enable-background:new 0 0 149.76 182.34;" xml:space="preserve">
<style type="text/css">
	.st0{fill:currentColor;}
</style>
<g>
	<g>
		<path class="st0" d="M26.39,104.7h59.66c2.06,0,3.73-1.92,3.73-4.29s-1.67-4.28-3.73-4.28H26.39c-2.06,0-3.73,1.92-3.73,4.28
			S24.33,104.7,26.39,104.7z"/>
		<path class="st0" d="M144.59,47.26c1.25-3.2,1.18-6.69-0.2-9.84c-0.07-0.17-0.18-0.31-0.26-0.47c3.33-1.82,5.63-5.31,5.63-9.37
			c0-5.91-4.8-10.71-10.71-10.71s-10.72,4.8-10.72,10.71c0,0.95,0.17,1.86,0.4,2.74c-3.64,1.14-6.62,3.86-8.08,7.56l-9.45,24.16
			V12.86c0-2.35,0-6.21,0-8.57S109.41,0,107.23,0c-2.18,0-5.9,0-8.26,0H12.22C9.87,0,6.15,0,3.97,0C1.78,0,0,1.93,0,4.28
			s0,6.21,0,8.57v156.63c0,2.35,0,6.21,0,8.57s1.79,4.29,3.97,4.29s5.9,0,8.25,0h86.75c2.36,0,6.07,0,8.26,0
			c2.19,0,3.97-1.93,3.97-4.29c0-2.35,0-6.22,0-8.57v-36.9l11.76-30.06c0.59-0.02,1.17-0.16,1.74-0.44
			c12.53-6.31,21.59-16.82,24.24-28.12c2.03-8.67,0.23-17.19-5.14-24.71L144.59,47.26z M128.63,41.02c0.67-1.69,2.29-2.72,4-2.72
			c0.52,0,1.04,0.1,1.55,0.29c2.2,0.86,3.29,3.35,2.43,5.55l-4.41,11.27c-4.17-0.11-7.05-1.83-7.88-3.39L128.63,41.02z
			 M98.97,173.78H12.22c-2.35,0-4.28-1.93-4.28-4.28V12.86c0-2.35,1.93-4.28,4.28-4.28h86.75c2.36,0,4.29,1.93,4.29,4.28v69.49
			l-14.14,36.12c-0.66-1.17-1.76-1.99-3.07-1.99H26.39c-2.06,0-3.73,1.92-3.73,4.28c0,2.37,1.67,4.28,3.73,4.28h59.66
			c0.2,0,0.36-0.09,0.55-0.12l-4.51,11.51c-0.05,0.13-0.06,0.27-0.11,0.4H26.39c-2.06,0-3.73,1.91-3.73,4.28s1.67,4.29,3.73,4.29H82
			c0.1,0.29,0.16,0.59,0.29,0.87c0.57,1.3,1.37,2.44,2.3,3.46l-4.22,11.31c-0.83,2.22,0.3,4.68,2.52,5.51c0.49,0.18,1,0.27,1.5,0.27
			c1.74,0,3.37-1.07,4.01-2.79l3.82-10.23c0.61,0.09,1.22,0.17,1.85,0.17c3.56,0,6.82-1.46,9.19-3.9v19.43
			C103.26,171.85,101.33,173.78,98.97,173.78z M98.06,142.67c-0.67,1.69-2.28,2.73-3.99,2.73c-1.74,0-3.01-1.37-3.12-1.4
			c-1.08-1.16-1.49-2.86-0.87-4.45l30.9-78.95c2.19,1.52,4.91,2.62,7.99,3.11L98.06,142.67z M140.6,72.02
			c-1.57,6.69-6.18,13.11-12.78,18.09l11.95-30.51C141.31,63.57,141.61,67.72,140.6,72.02z M139.05,29.73
			c-1.18,0-2.14-0.96-2.14-2.14s0.96-2.14,2.14-2.14s2.14,0.96,2.14,2.14S140.23,29.73,139.05,29.73z"/>
	</g>
	<g>
		<path class="st0" d="M54.59,50.27c0,1.12-0.32,2.32-0.96,3.59s-1.62,2.49-2.94,3.64s-2.98,2.08-4.98,2.78s-4.26,1.05-6.76,1.05
			c-5.33,0-9.49-1.62-12.48-4.86s-4.49-7.58-4.49-13.02c0-3.69,0.68-6.95,2.05-9.78s3.35-5.02,5.94-6.57
			c2.59-1.55,5.69-2.32,9.29-2.32c2.23,0,4.28,0.34,6.15,1.02c1.86,0.68,3.44,1.56,4.74,2.63c1.3,1.08,2.29,2.22,2.97,3.44
			s1.03,2.35,1.03,3.41c0,1.08-0.38,1.99-1.15,2.73c-0.77,0.75-1.7,1.12-2.8,1.12c-0.72,0-1.31-0.19-1.79-0.58
			c-0.47-0.38-1.01-1-1.6-1.86c-1.05-1.67-2.15-2.92-3.3-3.75s-2.61-1.25-4.38-1.25c-2.55,0-4.6,1.04-6.16,3.11
			c-1.56,2.07-2.34,4.91-2.34,8.51c0,1.69,0.2,3.24,0.6,4.66s0.98,2.62,1.74,3.62c0.76,1,1.67,1.76,2.75,2.27
			c1.07,0.52,2.25,0.77,3.54,0.77c1.73,0,3.21-0.42,4.44-1.25s2.32-2.11,3.27-3.82c0.53-1.01,1.1-1.8,1.71-2.37s1.36-0.86,2.24-0.86
			c1.05,0,1.93,0.42,2.62,1.25C54.24,48.44,54.59,49.33,54.59,50.27z"/>
		<path class="st0" d="M68.21,30.45l6.98,20.41l7.52-21.3c0.59-1.71,1.17-2.92,1.74-3.64c0.57-0.71,1.43-1.07,2.59-1.07
			c1.09,0,2.03,0.38,2.8,1.15c0.77,0.77,1.15,1.66,1.15,2.67c0,0.4-0.07,0.86-0.21,1.38c-0.14,0.53-0.3,1.02-0.47,1.48
			c-0.18,0.46-0.38,0.99-0.62,1.58l-8.28,21.4c-0.23,0.61-0.53,1.39-0.9,2.34c-0.37,0.94-0.78,1.75-1.23,2.42s-1.01,1.19-1.67,1.56
			c-0.66,0.37-1.47,0.56-2.42,0.56c-1.22,0-2.2-0.29-2.92-0.87c-0.73-0.58-1.26-1.22-1.61-1.91s-0.93-2.06-1.75-4.1l-8.22-21.17
			c-0.19-0.53-0.38-1.05-0.58-1.58s-0.37-1.06-0.51-1.61s-0.21-1.02-0.21-1.42c0-0.61,0.18-1.22,0.54-1.83
			c0.36-0.6,0.85-1.1,1.49-1.48c0.63-0.38,1.32-0.58,2.05-0.58c1.43,0,2.42,0.43,2.95,1.28C66.96,27,67.55,28.43,68.21,30.45z"/>
	</g>
</g>
<path class="st0" d="M26.39,84h59.66c2.06,0,3.73-1.92,3.73-4.29s-1.67-4.28-3.73-4.28H26.39c-2.06,0-3.73,1.92-3.73,4.28
	C22.67,82.07,24.33,84,26.39,84z"/>
</svg>
