<?xml version="1.0" encoding="utf-8"?>
<!-- Generator: Adobe Illustrator 24.3.0, SVG Export Plug-In . SVG Version: 6.00 Build 0)  -->
<svg version="1.0" id="Layer_1" xmlns="http://www.w3.org/2000/svg" xmlns:xlink="http://www.w3.org/1999/xlink" x="0px" y="0px"
	 viewBox="0 0 433 422" style="enable-background:new 0 0 433 422;" xml:space="preserve">
<style type="text/css">
	.st0{fill:#E6E6DD;}
</style>
<path id="Artboard" class="st0" d="M164.1,422c-2.9,0-5.9-0.1-8.8-0.2c-0.8,0-1.5-0.7-1.4-1.6c0-0.8,0.8-1.4,1.6-1.4
	c2.9,0.1,5.8,0.2,8.7,0.2l1.2,0c0,0,0,0,0,0c0.8,0,1.5,0.7,1.5,1.5c0,0.8-0.7,1.5-1.5,1.5L164.1,422z M180.2,421.2
	c-0.8,0-1.4-0.6-1.5-1.4c-0.1-0.8,0.5-1.6,1.3-1.6c3.3-0.3,6.6-0.8,9.8-1.3c0.8-0.1,1.6,0.4,1.7,1.2c0.1,0.8-0.4,1.6-1.2,1.7
	c-3.3,0.5-6.7,1-10,1.3C180.3,421.2,180.3,421.2,180.2,421.2z M140.3,420.4c-0.1,0-0.1,0-0.2,0c-3.3-0.4-6.6-0.9-10-1.5
	c-0.8-0.1-1.4-0.9-1.2-1.7c0.1-0.8,0.9-1.4,1.7-1.2c3.3,0.6,6.6,1.1,9.8,1.5c0.8,0.1,1.4,0.9,1.3,1.7
	C141.7,419.9,141.1,420.4,140.3,420.4z M204.8,416.8c-0.7,0-1.3-0.4-1.4-1.1c-0.2-0.8,0.3-1.6,1.1-1.8c3.2-0.8,6.4-1.8,9.5-2.8
	c0.8-0.3,1.6,0.2,1.9,0.9c0.3,0.8-0.2,1.6-0.9,1.9c-3.2,1.1-6.4,2.1-9.7,2.9C205.1,416.8,204.9,416.8,204.8,416.8z M116.7,416
	c-0.1,0-0.2,0-0.4,0c-3.3-0.8-6.6-1.7-9.7-2.7c-0.8-0.2-1.2-1.1-1-1.9c0.2-0.8,1.1-1.2,1.9-1c3.1,0.9,6.3,1.8,9.6,2.6
	c0.8,0.2,1.3,1,1.1,1.8C117.9,415.5,117.3,416,116.7,416z M228.3,408.4c-0.6,0-1.1-0.3-1.4-0.9c-0.3-0.8,0-1.6,0.8-2
	c3-1.3,6-2.8,8.9-4.4c0.7-0.4,1.6-0.1,2,0.6c0.4,0.7,0.1,1.6-0.6,2c-3,1.6-6,3.1-9.1,4.4C228.8,408.4,228.5,408.4,228.3,408.4z
	 M92.9,408.2c-0.2,0-0.4,0-0.6-0.1c-3.1-1.3-6.2-2.8-9.1-4.3c-0.7-0.4-1-1.3-0.6-2c0.4-0.7,1.3-1,2-0.6c2.8,1.5,5.8,2.9,8.9,4.2
	c0.8,0.3,1.1,1.2,0.8,2C94.1,407.9,93.5,408.2,92.9,408.2z M250.2,396.4c-0.5,0-1-0.2-1.3-0.7c-0.5-0.7-0.3-1.6,0.4-2.1
	c1.9-1.3,3.9-2.6,5.8-4l2.4-1.7c0.7-0.5,1.6-0.3,2.1,0.3c0.5,0.7,0.3,1.6-0.3,2.1l-2.4,1.7c-1.9,1.4-3.9,2.7-5.9,4
	C250.8,396.3,250.5,396.4,250.2,396.4z M71.2,396.1c-0.3,0-0.6-0.1-0.9-0.3c-2.8-2-5.4-4.1-7.9-6.3c-0.6-0.5-0.7-1.5-0.1-2.1
	c0.5-0.6,1.5-0.7,2.1-0.1c2.4,2.1,5,4.2,7.7,6.1c0.7,0.5,0.8,1.4,0.3,2.1C72.1,395.9,71.6,396.1,71.2,396.1z M270.7,382
	c-0.5,0-0.9-0.2-1.2-0.6c-0.5-0.7-0.3-1.6,0.4-2.1c2.7-1.9,5.4-3.8,8.2-5.8c0.7-0.5,1.6-0.3,2.1,0.4c0.5,0.7,0.3,1.6-0.4,2.1
	c-2.7,1.9-5.5,3.9-8.2,5.8C271.3,381.9,271,382,270.7,382z M52.9,379.1c-0.4,0-0.9-0.2-1.2-0.5c-2.1-2.6-4.2-5.3-6-8.2
	c-0.5-0.7-0.3-1.6,0.4-2.1c0.7-0.5,1.6-0.3,2.1,0.4c1.8,2.7,3.8,5.4,5.8,7.9c0.5,0.6,0.4,1.6-0.2,2.1
	C53.6,379,53.3,379.1,52.9,379.1z M291.1,367.6c-0.5,0-0.9-0.2-1.2-0.6c-0.5-0.7-0.3-1.6,0.4-2.1c2.7-1.9,5.4-3.8,8.2-5.7
	c0.7-0.5,1.6-0.3,2.1,0.4c0.5,0.7,0.3,1.6-0.4,2.1c-2.7,1.9-5.5,3.8-8.2,5.7C291.7,367.5,291.4,367.6,291.1,367.6z M39.8,358
	c-0.6,0-1.1-0.3-1.4-0.9c-1.4-3-2.7-6.2-3.8-9.4c-0.3-0.8,0.1-1.6,0.9-1.9c0.8-0.3,1.6,0.1,1.9,0.9c1.1,3.1,2.3,6.2,3.7,9.1
	c0.3,0.8,0,1.6-0.7,2C40.2,357.9,40,358,39.8,358z M311.6,353.3c-0.5,0-0.9-0.2-1.2-0.6c-0.5-0.7-0.3-1.6,0.4-2.1
	c2.7-1.9,5.5-3.8,8.2-5.7c0.7-0.5,1.6-0.3,2.1,0.4c0.5,0.7,0.3,1.6-0.4,2.1c-2.8,1.9-5.5,3.8-8.2,5.7
	C312.2,353.2,311.9,353.3,311.6,353.3z M332.2,339.1c-0.5,0-0.9-0.2-1.2-0.7c-0.5-0.7-0.3-1.6,0.4-2.1c2.7-1.9,5.5-3.8,8.2-5.7
	c0.7-0.5,1.6-0.3,2.1,0.4c0.5,0.7,0.3,1.6-0.4,2.1c-2.8,1.9-5.5,3.8-8.2,5.7C332.8,339,332.5,339.1,332.2,339.1z M31.9,334.3
	c-0.7,0-1.3-0.5-1.5-1.2c-0.7-3.2-1.3-6.6-1.8-9.9c-0.1-0.8,0.4-1.6,1.3-1.7c0.8-0.1,1.6,0.4,1.7,1.3c0.5,3.3,1.1,6.6,1.8,9.7
	c0.2,0.8-0.3,1.6-1.1,1.8C32.2,334.3,32,334.3,31.9,334.3z M352.9,325c-0.5,0-1-0.2-1.2-0.7c-0.5-0.7-0.3-1.6,0.4-2.1
	c2.7-1.9,5.5-3.7,8.3-5.6c0.7-0.5,1.6-0.3,2.1,0.4c0.5,0.7,0.3,1.6-0.4,2.1c-2.8,1.9-5.5,3.8-8.3,5.6
	C353.4,324.9,353.1,325,352.9,325z M373.6,311c-0.5,0-1-0.2-1.2-0.7c-0.5-0.7-0.3-1.6,0.4-2.1c2.8-1.9,5.5-3.7,8.3-5.6
	c0.7-0.5,1.6-0.3,2.1,0.4c0.5,0.7,0.3,1.6-0.4,2.1c-2.8,1.9-5.5,3.7-8.3,5.6C374.1,310.9,373.8,311,373.6,311z M28.5,309.5
	c-0.8,0-1.4-0.6-1.5-1.3c-0.4-3.3-0.7-6.6-1.1-9.9c-0.1-0.8,0.5-1.6,1.3-1.7c0.8-0.1,1.6,0.5,1.7,1.3c0.4,3.3,0.7,6.6,1.1,10
	c0.1,0.8-0.5,1.6-1.3,1.7C28.6,309.5,28.5,309.5,28.5,309.5z M394.2,296.8c-0.5,0-0.9-0.2-1.2-0.6c-0.5-0.7-0.4-1.6,0.3-2.1
	c2.7-2,5.3-4.1,7.7-6.2c0.6-0.5,1.6-0.5,2.1,0.2c0.5,0.6,0.5,1.6-0.2,2.1c-2.5,2.1-5.1,4.2-7.9,6.3
	C394.8,296.7,394.5,296.8,394.2,296.8z M25.6,284.7c-0.7,0-1.4-0.6-1.5-1.3c-0.4-3.3-0.8-6.6-1.3-9.9c-0.1-0.8,0.5-1.6,1.3-1.7
	c0.8-0.1,1.6,0.5,1.7,1.3c0.4,3.3,0.9,6.6,1.3,9.9c0.1,0.8-0.5,1.6-1.3,1.7C25.7,284.7,25.6,284.7,25.6,284.7z M412.7,280.1
	c-0.4,0-0.7-0.1-1-0.4c-0.6-0.5-0.7-1.5-0.1-2.1c2.2-2.5,4.3-5.1,6.1-7.7c0.5-0.7,1.4-0.8,2.1-0.4c0.7,0.5,0.8,1.4,0.4,2.1
	c-1.9,2.7-4,5.4-6.3,8C413.5,279.9,413.1,280.1,412.7,280.1z M22.3,259.9c-0.7,0-1.4-0.5-1.5-1.3c-0.5-3.3-1-6.6-1.5-9.9
	c-0.1-0.8,0.4-1.6,1.3-1.7c0.8-0.1,1.6,0.4,1.7,1.3c0.5,3.3,1,6.6,1.5,9.9c0.1,0.8-0.5,1.6-1.3,1.7
	C22.4,259.9,22.3,259.9,22.3,259.9z M426.3,259.2c-0.2,0-0.4,0-0.6-0.1c-0.8-0.3-1.1-1.2-0.8-2c1.3-3,2.4-6.1,3.2-9.2
	c0.2-0.8,1-1.3,1.8-1.1c0.8,0.2,1.3,1,1.1,1.8c-0.8,3.3-2,6.5-3.3,9.7C427.4,258.9,426.8,259.2,426.3,259.2z M18.5,235.2
	c-0.7,0-1.4-0.5-1.5-1.3c-0.5-3.3-1.1-6.6-1.6-9.9c-0.1-0.8,0.4-1.6,1.2-1.7c0.8-0.1,1.6,0.4,1.7,1.2c0.6,3.3,1.1,6.6,1.6,9.9
	c0.1,0.8-0.4,1.6-1.2,1.7C18.6,235.2,18.6,235.2,18.5,235.2z M431.5,235C431.5,235,431.5,235,431.5,235c-0.9,0-1.5-0.7-1.5-1.5
	c0-0.4,0-0.7,0-1.1c0-2.8-0.2-5.8-0.6-8.7c-0.1-0.8,0.5-1.6,1.3-1.7c0.8-0.1,1.6,0.5,1.7,1.3c0.4,3,0.6,6.1,0.6,9.1
	c0,0.4,0,0.7,0,1.1C433,234.3,432.3,235,431.5,235z M14.3,210.6c-0.7,0-1.3-0.5-1.5-1.2c-0.6-3.3-1.2-6.6-1.8-9.8
	c-0.2-0.8,0.4-1.6,1.2-1.8c0.8-0.2,1.6,0.4,1.8,1.2c0.6,3.3,1.2,6.6,1.8,9.8c0.1,0.8-0.4,1.6-1.2,1.7
	C14.4,210.6,14.3,210.6,14.3,210.6z M427.6,210.4c-0.6,0-1.2-0.4-1.4-1c-1-3-2.1-6.1-3.5-9.2c-0.3-0.8,0-1.6,0.8-2
	c0.8-0.3,1.6,0,2,0.8c1.4,3.2,2.6,6.4,3.6,9.5c0.3,0.8-0.2,1.6-1,1.9C427.9,210.4,427.8,210.4,427.6,210.4z M417.4,187.6
	c-0.5,0-1-0.3-1.3-0.8c-1.3-2.3-2.7-4.6-4.2-6.9l-1-1.5c-0.4-0.7-0.2-1.6,0.4-2.1c0.7-0.4,1.6-0.2,2.1,0.4l1,1.5
	c1.5,2.4,3,4.7,4.3,7.1c0.4,0.7,0.2,1.6-0.6,2C417.9,187.6,417.7,187.6,417.4,187.6z M9.6,186c-0.7,0-1.3-0.5-1.5-1.2
	c-0.7-3.3-1.3-6.5-2-9.8c-0.2-0.8,0.4-1.6,1.2-1.8c0.8-0.2,1.6,0.4,1.8,1.2c0.7,3.3,1.3,6.5,2,9.8c0.2,0.8-0.4,1.6-1.2,1.8
	C9.8,186,9.7,186,9.6,186z M404,166.5c-0.5,0-1-0.2-1.3-0.7c-1.8-2.8-3.7-5.6-5.5-8.4c-0.5-0.7-0.3-1.6,0.4-2.1s1.6-0.3,2.1,0.4
	c1.8,2.8,3.7,5.6,5.5,8.4c0.5,0.7,0.3,1.6-0.4,2.1C404.6,166.5,404.3,166.5,404,166.5z M4.4,161.5c-0.7,0-1.3-0.5-1.5-1.2
	c-0.7-3.4-1.3-6.7-1.8-9.9c-0.1-0.8,0.5-1.6,1.3-1.7c0.8-0.1,1.6,0.5,1.7,1.3c0.4,3.2,1,6.4,1.7,9.7c0.2,0.8-0.3,1.6-1.2,1.8
	C4.6,161.5,4.5,161.5,4.4,161.5z M390.3,145.7c-0.5,0-1-0.2-1.2-0.7c-1.8-2.8-3.7-5.6-5.5-8.3c-0.5-0.7-0.3-1.6,0.4-2.1
	c0.7-0.5,1.6-0.3,2.1,0.4c1.8,2.8,3.7,5.5,5.6,8.3c0.5,0.7,0.3,1.6-0.4,2.1C390.8,145.6,390.6,145.7,390.3,145.7z M1.5,136.8
	c-0.8,0-1.5-0.7-1.5-1.5c0-0.3,0-0.7,0-1c0-3.1,0.1-6.2,0.4-9.1c0.1-0.8,0.8-1.4,1.6-1.3c0.8,0.1,1.4,0.8,1.3,1.6
	c-0.3,2.9-0.4,5.8-0.4,8.8c0,0.3,0,0.7,0,1C3,136.1,2.3,136.7,1.5,136.8C1.5,136.8,1.5,136.8,1.5,136.8z M376.3,124.9
	c-0.5,0-1-0.2-1.2-0.7c-1.9-2.8-3.7-5.5-5.6-8.3c-0.5-0.7-0.3-1.6,0.4-2.1c0.7-0.5,1.6-0.3,2.1,0.4c1.9,2.7,3.7,5.5,5.6,8.3
	c0.5,0.7,0.3,1.6-0.4,2.1C376.9,124.8,376.6,124.9,376.3,124.9z M4.8,112.1c-0.1,0-0.3,0-0.4-0.1c-0.8-0.2-1.2-1.1-1-1.9
	c1-3.3,2.2-6.5,3.6-9.5c0.4-0.8,1.2-1.1,2-0.7c0.8,0.4,1.1,1.2,0.7,2c-1.4,2.9-2.5,6-3.5,9.1C6,111.7,5.4,112.1,4.8,112.1z
	 M362.2,104.3c-0.5,0-0.9-0.2-1.2-0.6c-1.9-2.8-3.8-5.5-5.7-8.2c-0.5-0.7-0.3-1.6,0.4-2.1c0.7-0.5,1.6-0.3,2.1,0.4
	c1.9,2.7,3.8,5.5,5.7,8.2c0.5,0.7,0.3,1.6-0.4,2.1C362.8,104.2,362.5,104.3,362.2,104.3z M16.1,90c-0.3,0-0.6-0.1-0.9-0.3
	c-0.7-0.5-0.8-1.4-0.3-2.1c2-2.6,4.3-5.2,6.8-7.6c0.6-0.6,1.5-0.6,2.1,0c0.6,0.6,0.6,1.5,0,2.1c-2.4,2.3-4.5,4.8-6.5,7.3
	C17,89.8,16.6,90,16.1,90z M347.9,83.8c-0.5,0-0.9-0.2-1.2-0.6c-1.9-2.7-3.9-5.4-5.8-8.1c-0.5-0.7-0.3-1.6,0.4-2.1
	c0.7-0.5,1.6-0.3,2.1,0.4c1.9,2.7,3.9,5.4,5.8,8.2c0.5,0.7,0.3,1.6-0.4,2.1C348.5,83.7,348.2,83.8,347.9,83.8z M34.4,73.1
	c-0.5,0-1-0.2-1.2-0.7c-0.5-0.7-0.3-1.6,0.4-2.1c2.7-1.8,5.6-3.6,8.7-5.3c0.7-0.4,1.6-0.1,2,0.6c0.4,0.7,0.1,1.6-0.6,2
	c-2.9,1.6-5.8,3.3-8.4,5.1C35,73,34.7,73.1,34.4,73.1z M333.4,63.5c-0.5,0-0.9-0.2-1.2-0.6c-2-2.7-3.9-5.4-5.9-8.1
	c-0.5-0.7-0.3-1.6,0.3-2.1c0.7-0.5,1.6-0.3,2.1,0.3c2,2.7,3.9,5.4,5.9,8.1c0.5,0.7,0.3,1.6-0.3,2.1C334,63.4,333.7,63.5,333.4,63.5z
	 M56.5,61.5c-0.6,0-1.2-0.4-1.4-0.9c-0.3-0.8,0.1-1.6,0.8-2c1.3-0.5,2.6-1,3.9-1.5l5.5-2c0.8-0.3,1.6,0.1,1.9,0.9
	c0.3,0.8-0.1,1.6-0.9,1.9l-5.5,2c-1.3,0.5-2.6,1-3.9,1.5C56.8,61.4,56.6,61.5,56.5,61.5z M79.9,52.8c-0.6,0-1.2-0.4-1.4-1
	c-0.3-0.8,0.1-1.6,0.9-1.9c3.1-1.1,6.3-2.3,9.4-3.4c0.8-0.3,1.6,0.1,1.9,0.9c0.3,0.8-0.1,1.6-0.9,1.9c-3.1,1.1-6.3,2.3-9.4,3.4
	C80.2,52.8,80.1,52.8,79.9,52.8z M103.4,44.3c-0.6,0-1.2-0.4-1.4-1c-0.3-0.8,0.1-1.6,0.9-1.9c3.1-1.1,6.3-2.2,9.4-3.4
	c0.8-0.3,1.6,0.1,1.9,0.9c0.3,0.8-0.1,1.6-0.9,1.9c-3.1,1.1-6.3,2.2-9.4,3.4C103.8,44.3,103.6,44.3,103.4,44.3z M318.6,43.3
	c-0.4,0-0.9-0.2-1.2-0.6c-2.1-2.6-4.2-5.2-6.4-7.6c-0.6-0.6-0.5-1.6,0.1-2.1c0.6-0.6,1.6-0.5,2.1,0.1c2.2,2.4,4.4,5,6.5,7.7
	c0.5,0.7,0.4,1.6-0.3,2.1C319.2,43.2,318.9,43.3,318.6,43.3z M127,35.9c-0.6,0-1.2-0.4-1.4-1c-0.3-0.8,0.1-1.6,0.9-1.9
	c3.1-1.1,6.3-2.2,9.4-3.3c0.8-0.3,1.6,0.1,1.9,0.9c0.3,0.8-0.1,1.6-0.9,1.9c-3.1,1.1-6.3,2.2-9.4,3.3
	C127.3,35.9,127.1,35.9,127,35.9z M150.6,27.7c-0.6,0-1.2-0.4-1.4-1c-0.3-0.8,0.1-1.6,0.9-1.9c3.2-1.1,6.3-2.2,9.5-3.2
	c0.8-0.3,1.6,0.2,1.9,0.9c0.3,0.8-0.2,1.6-0.9,1.9c-3.2,1.1-6.3,2.2-9.5,3.2C150.9,27.7,150.8,27.7,150.6,27.7z M301.4,25.2
	c-0.3,0-0.7-0.1-1-0.4c-2.5-2.2-5.1-4.2-7.8-6c-0.7-0.5-0.8-1.4-0.4-2.1c0.5-0.7,1.4-0.8,2.1-0.4c2.7,1.9,5.4,4,8,6.2
	c0.6,0.5,0.7,1.5,0.2,2.1C302.3,25,301.8,25.2,301.4,25.2z M174.3,19.7c-0.6,0-1.2-0.4-1.4-1c-0.3-0.8,0.2-1.6,0.9-1.9
	c3.2-1.1,6.3-2.1,9.5-3.2c0.8-0.3,1.6,0.2,1.9,0.9c0.3,0.8-0.2,1.6-0.9,1.9c-3.2,1.1-6.3,2.1-9.5,3.2
	C174.6,19.6,174.4,19.7,174.3,19.7z M198,11.7c-0.6,0-1.2-0.4-1.4-1c-0.3-0.8,0.2-1.6,1-1.9c2.2-0.7,4.4-1.5,6.6-2.2
	c1-0.3,2-0.6,2.9-0.9c0.8-0.2,1.6,0.2,1.9,1c0.2,0.8-0.2,1.6-1,1.9c-1,0.3-1.9,0.6-2.9,0.9c-2.2,0.7-4.4,1.4-6.6,2.2
	C198.3,11.7,198.1,11.7,198,11.7z M280.6,11.5c-0.2,0-0.4,0-0.6-0.1c-3-1.4-6-2.7-9.1-3.7c-0.8-0.3-1.2-1.1-0.9-1.9
	c0.3-0.8,1.1-1.2,1.9-0.9c3.2,1.1,6.3,2.4,9.4,3.9c0.7,0.4,1.1,1.3,0.7,2C281.7,11.2,281.2,11.5,280.6,11.5z M222,5
	c-0.7,0-1.3-0.5-1.5-1.2c-0.2-0.8,0.4-1.6,1.2-1.8c3.4-0.6,6.7-1.1,10-1.5c0.8-0.1,1.6,0.5,1.6,1.3c0.1,0.8-0.5,1.6-1.3,1.6
	c-3.2,0.3-6.5,0.8-9.8,1.4C222.2,5,222.1,5,222,5z M256.8,4.1c-0.1,0-0.2,0-0.2,0c-3.2-0.5-6.5-0.8-9.8-1c-0.8,0-1.5-0.7-1.4-1.6
	c0-0.8,0.8-1.5,1.6-1.4c3.4,0.2,6.8,0.5,10.1,1c0.8,0.1,1.4,0.9,1.2,1.7C258.2,3.6,257.6,4.1,256.8,4.1z M176.8,371
	c-11.5,0-23.5-1.5-35.9-4.5c-40.4-9.9-62.9-35.4-67-76c-4-39.8-10.3-79.2-18.6-117.1c-8.5-38.8,6-65.4,43-79.2
	c36.2-13.5,72.8-26.3,108.7-38.2c36.6-12.1,66.8-2.3,89.7,28.9c22.5,30.7,45.8,64.7,69.1,101.1c23.8,37.2,17.3,68.6-19.4,93.3
	c-35.9,24.2-69.4,47.4-99.3,68.9C226.2,363.4,202.6,371,176.8,371z M236.1,54c-8.9,0-18.3,1.6-28.1,4.9
	C172.1,70.7,135.5,83.6,99.4,97c-17.7,6.6-30.2,16.3-37,28.8c-6.8,12.5-8.2,28.3-4.1,46.9c8.3,38,14.6,77.5,18.6,117.4
	c2,19.6,8.4,35.7,19.1,47.8c10.7,12.1,26.1,20.7,45.6,25.5c39.2,9.6,74.2,3.7,103.8-17.6c30-21.5,63.5-44.7,99.4-69
	c17.6-11.9,28.1-25.4,31.2-40.1c3.1-14.7-1.2-31.3-12.6-49.1c-23.3-36.3-46.5-70.3-69-100.9c-11.1-15.1-23.9-25.1-38.2-29.7
	C249.8,55,243.1,54,236.1,54z M192.1,310c-12.9,0-23.9-6.7-32.8-20c-12-17.8-24.3-37.6-36.7-58.7c-12.8-21.9-9.3-40.4,10.5-54.9
	c19-14,36.8-27.5,52.7-40c16.3-12.8,35.5-16.4,57.1-10.6c21.7,5.8,33.9,20.8,36.1,44.6c2.1,23.1,5.4,45.9,9.8,67.9
	c4.6,22.8-3.2,38.5-23.2,46.7c-19.2,7.8-38.6,15.3-57.7,22.2C202.3,309,197,310,192.1,310z M223.6,126c-13.2,0-25.3,4.2-36,12.6
	c-16,12.5-33.7,26-52.8,40.1c-18.6,13.7-21.8,30.4-9.7,51c12.4,21.1,24.7,40.8,36.6,58.6c11.7,17.4,26.4,22.6,45,15.9
	c19.1-6.9,38.4-14.3,57.6-22.1c18.7-7.6,25.7-21.8,21.4-43.3c-4.4-22.1-7.7-45-9.9-68.2c-2.1-22.7-13.2-36.5-33.8-42l0,0
	C235.7,126.9,229.5,126,223.6,126z"/>
</svg>
