<?xml version="1.0" encoding="UTF-8" standalone="no"?>
<!-- Created with Inkscape (http://www.inkscape.org/) -->

<svg
   version="1.1"
   id="svg1"
   width="188.97333"
   height="188.97333"
   viewBox="0 0 188.97333 188.97333"
   sodipodi:docname="Scoutsymbolen_rgb.eps"
   xmlns:inkscape="http://www.inkscape.org/namespaces/inkscape"
   xmlns:sodipodi="http://sodipodi.sourceforge.net/DTD/sodipodi-0.dtd"
   xmlns="http://www.w3.org/2000/svg"
   xmlns:svg="http://www.w3.org/2000/svg">
  <defs
     id="defs1" />
  <sodipodi:namedview
     id="namedview1"
     pagecolor="#ffffff"
     bordercolor="#000000"
     borderopacity="0.25"
     inkscape:showpageshadow="2"
     inkscape:pageopacity="0.0"
     inkscape:pagecheckerboard="0"
     inkscape:deskcolor="#d1d1d1">
    <inkscape:page
       x="0"
       y="0"
       inkscape:label="1"
       id="page1"
       width="188.97333"
       height="188.97333"
       margin="0"
       bleed="0" />
  </sodipodi:namedview>
  <g
     id="g1"
     inkscape:groupmode="layer"
     inkscape:label="1">
    <path
       id="path1"
       d="m 299.145,479.578 c 72.062,1.918 132.207,39.25 179.543,109.883 -5.274,6.301 -12.942,14.797 -19.52,18.906 -25.547,15.957 -52.34,20.071 -73.57,11.371 -16.032,-6.371 -25.285,-16.234 -28.293,-30.215 -5.278,-23.906 9.519,-52.539 15.961,-59.324 l 16.3,-17.051 -23.562,1.094 C 270.848,519.039 195.563,563.773 159.457,637 c -33.293,67.617 -27.879,150.098 13.77,210.242 51.242,74.051 163.796,114.676 287.863,65.836 -32.613,36.238 -85.496,77.199 -159.828,79.051 C 246.598,993.496 193.578,971.852 152.063,931.227 101.781,882.105 73.1484,810.387 73.2773,734.488 73.418,659.672 102.328,588.703 152.539,539.727 c 41.172,-40.145 93.234,-61.45 146.606,-60.149"
       style="fill:#043a63;fill-opacity:1;fill-rule:nonzero;stroke:none"
       transform="matrix(0.13333333,0,0,-0.13333333,0,188.97333)" />
    <path
       id="path2"
       d="m 513.559,380.801 c -14.59,12.051 -23.289,25.609 -23.289,41.238 0,11.981 5.41,28.969 26.71,44.66 -1.777,28.02 -6.089,51.449 -11.71,70.973 C 387.926,365.172 238.313,410.32 194.055,429.16 c -34.66,14.863 -60.418,35.692 -78.711,54.32 31.304,-82.269 113.511,-237.921 281.351,-210.23 53.633,8.898 105.016,56.781 116.864,107.551"
       style="fill:#043a63;fill-opacity:1;fill-rule:nonzero;stroke:none"
       transform="matrix(0.13333333,0,0,-0.13333333,0,188.97333)" />
    <path
       id="path3"
       d="m 1118.12,479.578 c 53.43,-1.301 105.42,20.07 146.67,60.219 50.21,48.906 79.12,119.875 79.26,194.691 0.13,75.899 -28.58,147.688 -78.79,196.739 -41.59,40.625 -94.6,62.269 -149.27,60.902 -74.4,-1.852 -127.213,-42.813 -159.818,-79.051 123.988,48.84 236.608,8.215 287.858,-65.836 41.71,-60.082 47.06,-142.562 13.77,-210.172 -36.04,-73.297 -111.39,-118.031 -206.55,-122.828 l -23.56,-1.094 16.3,17.051 c 6.44,6.785 21.24,35.418 15.97,59.324 -3.09,13.981 -12.27,23.844 -28.3,30.286 -21.16,8.699 -48.015,4.589 -73.504,-11.442 -6.64,-4.109 -14.246,-12.605 -19.593,-18.906 47.265,-70.633 107.477,-107.965 179.557,-109.883"
       style="fill:#043a63;fill-opacity:1;fill-rule:nonzero;stroke:none"
       transform="matrix(0.13333333,0,0,-0.13333333,0,188.97333)" />
    <path
       id="path4"
       d="m 596.449,847.59 27.813,-77.145 c 12.402,-31.988 24.187,-62.203 33.226,-99.875 15.071,-62.406 18.633,-113.722 21.582,-154.961 l 0.547,-7.257 c 0,0 0,-0.684 0,-0.825 10.481,0.274 27.399,0.825 27.399,0.825 0,0 3.152,-0.411 3.222,0 0,0 16.989,-0.551 27.399,-0.825 0,0.141 0.617,8.567 0.617,8.567 3.086,43.222 6.508,92.273 21.516,154.476 9.101,37.746 20.89,68.09 33.363,100.086 0,0 27.672,76.864 27.742,76.934 C 836.559,896.77 843,943.902 843,988.293 843,1168.46 736.609,1302.59 708.598,1334.79 680.641,1302.8 574.121,1169.21 574.121,988.91 c 0,-44.531 6.57,-91.93 22.328,-141.32"
       style="fill:#043a63;fill-opacity:1;fill-rule:nonzero;stroke:none"
       transform="matrix(0.13333333,0,0,-0.13333333,0,188.97333)" />
    <path
       id="path5"
       d="m 397.652,1025.56 c -17.058,34.46 -24.25,67.14 -24.25,97.35 0,71.52 38.227,128.86 68.297,163.04 -64.738,-30.49 -186.812,-105.3 -276.078,-251.76 44.606,28.7 121.598,50.9 232.031,-8.63"
       style="fill:#043a63;fill-opacity:1;fill-rule:nonzero;stroke:none"
       transform="matrix(0.13333333,0,0,-0.13333333,0,188.97333)" />
    <path
       id="path6"
       d="m 710.238,387.711 c 105.426,0 155.434,25.488 163.039,34.328 -7.605,8.828 -57.613,34.316 -163.039,34.316 h -3.222 c -105.422,0 -155.438,-25.488 -162.969,-34.316 7.531,-8.84 57.547,-34.328 162.969,-34.328 h 3.222"
       style="fill:#043a63;fill-opacity:1;fill-rule:nonzero;stroke:none"
       transform="matrix(0.13333333,0,0,-0.13333333,0,188.97333)" />
    <path
       id="path7"
       d="m 565.828,336.27 c -4.59,-17.059 -48.43,-157.36 -242.848,-132.899 35.004,-24.871 95.637,-63.781 157.563,-84.543 86.52,41.863 135.223,116.672 144.137,222.711 -20.692,3.02 -39.188,6.992 -55.633,11.992 -1.367,-7.953 -3.078,-17.191 -3.219,-17.261"
       style="fill:#043a63;fill-opacity:1;fill-rule:nonzero;stroke:none"
       transform="matrix(0.13333333,0,0,-0.13333333,0,188.97333)" />
    <path
       id="path8"
       d="m 429.164,691.324 c 71.445,-20.828 123.379,-93.851 138.789,-195.511 0,0 0.414,-3.422 0.688,-6.094 15.886,4.859 33.293,8.836 52.472,11.711 -3.84,53.363 -14.593,177.773 -76.383,285.187 -43.636,85.559 -168.863,108.235 -251.621,71.379 -28.359,-12.734 -82.543,-46.992 -82.543,-123.308 0,-22.879 4.86,-49.532 16.782,-80.567 21.851,-42.117 49.531,-60.144 67.961,-68.699 -2.2,7.32 -3.981,15.41 -3.981,24.18 0,16.3 4.934,34.113 19.391,50.761 28.086,32.196 73.367,44.043 118.445,30.961"
       style="fill:#043a63;fill-opacity:1;fill-rule:nonzero;stroke:none"
       transform="matrix(0.13333333,0,0,-0.13333333,0,188.97333)" />
    <path
       id="path9"
       d="m 1106.46,660.363 c 14.46,-16.648 19.46,-34.461 19.46,-50.691 0,-8.84 -1.85,-16.93 -4.04,-24.32 18.43,8.421 45.96,26.304 67.61,67.82 12.06,31.441 17.06,58.363 17.06,81.516 0,76.449 -54.12,110.632 -82.55,123.242 -82.68,36.922 -207.836,14.246 -251.68,-71.719 -61.59,-107.008 -72.269,-231.418 -76.179,-284.781 19.25,-2.875 36.656,-6.852 52.476,-11.711 0.278,2.469 0.617,5.344 0.684,6.023 15.48,101.668 67.34,174.754 138.789,195.582 45.01,13.082 90.43,1.235 118.37,-30.961"
       style="fill:#043a63;fill-opacity:1;fill-rule:nonzero;stroke:none"
       transform="matrix(0.13333333,0,0,-0.13333333,0,188.97333)" />
    <path
       id="path10"
       d="m 851.426,336.27 -0.071,-0.282 c 0,0 -1.714,9.391 -3.148,17.543 -16.445,-5 -34.937,-8.972 -55.629,-11.992 C 801.621,235.43 850.332,160.691 936.711,118.828 998.852,139.66 1059.41,178.5 1094.34,203.371 899.855,178.91 855.949,319.211 851.426,336.27"
       style="fill:#043a63;fill-opacity:1;fill-rule:nonzero;stroke:none"
       transform="matrix(0.13333333,0,0,-0.13333333,0,188.97333)" />
    <path
       id="path11"
       d="m 1019.67,1025.56 c 110.36,59.53 187.43,37.33 231.96,8.63 -89.26,146.46 -211.34,221.27 -276.075,251.76 30.075,-34.18 68.235,-91.52 68.235,-163.04 0,-30.21 -7.06,-62.89 -24.12,-97.35"
       style="fill:#043a63;fill-opacity:1;fill-rule:nonzero;stroke:none"
       transform="matrix(0.13333333,0,0,-0.13333333,0,188.97333)" />
    <path
       id="path12"
       d="m 710.238,335.719 c 0,0 -1.715,0.07 -3.222,0 0,0 -16.918,0.48 -27.399,0.82 C 676.195,251.871 665.094,163.5 585.836,88.3516 632.555,77.8711 694.004,76.4297 707.223,76.3594 h 2.812 c 13.153,0.0703 74.602,1.5117 121.32,11.9922 -79.187,75.1484 -90.289,163.5194 -93.648,248.1874 -10.551,-0.34 -27.469,-0.82 -27.469,-0.82"
       style="fill:#043a63;fill-opacity:1;fill-rule:nonzero;stroke:none"
       transform="matrix(0.13333333,0,0,-0.13333333,0,188.97333)" />
    <path
       id="path13"
       d="m 1223.27,429.16 c -44.26,-18.84 -194,-63.988 -311.29,108.512 -5.613,-19.391 -9.859,-42.883 -11.71,-70.973 21.234,-15.691 26.718,-32.742 26.718,-44.66 0,-15.551 -8.703,-29.187 -23.367,-41.18 11.926,-50.828 63.375,-98.781 116.939,-107.679 167.84,-27.621 250.05,128.031 281.35,210.238 -18.29,-18.641 -43.98,-39.457 -78.64,-54.258"
       style="fill:#043a63;fill-opacity:1;fill-rule:nonzero;stroke:none"
       transform="matrix(0.13333333,0,0,-0.13333333,0,188.97333)" />
    <path
       id="path14"
       d="m 505.754,950.27 c -6.785,29.394 -11.238,57.89 -11.238,84.4 0,153.38 100.019,257.65 159.269,306.29 -88.363,-22.54 -156.527,-71.18 -188.105,-140.51 -12.95,-28.56 -19.325,-58.78 -19.325,-89.47 0,-54.73 20.961,-110.5 59.399,-160.71"
       style="fill:#043a63;fill-opacity:1;fill-rule:nonzero;stroke:none"
       transform="matrix(0.13333333,0,0,-0.13333333,0,188.97333)" />
    <path
       id="path15"
       d="m 909.859,950.27 c 6.711,29.394 11.164,57.89 11.164,84.4 0,153.38 -99.945,257.65 -159.269,306.29 88.375,-22.54 156.531,-71.18 188.109,-140.51 13.024,-28.56 19.391,-58.78 19.391,-89.47 0,-54.73 -20.961,-110.5 -59.395,-160.71"
       style="fill:#043a63;fill-opacity:1;fill-rule:nonzero;stroke:none"
       transform="matrix(0.13333333,0,0,-0.13333333,0,188.97333)" />
  </g>
</svg>
