<?xml version="1.0" encoding="utf-8"?>
<!-- Generator: Adobe Illustrator 25.2.1, SVG Export Plug-In . SVG Version: 6.00 Build 0)  -->
<svg version="1.0" id="Layer_1" xmlns="http://www.w3.org/2000/svg" xmlns:xlink="http://www.w3.org/1999/xlink" x="0px" y="0px"
	 viewBox="0 0 568 15" style="enable-background:new 0 0 568 15;" xml:space="preserve">
<style type="text/css">
	.st0{fill:#E6E6DD;}
</style>
<path id="Component-Divider-568" class="st0" d="M1.3,3.4c3.3,0.6,6.6,1.2,10,1.7c0.8,0.1,1.6-0.5,1.7-1.5s-0.5-1.8-1.3-2
	C8.3,1.2,5,0.6,1.8,0C0.9-0.1,0.2,0.5,0,1.4S0.4,3.3,1.3,3.4z M26.3,7.4c3.3,0.4,6.6,0.9,10.1,1.3c0.8,0.1,1.6-0.6,1.7-1.5
	c0.1-0.9-0.5-1.8-1.4-1.9C33.3,4.8,30,4.4,26.7,4c-0.8-0.1-1.6,0.6-1.7,1.5C24.9,6.4,25.5,7.3,26.3,7.4z M51.5,10.3
	c3.3,0.3,6.7,0.6,10.1,0.9c0.8,0.1,1.6-0.6,1.6-1.6c0.1-1-0.6-1.8-1.4-1.8c-3.4-0.3-6.8-0.6-10-0.9c-0.8-0.1-1.6,0.6-1.6,1.6
	C50.1,9.4,50.7,10.2,51.5,10.3z M76.8,12.3c3.3,0.2,6.7,0.4,10.1,0.6c0.8,0,1.5-0.7,1.6-1.6c0-1-0.6-1.8-1.4-1.8
	c-3.4-0.2-6.8-0.4-10.1-0.6c-0.8-0.1-1.6,0.7-1.6,1.6C75.3,11.4,75.9,12.3,76.8,12.3z M102,13.7c3.3,0.1,6.7,0.3,10.1,0.4
	c0.8,0,1.5-0.7,1.6-1.7s-0.6-1.7-1.5-1.8c-3.4-0.1-6.8-0.3-10.1-0.4c-0.8,0-1.5,0.7-1.6,1.7C100.5,12.9,101.2,13.7,102,13.7z
	 M127.3,14.5c3.3,0.1,6.7,0.2,10.1,0.2c0.8,0,1.5-0.7,1.5-1.7s-0.7-1.7-1.5-1.8c-3.4-0.1-6.8-0.1-10.1-0.2c-0.8,0-1.5,0.7-1.5,1.7
	C125.8,13.7,126.4,14.5,127.3,14.5z M152.5,14.9c3.3,0,6.7,0,10.1,0.1c0.8,0,1.5-0.8,1.5-1.7c0-1-0.7-1.7-1.5-1.7
	c-3.4,0-6.8,0-10.1-0.1c-0.8,0-1.5,0.8-1.5,1.7C151,14.2,151.7,14.9,152.5,14.9z M177.8,15l5,0l5.1,0c0.8,0,1.5-0.8,1.5-1.7
	c0-1-0.7-1.7-1.5-1.7c-1.7,0-3.4,0-5.1,0l-5,0c-0.8,0-1.5,0.8-1.5,1.7C176.3,14.2,177,15,177.8,15z M203.1,14.7
	c3.3-0.1,6.7-0.1,10.1-0.2c0.8,0,1.5-0.8,1.5-1.8c0-1-0.7-1.7-1.5-1.7c-3.4,0.1-6.8,0.1-10.1,0.2c-0.8,0-1.5,0.8-1.5,1.8
	S202.2,14.7,203.1,14.7z M228.3,14.1c3.3-0.1,6.7-0.2,10.1-0.3c0.8,0,1.5-0.8,1.5-1.8c0-1-0.7-1.7-1.6-1.7
	c-3.4,0.1-6.8,0.2-10.1,0.3c-0.8,0-1.5,0.8-1.5,1.8C226.8,13.4,227.5,14.1,228.3,14.1z M253.6,13.3c3.3-0.1,6.7-0.3,10.1-0.4
	c0.8,0,1.5-0.8,1.5-1.8c0-1-0.7-1.7-1.6-1.7c-3.4,0.1-6.8,0.3-10.1,0.4c-0.8,0-1.5,0.8-1.5,1.8C252,12.5,252.7,13.3,253.6,13.3z
	 M278.8,12.2l10.1-0.5c0.8,0,1.5-0.8,1.5-1.8c0-1-0.7-1.7-1.6-1.7l-10.1,0.5c-0.8,0-1.5,0.8-1.5,1.8C277.3,11.5,278,12.2,278.8,12.2
	z M304,11.1l10.1-0.4c0.8,0,1.5-0.8,1.5-1.8c0-1-0.7-1.7-1.6-1.7l-10.1,0.4c-0.8,0-1.5,0.8-1.5,1.8C302.5,10.4,303.2,11.1,304,11.1z
	 M329.3,10l10.1-0.4c0.8,0,1.5-0.8,1.5-1.8s-0.7-1.7-1.6-1.7l-10.1,0.4c-0.8,0-1.5,0.8-1.5,1.8C327.7,9.3,328.4,10,329.3,10z
	 M354.5,8.9l10.1-0.4c0.8,0,1.5-0.8,1.5-1.8s-0.7-1.7-1.6-1.7l-10.1,0.4c-0.8,0-1.5,0.8-1.5,1.8C353,8.2,353.7,9,354.5,8.9z
	 M379.7,8l10.1-0.4c0.8,0,1.5-0.8,1.5-1.8s-0.7-1.7-1.6-1.7L383,4.4c-1.1,0-2.3,0.1-3.4,0.1c-0.8,0-1.5,0.8-1.5,1.8S378.9,8,379.7,8
	z M405,7.1l10.1-0.3c0.8,0,1.5-0.8,1.5-1.8c0-1-0.7-1.7-1.6-1.7l-6.7,0.2c-1.1,0-2.3,0.1-3.4,0.1c-0.8,0-1.5,0.8-1.5,1.8
	C403.4,6.3,404.1,7.1,405,7.1z M430.2,6.2l6.8-0.2c1.1,0,2.2-0.1,3.3-0.1c0.8,0,1.5-0.8,1.5-1.8c0-1-0.7-1.7-1.6-1.7l-10.1,0.3
	c-0.8,0-1.5,0.8-1.5,1.8C428.7,5.5,429.4,6.2,430.2,6.2z M455.4,5.5l6.7-0.2c1.1,0,2.2-0.1,3.3-0.1c0.8,0,1.5-0.8,1.5-1.8
	c0-1-0.7-1.7-1.5-1.7l-6.7,0.2c-1.1,0-2.3,0.1-3.4,0.1c-0.8,0-1.5,0.8-1.5,1.8C453.9,4.7,454.6,5.5,455.4,5.5z M480.7,4.8l10.1-0.2
	c0.8,0,1.5-0.8,1.5-1.8c0-1-0.7-1.7-1.5-1.7l-7.6,0.2c-0.8,0-1.7,0-2.5,0.1c-0.8,0-1.5,0.8-1.5,1.8C479.2,4.1,479.8,4.8,480.7,4.8z
	 M505.9,4.2l5.1-0.1l5-0.1c0.8,0,1.5-0.8,1.5-1.8s-0.7-1.7-1.5-1.7l-7.6,0.1c-0.8,0-1.7,0-2.5,0c-0.8,0-1.5,0.8-1.5,1.8
	S505.1,4.3,505.9,4.2z M531.2,3.8l7.6-0.1c0.8,0,1.7,0,2.5,0c0.8,0,1.5-0.8,1.5-1.7c0-1-0.7-1.7-1.5-1.7l-7.6,0.1
	c-0.8,0-1.7,0-2.5,0c-0.8,0-1.5,0.8-1.5,1.7C529.6,3.1,530.3,3.8,531.2,3.8z M556.4,3.5l7.6,0c0.8,0,1.7,0,2.5,0
	c0.8,0,1.5-0.8,1.5-1.7c0-1-0.7-1.7-1.5-1.7l-7.6,0c-0.8,0-1.7,0-2.6,0c-0.8,0-1.5,0.8-1.5,1.7C554.9,2.8,555.6,3.6,556.4,3.5z"/>
</svg>
