<?xml version="1.0" encoding="utf-8"?>
<!-- Generator: Adobe Illustrator 24.3.0, SVG Export Plug-In . SVG Version: 6.00 Build 0)  -->
<svg version="1.0" id="Layer_1" xmlns="http://www.w3.org/2000/svg" xmlns:xlink="http://www.w3.org/1999/xlink" x="0px" y="0px"
	 viewBox="0 0 1437 31" style="enable-background:new 0 0 1437 31;" xml:space="preserve">
<style type="text/css">
	.st0{fill:#E6E6DD;}
</style>
<path id="Symbols" class="st0" d="M410.7,30.3C410.7,30.3,410.7,30.3,410.7,30.3c-3.3,0-6.7,0-10,0c-0.8,0-1.5-0.7-1.5-1.5
	c0-0.8,0.7-1.5,1.5-1.5c3.3,0,6.7,0,10,0c0.8,0,1.5,0.7,1.5,1.5S411.5,30.3,410.7,30.3z M425.7,30.3c-0.8,0-1.5-0.7-1.5-1.5
	s0.7-1.5,1.5-1.5c3.3,0,6.7,0,10,0c0,0,0,0,0,0c0.8,0,1.5,0.7,1.5,1.5c0,0.8-0.7,1.5-1.5,1.5C432.3,30.3,429,30.3,425.7,30.3
	C425.7,30.3,425.7,30.3,425.7,30.3z M385.7,30.2C385.7,30.2,385.7,30.2,385.7,30.2c-3.4,0-6.7,0-10-0.1c-0.8,0-1.5-0.7-1.5-1.5
	c0-0.8,0.7-1.5,1.5-1.5c0,0,0,0,0,0c3.3,0,6.7,0.1,10,0.1c0.8,0,1.5,0.7,1.5,1.5C387.2,29.5,386.5,30.2,385.7,30.2z M450.7,30.2
	c-0.8,0-1.5-0.7-1.5-1.5c0-0.8,0.7-1.5,1.5-1.5c3.3,0,6.7,0,10-0.1c0,0,0,0,0,0c0.8,0,1.5,0.7,1.5,1.5c0,0.8-0.7,1.5-1.5,1.5
	C457.3,30.1,454,30.2,450.7,30.2C450.7,30.2,450.7,30.2,450.7,30.2z M475.7,30c-0.8,0-1.5-0.7-1.5-1.5c0-0.8,0.7-1.5,1.5-1.5
	c3.3,0,6.7-0.1,10-0.1c0.8,0,1.5,0.7,1.5,1.5c0,0.8-0.7,1.5-1.5,1.5C482.3,29.9,479,29.9,475.7,30C475.7,30,475.7,30,475.7,30z
	 M360.7,29.9C360.7,29.9,360.7,29.9,360.7,29.9c-3.4,0-6.7-0.1-10-0.1c-0.8,0-1.5-0.7-1.5-1.5s0.7-1.5,1.5-1.5c3.3,0,6.6,0.1,10,0.1
	c0.8,0,1.5,0.7,1.5,1.5C362.2,29.3,361.5,29.9,360.7,29.9z M500.7,29.6c-0.8,0-1.5-0.7-1.5-1.5c0-0.8,0.6-1.5,1.5-1.5
	c3.3,0,6.7-0.1,10-0.2c0.9,0,1.5,0.6,1.5,1.5c0,0.8-0.6,1.5-1.5,1.5C507.3,29.5,504,29.6,500.7,29.6
	C500.7,29.6,500.7,29.6,500.7,29.6z M335.7,29.6C335.7,29.6,335.7,29.6,335.7,29.6c-3.4-0.1-6.7-0.1-10-0.2c-0.8,0-1.5-0.7-1.5-1.5
	c0-0.8,0.7-1.5,1.5-1.5c3.3,0.1,6.6,0.1,10,0.2c0.8,0,1.5,0.7,1.5,1.5C337.2,28.9,336.5,29.6,335.7,29.6z M525.7,29.2
	c-0.8,0-1.5-0.7-1.5-1.5c0-0.8,0.6-1.5,1.5-1.5c3.3-0.1,6.7-0.1,10-0.2c0.8,0,1.5,0.6,1.5,1.5c0,0.8-0.6,1.5-1.5,1.5
	C532.4,29.1,529,29.1,525.7,29.2C525.7,29.2,525.7,29.2,525.7,29.2z M310.7,29C310.7,29,310.7,29,310.7,29c-3.4-0.1-6.7-0.2-10-0.3
	c-0.8,0-1.5-0.7-1.5-1.5c0-0.8,0.7-1.5,1.5-1.5c0,0,0,0,0,0c3.3,0.1,6.6,0.2,10,0.3c0.8,0,1.5,0.7,1.5,1.5
	C312.2,28.4,311.5,29,310.7,29z M550.7,28.7c-0.8,0-1.5-0.6-1.5-1.5c0-0.8,0.6-1.5,1.5-1.5c3.3-0.1,6.7-0.2,10-0.2c0,0,0,0,0,0
	c0.8,0,1.5,0.6,1.5,1.5c0,0.8-0.6,1.5-1.5,1.5C557.4,28.5,554,28.6,550.7,28.7C550.7,28.7,550.7,28.7,550.7,28.7z M285.7,28.3
	C285.7,28.3,285.7,28.3,285.7,28.3c-3.4-0.1-6.7-0.2-10-0.3c-0.8,0-1.5-0.7-1.4-1.5c0-0.8,0.7-1.5,1.5-1.4c3.3,0.1,6.6,0.2,10,0.3
	c0.8,0,1.5,0.7,1.5,1.5C287.2,27.7,286.5,28.3,285.7,28.3z M575.7,28.1c-0.8,0-1.5-0.6-1.5-1.5c0-0.8,0.6-1.5,1.5-1.5
	c3.3-0.1,6.7-0.2,10-0.3c0.8-0.1,1.5,0.6,1.5,1.5s-0.6,1.5-1.5,1.5C582.3,27.9,579,28,575.7,28.1C575.7,28.1,575.7,28.1,575.7,28.1z
	 M260.7,27.5C260.7,27.5,260.7,27.5,260.7,27.5c-3.4-0.1-6.7-0.3-10.1-0.4c-0.8,0-1.5-0.7-1.4-1.6c0-0.8,0.7-1.5,1.6-1.4
	c3.3,0.1,6.6,0.3,10,0.4c0.8,0,1.5,0.7,1.4,1.6C262.2,26.8,261.5,27.5,260.7,27.5z M600.6,27.3c-0.8,0-1.5-0.6-1.5-1.5
	c0-0.8,0.6-1.5,1.5-1.5c3.3-0.1,6.7-0.2,10-0.3c0.8,0,1.5,0.6,1.5,1.5c0,0.8-0.6,1.5-1.5,1.5C607.3,27.1,604,27.2,600.6,27.3
	C600.7,27.3,600.7,27.3,600.6,27.3z M625.6,26.5c-0.8,0-1.5-0.6-1.5-1.5c0-0.8,0.6-1.5,1.4-1.5c3.3-0.1,6.7-0.2,10-0.3
	c0.8,0,1.5,0.6,1.6,1.4c0,0.8-0.6,1.5-1.4,1.6C632.3,26.3,629,26.4,625.6,26.5C625.7,26.5,625.6,26.5,625.6,26.5z M235.7,26.4
	C235.7,26.4,235.7,26.4,235.7,26.4c-3.4-0.2-6.8-0.3-10.1-0.5c-0.8,0-1.5-0.7-1.4-1.6c0-0.8,0.8-1.5,1.6-1.4c3.3,0.2,6.6,0.3,10,0.5
	c0.8,0,1.5,0.7,1.4,1.6C237.2,25.8,236.5,26.4,235.7,26.4z M650.6,25.7c-0.8,0-1.5-0.6-1.5-1.4c0-0.8,0.6-1.5,1.4-1.6
	c3.3-0.1,6.7-0.2,10-0.4c0.8,0,1.5,0.6,1.6,1.4c0,0.8-0.6,1.5-1.4,1.6C657.3,25.4,654,25.5,650.6,25.7
	C650.7,25.7,650.6,25.7,650.6,25.7z M210.8,25.2C210.7,25.2,210.7,25.2,210.8,25.2c-3.4-0.2-6.8-0.4-10.1-0.6
	c-0.8,0-1.5-0.8-1.4-1.6c0-0.8,0.8-1.4,1.6-1.4c3.3,0.2,6.6,0.4,10,0.6c0.8,0,1.5,0.8,1.4,1.6C212.2,24.6,211.6,25.2,210.8,25.2z
	 M675.6,24.7c-0.8,0-1.5-0.6-1.5-1.4c0-0.8,0.6-1.5,1.4-1.6c3.3-0.1,6.7-0.3,10-0.4c0.8,0,1.5,0.6,1.6,1.4c0,0.8-0.6,1.5-1.4,1.6
	C682.3,24.4,679,24.6,675.6,24.7C675.6,24.7,675.6,24.7,675.6,24.7z M185.8,23.7C185.8,23.7,185.7,23.7,185.8,23.7
	c-3.4-0.2-6.8-0.4-10.1-0.7c-0.8-0.1-1.5-0.8-1.4-1.6c0.1-0.8,0.8-1.4,1.6-1.4c3.3,0.2,6.6,0.4,10,0.7c0.8,0.1,1.5,0.8,1.4,1.6
	C187.3,23.1,186.6,23.7,185.8,23.7z M700.6,23.7c-0.8,0-1.5-0.6-1.5-1.4c0-0.8,0.6-1.5,1.4-1.6l10-0.4c0.8-0.1,1.5,0.6,1.6,1.4
	c0,0.8-0.6,1.5-1.4,1.6L700.6,23.7C700.6,23.7,700.6,23.7,700.6,23.7z M725.6,22.6c-0.8,0-1.5-0.6-1.5-1.4c0-0.8,0.6-1.5,1.4-1.6
	l10-0.4c0.9-0.1,1.5,0.6,1.6,1.4c0,0.8-0.6,1.5-1.4,1.6L725.6,22.6C725.6,22.6,725.6,22.6,725.6,22.6z M160.9,22c0,0-0.1,0-0.1,0
	c-3.3-0.2-6.7-0.5-10-0.8c-0.8-0.1-1.4-0.8-1.4-1.6c0.1-0.8,0.8-1.5,1.6-1.4c3.3,0.3,6.6,0.5,10,0.8c0.8,0.1,1.4,0.8,1.4,1.6
	C162.3,21.4,161.6,22,160.9,22z M750.5,21.6c-0.8,0-1.5-0.6-1.5-1.4c0-0.8,0.6-1.5,1.4-1.6l10-0.4c0.9,0,1.5,0.6,1.6,1.4
	c0,0.8-0.6,1.5-1.4,1.6L750.5,21.6C750.6,21.6,750.5,21.6,750.5,21.6z M775.5,20.6c-0.8,0-1.5-0.6-1.5-1.4c0-0.8,0.6-1.5,1.4-1.6
	l10-0.4c0.8,0,1.5,0.6,1.6,1.4c0,0.8-0.6,1.5-1.4,1.6L775.5,20.6C775.5,20.6,775.5,20.6,775.5,20.6z M135.9,20c0,0-0.1,0-0.1,0
	c-3.3-0.3-6.7-0.6-10-0.9c-0.8-0.1-1.4-0.8-1.4-1.6c0.1-0.8,0.8-1.4,1.6-1.4c3.3,0.3,6.6,0.6,10,0.9c0.8,0.1,1.4,0.8,1.4,1.6
	C137.4,19.4,136.7,20,135.9,20z M800.5,19.6c-0.8,0-1.5-0.6-1.5-1.4c0-0.8,0.6-1.5,1.4-1.6l10-0.4c0.8,0,1.5,0.6,1.6,1.4
	c0,0.8-0.6,1.5-1.4,1.6L800.5,19.6C800.5,19.6,800.5,19.6,800.5,19.6z M825.5,18.6c-0.8,0-1.5-0.6-1.5-1.4c0-0.8,0.6-1.5,1.4-1.6
	l10-0.4c0.8,0,1.5,0.6,1.6,1.4c0,0.8-0.6,1.5-1.4,1.6L825.5,18.6C825.5,18.6,825.5,18.6,825.5,18.6z M111,17.8c0,0-0.1,0-0.1,0
	c-3.3-0.3-6.7-0.7-10-1c-0.8-0.1-1.4-0.8-1.3-1.6c0.1-0.8,0.8-1.4,1.6-1.3c3.3,0.3,6.6,0.7,9.9,1c0.8,0.1,1.4,0.8,1.3,1.6
	C112.5,17.2,111.8,17.8,111,17.8z M850.5,17.6c-0.8,0-1.5-0.6-1.5-1.4c0-0.8,0.6-1.5,1.4-1.6l10-0.4c0.8,0,1.5,0.6,1.6,1.4
	c0,0.8-0.6,1.5-1.4,1.6L850.5,17.6C850.5,17.6,850.5,17.6,850.5,17.6z M875.4,16.7c-0.8,0-1.5-0.6-1.5-1.4c0-0.8,0.6-1.5,1.4-1.6
	l10-0.4c0.9,0,1.5,0.6,1.6,1.4c0,0.8-0.6,1.5-1.4,1.6L875.4,16.7C875.5,16.7,875.5,16.7,875.4,16.7z M900.4,15.8
	c-0.8,0-1.5-0.6-1.5-1.4c0-0.8,0.6-1.5,1.4-1.6l10-0.4c0.8,0,1.5,0.6,1.6,1.4c0,0.8-0.6,1.5-1.4,1.6L900.4,15.8
	C900.5,15.8,900.4,15.8,900.4,15.8z M86.2,15.2c-0.1,0-0.1,0-0.2,0c-3.3-0.4-6.7-0.7-9.9-1.1c-0.8-0.1-1.4-0.8-1.3-1.7
	c0.1-0.8,0.8-1.4,1.7-1.3c3.3,0.4,6.6,0.8,9.9,1.1c0.8,0.1,1.4,0.8,1.3,1.7C87.6,14.6,86.9,15.2,86.2,15.2z M925.4,14.9
	c-0.8,0-1.5-0.6-1.5-1.4c0-0.8,0.6-1.5,1.4-1.6l10-0.4c0.8,0,1.5,0.6,1.6,1.4c0,0.8-0.6,1.5-1.4,1.6L925.4,14.9
	C925.4,14.9,925.4,14.9,925.4,14.9z M950.4,14c-0.8,0-1.5-0.6-1.5-1.4c0-0.8,0.6-1.5,1.4-1.6l10-0.3c0.8,0,1.5,0.6,1.5,1.4
	s-0.6,1.5-1.4,1.6L950.4,14C950.4,14,950.4,14,950.4,14z M975.4,13.1c-0.8,0-1.5-0.6-1.5-1.4c0-0.8,0.6-1.5,1.4-1.5l10-0.3
	c0.8,0,1.5,0.6,1.5,1.4c0,0.8-0.6,1.5-1.4,1.5L975.4,13.1C975.4,13.1,975.4,13.1,975.4,13.1z M1000.4,12.3c-0.8,0-1.5-0.6-1.5-1.5
	c0-0.8,0.6-1.5,1.5-1.5l10-0.3c0.8,0,1.5,0.6,1.5,1.5s-0.6,1.5-1.5,1.5L1000.4,12.3C1000.4,12.3,1000.4,12.3,1000.4,12.3z
	 M61.4,12.3c-0.1,0-0.1,0-0.2,0c-3.3-0.4-6.6-0.8-9.9-1.3c-0.8-0.1-1.4-0.9-1.3-1.7c0.1-0.8,0.9-1.4,1.7-1.3
	c3.3,0.4,6.6,0.9,9.9,1.3c0.8,0.1,1.4,0.9,1.3,1.7C62.7,11.7,62.1,12.3,61.4,12.3z M1025.3,11.5c-0.8,0-1.5-0.6-1.5-1.5
	c0-0.8,0.6-1.5,1.5-1.5l10-0.3c0.8,0,1.5,0.6,1.5,1.5c0,0.8-0.6,1.5-1.5,1.5L1025.3,11.5C1025.4,11.5,1025.4,11.5,1025.3,11.5z
	 M1050.3,10.7c-0.8,0-1.5-0.6-1.5-1.5c0-0.8,0.6-1.5,1.5-1.5l10-0.3c0.8,0,1.5,0.6,1.5,1.5c0,0.8-0.6,1.5-1.5,1.5L1050.3,10.7
	C1050.4,10.7,1050.3,10.7,1050.3,10.7z M1075.3,10c-0.8,0-1.5-0.6-1.5-1.5c0-0.8,0.6-1.5,1.5-1.5l10-0.3c0.8,0,1.5,0.6,1.5,1.5
	c0,0.8-0.6,1.5-1.5,1.5L1075.3,10C1075.3,10,1075.3,10,1075.3,10z M1100.3,9.3c-0.8,0-1.5-0.6-1.5-1.5c0-0.8,0.6-1.5,1.5-1.5l10-0.3
	c0,0,0,0,0,0c0.8,0,1.5,0.6,1.5,1.5c0,0.8-0.6,1.5-1.5,1.5L1100.3,9.3C1100.3,9.3,1100.3,9.3,1100.3,9.3z M36.6,8.9
	c-0.1,0-0.1,0-0.2,0c-3.3-0.5-6.6-1-9.9-1.5c-0.8-0.1-1.4-0.9-1.3-1.7c0.1-0.8,0.9-1.4,1.7-1.3c3.3,0.5,6.6,1,9.9,1.5
	c0.8,0.1,1.4,0.9,1.3,1.7C38,8.4,37.3,8.9,36.6,8.9z M1125.3,8.6c-0.8,0-1.5-0.6-1.5-1.5c0-0.8,0.6-1.5,1.5-1.5l10-0.3c0,0,0,0,0,0
	c0.8,0,1.5,0.6,1.5,1.5c0,0.8-0.6,1.5-1.5,1.5L1125.3,8.6C1125.3,8.6,1125.3,8.6,1125.3,8.6z M1150.3,7.9c-0.8,0-1.5-0.6-1.5-1.5
	c0-0.8,0.6-1.5,1.5-1.5l10-0.3c0,0,0,0,0,0c0.8,0,1.5,0.6,1.5,1.5c0,0.8-0.6,1.5-1.5,1.5L1150.3,7.9
	C1150.3,7.9,1150.3,7.9,1150.3,7.9z M1175.3,7.3c-0.8,0-1.5-0.6-1.5-1.5c0-0.8,0.6-1.5,1.5-1.5l10-0.2c0.9,0,1.5,0.6,1.5,1.5
	c0,0.8-0.6,1.5-1.5,1.5L1175.3,7.3C1175.3,7.3,1175.3,7.3,1175.3,7.3z M1200.3,6.7c-0.8,0-1.5-0.6-1.5-1.5c0-0.8,0.6-1.5,1.5-1.5
	l10-0.2c0.9,0,1.5,0.6,1.5,1.5c0,0.8-0.6,1.5-1.5,1.5L1200.3,6.7C1200.3,6.7,1200.3,6.7,1200.3,6.7z M1225.3,6.2
	c-0.8,0-1.5-0.7-1.5-1.5c0-0.8,0.6-1.5,1.5-1.5l10-0.2c0,0,0,0,0,0c0.8,0,1.5,0.7,1.5,1.5c0,0.8-0.6,1.5-1.5,1.5L1225.3,6.2
	C1225.3,6.2,1225.3,6.2,1225.3,6.2z M1250.3,5.7c-0.8,0-1.5-0.7-1.5-1.5c0-0.8,0.6-1.5,1.5-1.5l10-0.2c0.8-0.1,1.5,0.6,1.5,1.5
	c0,0.8-0.6,1.5-1.5,1.5L1250.3,5.7C1250.3,5.7,1250.3,5.7,1250.3,5.7z M1275.3,5.2c-0.8,0-1.5-0.7-1.5-1.5c0-0.8,0.6-1.5,1.5-1.5
	l10-0.2c0,0,0,0,0,0c0.8,0,1.5,0.7,1.5,1.5c0,0.8-0.6,1.5-1.5,1.5L1275.3,5.2C1275.3,5.2,1275.3,5.2,1275.3,5.2z M11.9,5.1
	c-0.1,0-0.2,0-0.2,0C8.3,4.6,5,4,1.7,3.5C0.9,3.3,0.4,2.6,0.5,1.7c0.1-0.8,0.9-1.4,1.7-1.2c3.2,0.6,6.5,1.1,9.8,1.6
	c0.8,0.1,1.4,0.9,1.2,1.7C13.2,4.6,12.6,5.1,11.9,5.1z M1300.3,4.8c-0.8,0-1.5-0.7-1.5-1.5c0-0.8,0.6-1.5,1.5-1.5l10-0.2
	c0,0,0,0,0,0c0.8,0,1.5,0.7,1.5,1.5c0,0.8-0.6,1.5-1.5,1.5L1300.3,4.8C1300.3,4.8,1300.3,4.8,1300.3,4.8z M1325.3,4.4
	c-0.8,0-1.5-0.7-1.5-1.5c0-0.8,0.7-1.5,1.5-1.5l10-0.1c0,0,0,0,0,0c0.8,0,1.5,0.7,1.5,1.5c0,0.8-0.7,1.5-1.5,1.5L1325.3,4.4
	C1325.3,4.4,1325.3,4.4,1325.3,4.4z M1350.3,4.1c-0.8,0-1.5-0.7-1.5-1.5c0-0.8,0.7-1.5,1.5-1.5l10-0.1c0.9,0,1.5,0.7,1.5,1.5
	s-0.7,1.5-1.5,1.5L1350.3,4.1C1350.3,4.1,1350.3,4.1,1350.3,4.1z M1375.3,3.9c-0.8,0-1.5-0.7-1.5-1.5c0-0.8,0.7-1.5,1.5-1.5l10-0.1
	c0,0,0,0,0,0c0.8,0,1.5,0.7,1.5,1.5c0,0.8-0.7,1.5-1.5,1.5L1375.3,3.9C1375.3,3.9,1375.3,3.9,1375.3,3.9z M1400.3,3.7
	c-0.8,0-1.5-0.7-1.5-1.5c0-0.8,0.7-1.5,1.5-1.5c3.4,0,6.7,0,10-0.1c0,0,0,0,0,0c0.8,0,1.5,0.7,1.5,1.5c0,0.8-0.7,1.5-1.5,1.5
	C1406.9,3.6,1403.6,3.7,1400.3,3.7C1400.3,3.7,1400.3,3.7,1400.3,3.7z M1425.3,3.5c-0.8,0-1.5-0.7-1.5-1.5c0-0.8,0.7-1.5,1.5-1.5
	c3.4,0,6.7,0,10,0c0,0,0,0,0,0c0.8,0,1.5,0.7,1.5,1.5c0,0.8-0.7,1.5-1.5,1.5C1431.9,3.5,1428.6,3.5,1425.3,3.5
	C1425.3,3.5,1425.3,3.5,1425.3,3.5z"/>
</svg>
