<?xml version="1.0" encoding="utf-8"?>
<!-- Generator: Adobe Illustrator 24.2.1, SVG Export Plug-In . SVG Version: 6.00 Build 0)  -->
<svg version="1.1" id="Lager_1" xmlns="http://www.w3.org/2000/svg" xmlns:xlink="http://www.w3.org/1999/xlink" x="0px" y="0px"
	 viewBox="0 0 176.31 206.55" style="enable-background:new 0 0 176.31 206.55;" xml:space="preserve">
<style type="text/css">
	.st0{fill:currentColor;}
</style>
<path class="st0" d="M75.48,158.98c27.95,0,7.44,38.06-8.41,47.57c28.89-2.85,117.58-30.03,108.61-130.52l0,0
	c-2.41-40.02-44.27-78.3-90.45-75.93h-0.82C43.24,0.1,0,35.1,0,77.14l0,0c0,42.04,31.64,81.84,72.81,81.84H75.48z M30.15,98.66
	c-5.2-5.07-8.2-12.42-8.21-20.17c-0.02-7.86,2.96-15.29,8.16-20.37c4.3-4.21,9.79-6.45,15.46-6.31C53.26,52,58.73,56.25,62.12,60
	c-12.85-5.06-24.51-0.86-29.82,6.82c-4.31,6.23-4.87,14.77-1.42,21.77c3.74,7.59,11.54,12.23,21.39,12.72l2.44,0.12l-1.68-1.77
	c-0.67-0.71-2.2-3.67-1.66-6.15c0.31-1.45,1.27-2.47,2.93-3.13c2.2-0.9,4.98-0.47,7.62,1.18c0.68,0.43,1.47,1.31,2.03,1.97
	c-4.9,7.31-11.14,11.18-18.6,11.38C39.81,105.03,34.42,102.82,30.15,98.66z M55.44,126.27c-17.38,2.86-25.9-13.26-29.14-21.77
	c1.89,1.92,4.56,4.08,8.15,5.62c4.58,1.96,20.08,6.63,32.24-11.24c0.58,2.02,1.02,4.45,1.21,7.35c-2.21,1.63-2.77,3.39-2.77,4.63
	c0,1.61,0.9,3.02,2.42,4.27C66.32,120.39,61,125.35,55.44,126.27z M111.57,93.52c0.55-0.66,1.34-1.54,2.02-1.97
	c2.65-1.65,5.42-2.08,7.61-1.18c1.66,0.66,2.62,1.69,2.93,3.13c0.54,2.48-0.98,5.44-1.66,6.15l-1.68,1.77l2.44-0.12
	c9.86-0.49,17.66-5.12,21.4-12.72c3.45-7,2.89-15.55-1.43-21.77c-5.31-7.67-16.97-11.88-29.82-6.82c3.38-3.75,8.86-8,16.55-8.19
	c5.67-0.14,11.16,2.1,15.46,6.31c5.2,5.08,8.17,12.51,8.16,20.37c-0.01,7.75-3.01,15.1-8.21,20.17c-4.27,4.15-9.66,6.37-15.19,6.23
	C122.7,104.7,116.46,100.83,111.57,93.52z M73.82,52.14c0-18.67,11.03-32.5,13.93-35.82c2.9,3.33,13.92,17.23,13.92,35.88
	c0,4.6-0.67,9.49-2.3,14.58c0,0.01-2.87,7.97-2.87,7.97c-1.29,3.32-2.51,6.46-3.45,10.36c-1.55,6.44-1.91,11.52-2.23,16
	c0,0-0.06,0.88-0.06,0.89c-1.08-0.03-2.84-0.09-2.84-0.09c-0.01,0.04-0.34,0-0.34,0c0,0-1.75,0.05-2.83,0.09c0-0.01,0-0.09,0-0.09
	l-0.05-0.76c-0.3-4.27-0.68-9.59-2.23-16.05c-0.94-3.9-2.16-7.03-3.45-10.34l-2.88-7.99C74.5,61.66,73.82,56.75,73.82,52.14z
	 M31.51,47.45c9.25-15.16,21.89-22.91,28.59-26.07c-3.12,3.55-7.07,9.48-7.07,16.89c0,3.13,0.74,6.51,2.51,10.08
	C44.11,42.19,36.13,44.48,31.51,47.45z M87.58,114.41c-10.92,0-16.1-2.64-16.88-3.55c0.78-0.92,5.96-3.55,16.88-3.55h0.34
	c10.92,0,16.1,2.64,16.88,3.55c-0.78,0.92-5.96,3.55-16.88,3.55H87.58z M73.29,117.95c1.71,0.51,3.62,0.93,5.76,1.24
	c-0.92,10.99-5.96,18.73-14.93,23.07c-6.42-2.15-12.7-6.18-16.32-8.75c20.14,2.53,24.68-12,25.15-13.77
	C72.97,119.73,73.15,118.77,73.29,117.95z M46.54,86.17c-1.5,1.72-2.01,3.57-2.01,5.25c0,0.91,0.18,1.75,0.41,2.51
	c-1.91-0.88-4.78-2.75-7.04-7.12c-1.23-3.21-1.74-5.97-1.74-8.34c0-7.9,5.61-11.45,8.55-12.77c8.57-3.82,21.53-1.47,26.06,7.39
	c6.39,11.12,7.51,24.01,7.91,29.54c-1.99,0.3-3.79,0.71-5.44,1.22c-0.03-0.28-0.07-0.63-0.07-0.63c-1.6-10.53-6.97-18.1-14.38-20.25
	C54.15,81.61,49.45,82.84,46.54,86.17z M116.7,82.96c-7.4,2.15-12.78,9.72-14.37,20.25c-0.01,0.08-0.04,0.38-0.07,0.63
	c-1.64-0.5-3.44-0.92-5.43-1.22c0.39-5.52,1.51-18.41,7.89-29.49c4.54-8.9,17.51-11.25,26.07-7.43c2.94,1.31,8.54,4.85,8.54,12.77
	c0,2.39-0.51,5.19-1.76,8.44c-2.24,4.3-5.09,6.15-7,7.03c0.23-0.76,0.42-1.6,0.42-2.52c0-1.68-0.52-3.53-2.01-5.25
	C126.06,82.84,121.36,81.61,116.7,82.96z M127.7,133.51c-3.62,2.57-9.89,6.6-16.32,8.75c-8.95-4.33-14-12.07-14.93-23.07
	c2.14-0.31,4.06-0.72,5.76-1.24c0.15,0.84,0.32,1.82,0.32,1.82l0.01-0.03C103.02,121.51,107.56,136.04,127.7,133.51z M122.47,38.27
	c0-7.41-3.95-13.35-7.07-16.89c6.71,3.16,19.35,10.91,28.6,26.07c-4.62-2.97-12.6-5.26-24.03,0.9
	C121.74,44.78,122.47,41.39,122.47,38.27z M90.77,119.71c0.34,8.77,1.5,17.92,9.7,25.7c-4.84,1.09-11.2,1.24-12.57,1.25h-0.3
	c-1.36-0.01-7.73-0.16-12.57-1.25c8.21-7.78,9.36-16.93,9.71-25.7c1.09,0.03,2.84,0.09,2.84,0.09c0.16-0.01,0.34,0,0.34,0
	S89.67,119.74,90.77,119.71z M141.06,110.12c3.59-1.53,6.25-3.69,8.15-5.62c-3.24,8.51-11.76,24.63-29.14,21.77
	c-5.56-0.92-10.88-5.89-12.11-11.15c1.51-1.24,2.41-2.65,2.41-4.26c0-1.24-0.56-3-2.77-4.63c0.19-2.91,0.64-5.34,1.21-7.36
	C120.97,116.74,136.47,112.07,141.06,110.12L141.06,110.12z M60.59,39.5c0-3.18,0.66-6.31,2-9.27c3.27-7.18,10.33-12.22,19.48-14.55
	c-6.14,5.04-16.5,15.83-16.5,31.72c0,2.75,0.46,5.7,1.16,8.74C62.76,50.94,60.59,45.16,60.59,39.5z M108.59,56.14
	c0.7-3.04,1.16-5.99,1.16-8.74c0-15.89-10.35-26.69-16.5-31.72c9.16,2.33,16.21,7.37,19.49,14.55c1.35,2.96,2,6.09,2,9.27
	C114.74,45.16,112.57,50.94,108.59,56.14z"/>
</svg>
