<?xml version="1.0" encoding="utf-8"?>
<!-- Generator: Adobe Illustrator 24.2.1, SVG Export Plug-In . SVG Version: 6.00 Build 0)  -->
<svg version="1.1" id="Lager_1" xmlns="http://www.w3.org/2000/svg" xmlns:xlink="http://www.w3.org/1999/xlink" x="0px" y="0px"
	 viewBox="0 0 203.33 153.93" style="enable-background:new 0 0 203.33 153.93;" xml:space="preserve">
<style type="text/css">
	.st0{fill:currentColor;}
</style>
<path class="st0" d="M37.86,29.12c0,0-3.91-5.3,1.27-10.39c4.19-4.12,9.44-1.5,10.89,0s19.97,19.65,19.97,19.65
	s6.49,5.26,12.32,4.54c5.83-0.73,8.43-1.12,12.55-4.36l15.61-15.97c0,0,5.08-6.54,9.44-6.08s5.26,2.23,5.26,2.23l19.42,19.47
	c0,0,5.45,5.22,12.53,4.79s11.8-2.61,15.43-7.15l17.25-17.11c0,0,5.99-4.49,9.8-1.04c0,0,3.09,2.18,3.45,4.9c0,0,1.63,4.72-2.9,8.35
	l-23.6,23.78l12.34,60.45h-12.71v32.13c0,0-1.45,6.35-7.08,6.17c0,0-7.44,1.27-8.89-6.17v-32.13h-5.08v31.59c0,0-0.18,6.16-6.9,6.8
	c0,0-5.99,1.37-9.08-6.25v-32.31V92.47l17.06-17.79c0,0,6.17-7.81-1.27-14.7c0,0-6.72-6.17-14.7,0.73l-2.18,2.18l1.45-7.81
	l-19.4-19.79l-19.15,19.42v7.44l-3.74-3.27c0,0-7.26-4.36-13.25,1.82c0,0-4.19,4.46-2.15,11.15c0.14,0.45,0.3,0.91,0.5,1.37
	l0.81,0.81l17.84,17.71v53.73c0,0,0.25,8.17-7.55,8.17c0,0-7.81,1.09-9.08-8.71v-37.58c0,0,0.8-3.32-1.81-3.74
	c0,0-2.61-0.34-2.53,3.87v37.79c0,0,0.08,8.4-8.08,8.4c0,0-7.49,0.52-8.25-8.82V54.62L37.86,29.12z"/>
<circle class="st0" cx="82.3" cy="18.65" r="18.65"/>
<circle class="st0" cx="157.78" cy="18.65" r="18.65"/>
<circle class="st0" cx="119.93" cy="63.43" r="13.92"/>
<path class="st0" d="M87.33,63.43c0,0,3.99-2.73,7.67-0.62l16.61,16.29c0,0,7.46,5.78,16.71,0l15.56-15.67c0,0,4.41-3.04,7.67-0.52
	c0,0,2.94,1.16,2.52,6.62c0,0-0.42,0.95-0.95,1.79l-19.27,19.34v56.76c0,0,0.35,4.86-5.32,6.27c0,0-7.04-0.17-7.04-5.95v-18.92
	c0,0,0.35-1.64-1.6-1.64c0,0-1.27,0-1.4,1.58c-0.14,1.58,0,19.07,0,19.07s-0.42,5.86-5.38,5.86c0,0-5.2,1-6.61-5.74V90.47
	L86.3,70.33C86.3,70.33,84.39,65.95,87.33,63.43z"/>
<circle class="st0" cx="30.95" cy="63.39" r="12.56"/>
<path class="st0" d="M29.65,126.45c-0.12,1.43,0,22.14,0,22.14s-0.38,5.29-4.85,5.29c0,0-4.7,0.9-5.97-5.18v-22.3h-2.79l2.79-37.94
	L0.91,70.25c0,0-2.41-3.57,0.62-6.86c0,0,3.6-2.46,6.92-0.56l14.99,14.7c0,0,6.73,5.22,15.08,0l14.04-14.14c0,0,3.98-2.74,6.92-0.47
	c0,0,2.66,1.04,2.28,5.98c0,0-0.38,0.85-0.85,1.61L43.52,87.96l2.77,38.44h-2.77v21.82c0,0,0.32,4.39-4.8,5.66
	c0,0-6.36-0.16-6.36-5.37v-22.05L29.65,126.45L29.65,126.45z"/>
</svg>
