<?xml version="1.0" encoding="utf-8"?>
<!-- Generator: Adobe Illustrator 24.2.1, SVG Export Plug-In . SVG Version: 6.00 Build 0)  -->
<svg version="1.1" id="Lager_1" xmlns="http://www.w3.org/2000/svg" xmlns:xlink="http://www.w3.org/1999/xlink" x="0px" y="0px"
	 viewBox="0 0 167.85 178.97" style="enable-background:new 0 0 167.85 178.97;" xml:space="preserve">
<style type="text/css">
	.st0{fill:currentColor;}
</style>
<g>
	<path class="st0" d="M41.12,1h6.82c1.31,0,2.39,1.06,2.39,2.39v23.35c0,1.31-1.06,1.39-2.39,1.39l-6.82,1
		c-1.31,0-2.39-1.06-2.39-2.39V3.37C38.73,2.06,39.81,1,41.12,1z"/>
	<path class="st0" d="M119.58,1h6.82c1.31,0,2.39,1.06,2.39,2.39v23.35c0,1.31-1.06,2.39-2.39,2.39h-6.82
		c-1.31,0-2.39-1.06-2.39-2.39V3.37C117.19,2.06,118.25,1,119.58,1z"/>
	<path class="st0" d="M160.18,16.56h-25.86v6.36c0,6.36-5.16,11.53-11.53,11.53c-6.36,0-11.53-5.16-11.53-11.53v-6.36H56v6.36
		c0,6.36-5.16,11.53-11.53,11.53s-11.53-5.16-11.53-11.53v-6.36H7.69C3.45,16.56,0,20.01,0,24.25l0,0v147.03
		c0,4.24,3.45,7.69,7.69,7.69l0,0h152.47c4.24,0,7.69-3.45,7.69-7.69l0,0V24.25C167.86,20.01,164.42,16.58,160.18,16.56z
		 M158.57,168.73H8.65V52.45h149.92L158.57,168.73L158.57,168.73z"/>
	<path class="st0" d="M17.3,59.95V161.2h132.62V59.95H17.3z M77.26,139.84c-9.29,8.41-23.3,8.85-33.11,1.05
		c-4.24-3.73-6.89-8.94-7.39-14.56l13.22-1.6c0.2,2.89,1.4,5.63,3.4,7.73c1.78,1.76,4.21,2.71,6.71,2.68
		c2.73,0.04,5.34-1.14,7.12-3.21c2.02-2.41,3.06-5.51,2.89-8.66c0.16-2.98-0.83-5.9-2.77-8.17c-1.7-1.94-4.17-3.04-6.76-3.02
		c-2.12,0.06-4.24,0.4-6.28,1.02l1.52-11.14c3.02,0.3,6.05-0.56,8.46-2.41c1.94-1.7,3.02-4.19,2.92-6.78
		c0.3-4.05-2.74-7.58-6.79-7.88c-0.34-0.03-0.68-0.03-1.02,0c-2.24-0.04-4.41,0.83-5.99,2.42c-1.79,1.94-2.87,4.46-3.02,7.1
		l-12.59-2.15c0.62-3.67,1.97-7.19,3.97-10.33c1.87-2.66,4.42-4.76,7.39-6.07c3.33-1.5,6.96-2.26,10.62-2.21
		c6.05-0.27,11.92,2.07,16.14,6.42c6.48,6.21,6.69,16.5,0.49,22.98c-1.62,1.68-3.57,3.01-5.73,3.86c3.86,0.75,7.32,2.83,9.79,5.88
		c2.48,3.13,3.78,7.03,3.67,11.04C84.21,129.91,81.71,135.72,77.26,139.84z M127.58,145.24h-13.66V93.76
		c-5.05,4.7-11.07,8.23-17.64,10.35v-12.4c4.22-1.54,8.15-3.78,11.62-6.63c3.9-2.89,6.89-6.84,8.6-11.4h11.09L127.58,145.24
		L127.58,145.24z"/>
</g>
</svg>
