<?xml version="1.0" encoding="utf-8"?>
<!-- Generator: Adobe Illustrator 24.2.1, SVG Export Plug-In . SVG Version: 6.00 Build 0)  -->
<svg version="1.1" id="Lager_1" xmlns="http://www.w3.org/2000/svg" xmlns:xlink="http://www.w3.org/1999/xlink" x="0px" y="0px"
	 viewBox="0 0 225.9 85.88" style="enable-background:new 0 0 225.9 85.88;" xml:space="preserve">
<style type="text/css">
	.st0{fill:currentColor;}
</style>
<path class="st0" d="M96.58,0v5.36L10.73,26.83v-5.36H0v32.19h10.73V48.3l13.05,3.27c-1.44,3.09-2.32,6.52-2.32,10.16
	c0,13.37,10.79,24.15,24.15,24.15c12.85,0,23.32-10.1,24.02-22.84l26.96,6.73v5.38h10.73V0L96.58,0L96.58,0z M59.04,61.7
	c0,7.41-6.01,13.42-13.42,13.42S32.2,69.11,32.2,61.7c0-2.77,0.83-5.36,2.29-7.47l24.42,6.1C58.92,60.79,59.04,61.25,59.04,61.7z"/>
<g>
	<g>
		<path class="st0" d="M169.35,50.07c3.88-0.09,7.16-2.12,9.72-5.95c-0.28-0.33-0.69-0.82-1.07-1.03c-1.38-0.87-2.84-1.08-3.99-0.62
			c-0.87,0.33-1.36,0.88-1.54,1.63c-0.28,1.29,0.51,2.85,0.87,3.21l0.88,0.92l-1.28-0.07c-5.16-0.25-9.23-2.67-11.17-6.65
			c-1.81-3.66-1.51-8.11,0.74-11.38c2.78-4.01,8.86-6.2,15.57-3.58c-1.77-1.97-4.64-4.19-8.67-4.27c-2.96-0.07-5.83,1.1-8.08,3.3
			c-2.71,2.64-4.27,6.54-4.27,10.65c0,4.04,1.56,7.89,4.29,10.54C163.64,48.98,166.47,50.13,169.35,50.07z"/>
		<path class="st0" d="M180.96,55.4c-0.8-0.66-1.28-1.38-1.28-2.24c0-0.66,0.28-1.56,1.45-2.43c-0.09-1.51-0.33-2.78-0.64-3.84
			c-6.36,9.34-14.44,6.9-16.85,5.88c-1.87-0.8-3.28-1.92-4.25-2.94c1.7,4.45,6.15,12.86,15.22,11.38
			C177.54,60.75,180.32,58.14,180.96,55.4z"/>
		<path class="st0" d="M213.68,50.07c2.89,0.07,5.69-1.08,7.93-3.25c2.71-2.64,4.27-6.49,4.29-10.54c0-4.11-1.54-7.97-4.27-10.65
			c-2.24-2.2-5.11-3.37-8.08-3.3c-4.02,0.09-6.88,2.32-8.67,4.27c6.72-2.64,12.8-0.46,15.57,3.58c2.26,3.25,2.55,7.71,0.74,11.38
			c-1.95,3.96-6.04,6.39-11.17,6.65l-1.28,0.07l0.88-0.92c0.36-0.36,1.15-1.92,0.87-3.21c-0.16-0.74-0.66-1.29-1.54-1.63
			c-1.15-0.48-2.61-0.25-3.99,0.62c-0.36,0.23-0.76,0.68-1.07,1.03C206.5,47.94,209.76,49.96,213.68,50.07z"/>
		<path class="st0" d="M185.43,30.15l1.49,4.19c0.68,1.74,1.31,3.37,1.81,5.4c0.82,3.37,1.03,6.15,1.17,8.38l0.02,0.39v0.05
			c0.57-0.02,1.47-0.05,1.47-0.05s0.18,0.02,0.18,0c0,0,0.92,0.02,1.49,0.05l0.02-0.48c0.16-2.35,0.36-4.99,1.17-8.36
			c0.49-2.04,1.13-3.68,1.81-5.42l1.49-4.17c0.87-2.67,1.2-5.22,1.2-7.62c0-9.74-5.77-17.01-7.28-18.74
			c-1.51,1.74-7.28,8.95-7.28,18.71C184.24,24.9,184.58,27.49,185.43,30.15z"/>
		<path class="st0" d="M174.67,20.53c-0.92-1.86-1.31-3.63-1.31-5.26c0-3.86,2.05-6.96,3.68-8.82c-3.51,1.65-10.1,5.69-14.96,13.61
			C164.54,18.49,168.71,17.28,174.67,20.53z"/>
		<path class="st0" d="M191.6,55.02c5.69,0,8.41-1.38,8.82-1.86c-0.41-0.48-3.12-1.86-8.82-1.86h-0.18c-5.69,0-8.41,1.38-8.82,1.86
			c0.41,0.48,3.12,1.86,8.82,1.86H191.6z"/>
		<path class="st0" d="M183.79,57.83c-0.25,0.92-2.63,8.52-13.13,7.19c1.89,1.33,5.18,3.43,8.52,4.57c4.68-2.26,7.34-6.31,7.8-12.05
			c-1.1-0.16-2.12-0.39-3.01-0.66C183.87,57.31,183.79,57.81,183.79,57.83z"/>
		<path class="st0" d="M176.39,38.6c3.86,1.13,6.67,5.09,7.51,10.58c0,0,0.02,0.18,0.05,0.33c0.87-0.27,1.81-0.48,2.85-0.64
			c-0.21-2.89-0.8-9.61-4.13-15.44c-2.38-4.64-9.13-5.85-13.61-3.86c-1.54,0.68-4.48,2.53-4.48,6.67c0,1.25,0.27,2.69,0.9,4.36
			c1.17,2.28,2.69,3.25,3.68,3.74c-0.1-0.41-0.23-0.84-0.23-1.31c0-0.88,0.27-1.86,1.07-2.73C171.5,38.55,173.95,37.89,176.39,38.6z
			"/>
		<path class="st0" d="M213.04,40.29c0.8,0.9,1.05,1.86,1.05,2.73c0,0.48-0.09,0.9-0.23,1.31c0.99-0.46,2.48-1.42,3.66-3.66
			c0.66-1.7,0.92-3.17,0.92-4.41c0-4.13-2.92-5.99-4.45-6.67c-4.48-1.99-11.24-0.76-13.61,3.88c-3.33,5.79-3.91,12.53-4.11,15.42
			c1.05,0.16,1.99,0.39,2.85,0.64c0.02-0.14,0.02-0.28,0.05-0.33c0.84-5.49,3.63-9.45,7.51-10.58
			C209.05,37.89,211.53,38.55,213.04,40.29z"/>
		<path class="st0" d="M199.24,57.83L199.24,57.83c0,0.02-0.09-0.49-0.18-0.92c-0.88,0.27-1.89,0.48-3.01,0.66
			c0.49,5.75,3.12,9.8,7.8,12.05c3.37-1.13,6.65-3.22,8.52-4.57C201.87,66.32,199.5,58.73,199.24,57.83z"/>
		<path class="st0" d="M208.34,20.53c5.97-3.21,10.15-2.02,12.55-0.48c-4.84-7.92-11.45-11.96-14.96-13.61
			c1.63,1.86,3.68,4.95,3.68,8.82C209.65,16.87,209.26,18.64,208.34,20.53z"/>
		<path class="st0" d="M191.6,57.85c0,0-0.09,0-0.18,0c0,0-0.9-0.02-1.49-0.05c-0.18,4.59-0.8,9.36-5.07,13.43
			c2.53,0.57,5.85,0.66,6.55,0.66h0.16c0.72,0,4.04-0.09,6.55-0.66c-4.29-4.07-4.89-8.84-5.07-13.43
			C192.5,57.83,191.6,57.85,191.6,57.85z"/>
		<path class="st0" d="M219.37,52.78c-2.4,1.03-10.49,3.45-16.85-5.88c-0.28,1.07-0.54,2.32-0.64,3.84
			c1.15,0.87,1.45,1.77,1.45,2.43c0,0.84-0.48,1.58-1.28,2.24c0.64,2.76,3.43,5.34,6.33,5.83c9.09,1.49,13.52-6.93,15.22-11.38
			C222.62,50.86,221.22,52,219.37,52.78L219.37,52.78z"/>
	</g>
	<path class="st0" d="M180.52,24.59c-0.36-1.58-0.62-3.14-0.62-4.57c0-8.3,5.4-13.95,8.61-16.57c-4.78,1.22-8.49,3.84-10.17,7.6
		c-0.69,1.54-1.05,3.19-1.05,4.84C177.32,18.84,178.45,21.88,180.52,24.59z"/>
	<path class="st0" d="M202.38,24.59c0.36-1.58,0.62-3.14,0.62-4.57c0-8.3-5.4-13.95-8.61-16.57c4.78,1.22,8.49,3.84,10.17,7.6
		c0.69,1.54,1.05,3.19,1.05,4.84C205.63,18.84,204.48,21.88,202.38,24.59z"/>
</g>
<g>
	<g>
		<path class="st0" d="M110.77,47.13c2.82-0.06,5.19-1.54,7.04-4.31c-0.22-0.24-0.5-0.59-0.76-0.73c-0.99-0.63-2.05-0.8-2.88-0.44
			c-0.63,0.24-0.98,0.64-1.12,1.17c-0.22,0.93,0.38,2.06,0.63,2.32l0.64,0.67l-0.91-0.05c-3.74-0.18-6.69-1.94-8.1-4.82
			c-1.31-2.65-1.1-5.88,0.54-8.25c2.02-2.9,6.42-4.49,11.29-2.6c-1.29-1.42-3.36-3.04-6.28-3.1c-2.15-0.05-4.23,0.81-5.85,2.39
			c-1.97,1.92-3.1,4.74-3.1,7.71c0,2.93,1.13,5.72,3.11,7.63C106.63,46.35,108.68,47.18,110.77,47.13z"/>
		<path class="st0" d="M119.19,51c-0.58-0.48-0.91-0.99-0.91-1.62c0-0.48,0.22-1.13,1.05-1.75c-0.06-1.1-0.24-2.02-0.46-2.78
			c-4.6,6.77-10.48,5-12.2,4.26c-1.36-0.58-2.38-1.39-3.09-2.14c1.22,3.22,4.45,9.32,11.03,8.25
			C116.71,54.86,118.72,52.98,119.19,51z"/>
		<path class="st0" d="M142.89,47.13c2.1,0.05,4.12-0.8,5.75-2.37c1.97-1.92,3.1-4.7,3.11-7.63c0-2.98-1.12-5.79-3.1-7.71
			c-1.62-1.58-3.7-2.44-5.85-2.39c-2.92,0.06-4.98,1.7-6.28,3.1c4.87-1.92,9.27-0.32,11.29,2.6c1.64,2.37,1.85,5.59,0.54,8.25
			c-1.4,2.87-4.37,4.65-8.1,4.82l-0.91,0.05l0.64-0.67c0.26-0.26,0.84-1.39,0.63-2.32c-0.13-0.54-0.48-0.93-1.12-1.17
			c-0.84-0.35-1.88-0.18-2.88,0.44c-0.26,0.17-0.55,0.49-0.76,0.73C137.7,45.59,140.07,47.05,142.89,47.13z"/>
		<path class="st0" d="M122.42,32.7l1.08,3.04c0.49,1.26,0.95,2.44,1.31,3.91c0.59,2.44,0.73,4.45,0.85,6.08l0.01,0.27v0.03
			c0.41-0.01,1.07-0.03,1.07-0.03s0.14,0.01,0.14,0c0,0,0.67,0.01,1.08,0.03l0.01-0.35c0.13-1.71,0.26-3.62,0.85-6.06
			c0.36-1.48,0.82-2.68,1.31-3.94l1.08-3.01c0.63-1.94,0.87-3.78,0.87-5.52c0-7.06-4.18-12.32-5.27-13.58
			c-1.1,1.26-5.27,6.49-5.27,13.57C121.56,28.9,121.8,30.76,122.42,32.7z"/>
		<path class="st0" d="M114.62,25.72c-0.67-1.34-0.95-2.64-0.95-3.82c0-2.8,1.49-5.05,2.68-6.39c-2.54,1.2-7.32,4.12-10.83,9.86
			C107.29,24.24,110.29,23.36,114.62,25.72z"/>
		<path class="st0" d="M126.9,50.72c4.12,0,6.09-0.99,6.39-1.34c-0.3-0.35-2.26-1.34-6.39-1.34h-0.14c-4.12,0-6.09,0.99-6.39,1.34
			c0.3,0.35,2.26,1.34,6.39,1.34H126.9z"/>
		<path class="st0" d="M121.23,52.75c-0.18,0.67-1.89,6.17-9.51,5.21c1.38,0.97,3.76,2.49,6.17,3.31c3.39-1.64,5.31-4.57,5.65-8.74
			c-0.81-0.13-1.54-0.27-2.19-0.48C121.3,52.37,121.23,52.74,121.23,52.75z"/>
		<path class="st0" d="M115.88,38.82c2.8,0.82,4.84,3.68,5.43,7.67c0,0,0.01,0.14,0.03,0.24c0.63-0.19,1.31-0.35,2.06-0.46
			c-0.15-2.1-0.58-6.96-3-11.2c-1.72-3.36-6.62-4.25-9.86-2.8c-1.12,0.49-3.23,1.83-3.23,4.84c0,0.9,0.19,1.96,0.66,3.17
			c0.85,1.65,1.96,2.37,2.68,2.7c-0.08-0.3-0.17-0.62-0.17-0.95c0-0.64,0.19-1.34,0.76-1.98C112.33,38.77,114.1,38.31,115.88,38.82z
			"/>
		<path class="st0" d="M142.44,40.04c0.58,0.66,0.75,1.34,0.75,1.98c0,0.35-0.06,0.66-0.17,0.95c0.72-0.32,1.8-1.04,2.65-2.65
			c0.48-1.22,0.67-2.29,0.67-3.19c0-3-2.11-4.34-3.22-4.84c-3.23-1.44-8.14-0.55-9.86,2.82c-2.41,4.2-2.84,9.08-2.98,11.17
			c0.75,0.13,1.44,0.27,2.06,0.46c0.01-0.09,0.01-0.22,0.03-0.24c0.62-3.99,2.64-6.85,5.43-7.67
			C139.54,38.31,141.33,38.77,142.44,40.04z"/>
		<path class="st0" d="M132.44,52.75L132.44,52.75c0,0.01-0.06-0.36-0.14-0.67c-0.64,0.19-1.38,0.35-2.19,0.48
			c0.36,4.17,2.26,7.1,5.65,8.74c2.44-0.82,4.82-2.33,6.17-3.31C134.34,58.92,132.61,53.41,132.44,52.75z"/>
		<path class="st0" d="M139.02,25.72c4.33-2.32,7.36-1.47,9.09-0.35c-3.51-5.74-8.29-8.67-10.83-9.86c1.17,1.34,2.68,3.59,2.68,6.39
			C139.98,23.08,139.69,24.35,139.02,25.72z"/>
		<path class="st0" d="M126.9,52.77c0,0-0.06,0-0.14,0c0,0-0.66-0.01-1.08-0.03c-0.14,3.33-0.58,6.78-3.67,9.73
			c1.83,0.41,4.25,0.48,4.75,0.48h0.13c0.52,0,2.93-0.06,4.75-0.48c-3.11-2.95-3.54-6.41-3.67-9.73
			C127.55,52.75,126.9,52.77,126.9,52.77z"/>
		<path class="st0" d="M147.03,49.1c-1.74,0.73-7.61,2.51-12.2-4.26c-0.22,0.76-0.4,1.7-0.46,2.78c0.84,0.63,1.05,1.29,1.05,1.75
			c0,0.62-0.35,1.15-0.91,1.62c0.46,2,2.49,3.86,4.58,4.23c6.58,1.08,9.81-5.01,11.03-8.25C149.38,47.72,148.37,48.52,147.03,49.1
			L147.03,49.1z"/>
	</g>
	<path class="st0" d="M118.87,28.67c-0.26-1.15-0.44-2.28-0.44-3.31c0-6.01,3.91-10.11,6.24-12c-3.47,0.89-6.14,2.78-7.38,5.5
		c-0.5,1.12-0.75,2.31-0.75,3.51C116.55,24.5,117.37,26.7,118.87,28.67z"/>
	<path class="st0" d="M134.71,28.67c0.26-1.15,0.44-2.28,0.44-3.31c0-6.01-3.91-10.11-6.24-12c3.47,0.89,6.14,2.78,7.38,5.5
		c0.5,1.12,0.75,2.31,0.75,3.51C137.06,24.5,136.23,26.7,134.71,28.67z"/>
</g>
</svg>
