<?xml version="1.0" encoding="utf-8"?>
<!-- Generator: Adobe Illustrator 24.2.1, SVG Export Plug-In . SVG Version: 6.00 Build 0)  -->
<svg version="1.1" id="Lager_1" xmlns="http://www.w3.org/2000/svg" xmlns:xlink="http://www.w3.org/1999/xlink" x="0px" y="0px"
	 viewBox="0 0 186.51 176.39" style="enable-background:new 0 0 186.51 176.39;" xml:space="preserve">
<style type="text/css">
	.st0{fill:currentColor;}
</style>
<g>
	<g>
		<path class="st0" d="M177.88,0H8.43C3.72,0,0,4.03,0,9.12v124.23c0,5.09,3.73,9.12,8.43,9.12h68.25v16.54h-20.1
			c-2.35,0-4.12,2.12-4.12,4.45v7.48c0,2.54,1.96,4.45,4.12,4.45h73.35c2.35,0,4.12-2.12,4.12-4.45v-7.48
			c0-2.54-1.96-4.45-4.12-4.45h-20.1v-16.54h68.25c4.71,0,8.43-4.03,8.43-9.12V9.11C186.31,4.02,182.58,0,177.88,0z M93.15,131.71
			c-3.14,0-5.88-1.76-5.88-5.36c0-3.39,2.55-5.36,5.88-5.36c3.14,0,5.88,1.76,5.88,5.36S96.29,131.71,93.15,131.71z M172.97,110.66
			H13.33V14.41h159.84v96.25H172.97z"/>
	</g>
	<g>
		<path class="st0" d="M53.88,44.25c6.08,0,10.99-4.76,10.99-10.62s-4.9-10.61-10.99-10.61c-6.07,0-10.99,4.75-10.99,10.61
			C42.9,39.49,47.81,44.25,53.88,44.25z"/>
		<path class="st0" d="M13.33,102.28c2.57,0,5.04-0.57,7.26-1.53c2.28-1.02,4.85-1.61,7.52-1.61s5.24,0.6,7.5,1.61
			c2.23,0.96,4.72,1.52,7.32,1.52c2.59,0,5.07-0.56,7.29-1.52c2.26-1.02,4.83-1.61,7.52-1.61c2.67,0,5.23,0.6,7.52,1.61
			c2.21,0.96,4.71,1.52,7.29,1.52s5.09-0.56,7.29-1.52c2.29-1.02,4.85-1.61,7.53-1.61c2.67,0,5.23,0.6,7.5,1.61
			c2.23,0.96,4.72,1.52,7.31,1.52c2.6,0,5.07-0.56,7.31-1.52c2.26-1.02,4.83-1.61,7.5-1.61c2.29,0,4.51,0.42,6.52,1.18
			c3.26-3.45,5.28-8.03,5.28-13.05c0-10.69-8.96-19.35-20.02-19.35l-2.25,0.23C104.06,77.8,94.07,78.2,94.07,78.2l-45.72-0.01
			l-3.82-2.17l9.22-14.94l10.09,5.63c6.04,3.79,9.19-1.52,9.19-1.52l10.12-15.93c4.4-6.92-4.93-12.47-9.3-5.52l-7.08,11.17l-16.83-9
			c-11.66-6.28-16.61,4.12-16.61,4.12L20.11,71.9c-2.25,4.55-0.24,6.5-0.24,6.5l-6.53-0.01C13.33,78.39,13.33,102.28,13.33,102.28z"
			/>
	</g>
</g>
</svg>
