<?xml version="1.0" encoding="utf-8"?>
<!-- Generator: Adobe Illustrator 24.2.1, SVG Export Plug-In . SVG Version: 6.00 Build 0)  -->
<svg version="1.1" id="Lager_1" xmlns="http://www.w3.org/2000/svg" xmlns:xlink="http://www.w3.org/1999/xlink" x="0px" y="0px"
	 viewBox="0 0 163.99 223.75" style="enable-background:new 0 0 163.99 223.75;" xml:space="preserve">
<style type="text/css">
	.st0{fill-rule:evenodd;clip-rule:evenodd;fill:currentColor;}
</style>
<g>
	<path class="st0" d="M50.67,64.93c-13.28-22.14,9.35-30.99,8.85-42.3C70.35,44.27,49.19,46.73,50.67,64.93z"/>
	<path class="st0" d="M45.26,72.8c1.48,9.84,5.41,18.69,16.23,24.1C48.7,74.76,54.6,52.14,70.84,42.79
		c-1.48,2.95-3.44,9.35,0.98,12.3C85.1,40.82,88.55,18.2,85.59,0c16.73,16.23,26.07,38.86,15.25,59.03
		c-7.38,14.27,4.43,28.04,10.82,0c29.51,28.04,28.53,77.23-16.73,88.05c3.94-4.92,28.04-27.55,3.94-53.13
		c2.95,20.17-13.28,20.17-10.82,39.85c-12.79-21.64,14.76-22.63-8.85-54.11c5.9,26.07-32.47,36.4-5.41,66.9
		C33.45,138.22,30.01,100.84,45.26,72.8z"/>
</g>
<g>
	<g>
		<path class="st0" d="M82.31,166.31c0.27,4.67-3.3,8.94-7.95,9.5L9.29,183.6c-4.64,0.56-8.67-2.81-8.94-7.48l-0.34-5.88
			c-0.27-4.67,3.32-8.71,7.99-8.99l65.27-3.82c4.67-0.27,8.71,3.32,8.99,7.99L82.31,166.31z"/>
	</g>
	<g>
		<path class="st0" d="M82.09,163.11c0.82-4.59,5.27-7.91,9.91-7.38l64.92,7.51c4.63,0.54,7.76,4.73,6.94,9.32l-1.03,5.78
			c-0.82,4.59-5.24,7.68-9.83,6.87l-64.2-11.4c-4.59-0.82-7.68-5.24-6.87-9.83L82.09,163.11z"/>
	</g>
	<g>
		<path class="st0" d="M71.09,160.29c2.82-3.73,8.32-4.66,12.21-2.07l54.56,36.31c3.89,2.59,4.77,7.76,1.95,11.49l-3.56,4.7
			c-2.82,3.73-8.18,4.47-11.91,1.65L72.2,172.91c-3.73-2.82-4.47-8.18-1.65-11.91L71.09,160.29z"/>
	</g>
	<g>
		<path class="st0" d="M64.57,166.67c4.01,2.41,5.61,7.82,3.55,12.02l-18.07,36.94c-2.05,4.2-7.02,5.67-11.03,3.26l-5.05-3.03
			c-4.01-2.41-5.32-7.66-2.91-11.67l21.07-35.06c2.41-4.01,7.66-5.32,11.67-2.91L64.57,166.67z"/>
	</g>
	<g>
		<path class="st0" d="M73.27,155.35c4.57-1.01,9.4,1.83,10.73,6.31l15.08,50.63c1.34,4.48-1.31,8.98-5.87,9.99l-5.75,1.27
			c-4.57,1.01-9.13-1.9-10.14-6.46l-11.38-51.4c-1.01-4.57,1.9-9.13,6.46-10.14L73.27,155.35z"/>
	</g>
</g>
</svg>
