<?xml version="1.0" encoding="utf-8"?>
<!-- Generator: Adobe Illustrator 24.2.1, SVG Export Plug-In . SVG Version: 6.00 Build 0)  -->
<svg version="1.1" id="Lager_1" xmlns="http://www.w3.org/2000/svg" xmlns:xlink="http://www.w3.org/1999/xlink" x="0px" y="0px"
	 viewBox="0 0 137.02 193" style="enable-background:new 0 0 137.02 193;" xml:space="preserve">
<style type="text/css">
	.st0{fill-rule:evenodd;clip-rule:evenodd;fill:currentColor;}
</style>
<g>
	<circle class="st0" cx="35.23" cy="16.66" r="16.66"/>
	<path class="st0" d="M71.66,66.92l8.68,46.19c0,4.19-3.22,7.58-7.42,7.58c-4.18,0-5.58-2.88-7.01-7.58l-9.93-42.07
		c0-1.38-2.43-1.38-2.43,0v113.61c0,4.61-3.74,8.35-8.36,8.35h-0.01c-4.61,0-8.36-3.74-8.36-8.35v-69.02c0-0.92-0.88-1.51-1.59-1.51
		c-0.7,0-1.59,0.75-1.59,1.67v68.85c0,4.61-3.74,8.35-8.36,8.35h-0.02c-4.61,0-8.35-3.74-8.35-8.35V71.04c0-1.38-2.49-1.38-2.49,0
		v37.1c0,4.19-2.91,7.58-7.08,7.58c-4.19,0-7.29-3.39-7.29-7.58L0,66.92c0-18.93,16.86-29.26,35.23-29.26
		C53.6,37.66,68.02,46.65,71.66,66.92z"/>
	<circle class="st0" cx="108.65" cy="78.68" r="11.55"/>
	<path class="st0" d="M92.38,96.71C78.63,107.33,70.23,115,70.23,115c-0.79,2.19-0.56,4.23,1.64,5.03c2.19,0.79,3.96,0.31,6.08-0.75
		l18.18-10.78l0.19,14.1l-12.08,38.55H97.4v26.78c0,2.81,2.26,5.07,5.04,5.07c2.79,0,5.04-2.26,5.04-5.07v-25.38
		c0-0.78,0.52-1.4,1.16-1.4s1.17,0.62,1.17,1.4v25.38c0,2.81,2.25,5.07,5.03,5.07c2.79,0,5.05-2.26,5.05-5.07v-26.78h13.16
		l-12.13-38.55l0.01-8.78l7.9,25.87c0.79,2.19,3.21,3.32,5.41,2.53c2.2-0.8,3.32-3.22,2.52-5.42c0,0-5.78-26.85-11.85-38.85
		c-1.4-2.78-5.64-4.65-8.76-4.65h-15.02C98.03,93.3,94.57,94.28,92.38,96.71z"/>
</g>
</svg>
