<?xml version="1.0" encoding="utf-8"?>
<!-- Generator: Adobe Illustrator 24.2.1, SVG Export Plug-In . SVG Version: 6.00 Build 0)  -->
<svg version="1.1" id="Lager_1" xmlns="http://www.w3.org/2000/svg" xmlns:xlink="http://www.w3.org/1999/xlink" x="0px" y="0px"
	 viewBox="0 0 214.76 218.71" style="enable-background:new 0 0 214.76 218.71;" xml:space="preserve">
<style type="text/css">
	.st0{fill:currentColor;}
</style>
<g>
	<path class="st0" d="M213.34,69.43c-5.54,19.11-25.5,30.1-44.61,24.56s-30.1-25.5-24.56-44.61c5.54-19.11,25.5-30.1,44.61-24.56
		C207.87,30.35,218.86,50.32,213.34,69.43z M157.2,63.07l6.53,1.9l1.61-5.57l2.79-2l1.33,9.24l7.1,2.05l-3.15-14.92l8.24-6.29
		l-5.96-1.73l-8.41,7.18l-0.07-0.02l2.57-8.88l-6.53-1.9L157.2,63.07z M178.08,69.13l6.53,1.9l2.3-7.92l2.1,0.6l0.67,8.77l7.3,2.11
		l-1.29-10.17c2.47-0.32,4.51-1.76,5.29-4.38c1.29-4.45-2.05-7.58-5.81-8.67l-11.01-3.18L178.08,69.13z M188.22,58.61l1.11-3.83
		l2.72,0.79c1.88,0.54,2.67,1.51,2.37,2.58c-0.42,1.44-1.38,1.85-3.62,1.19L188.22,58.61z"/>
	<path class="st0" d="M130.43,24.36c6.41,18.8-3.64,39.23-22.43,45.64s-39.23-3.63-45.65-22.43S65.99,8.34,84.78,1.93
		S124.03,5.57,130.43,24.36z M80.86,51.3l6.43-2.2l-1.86-5.49l1.14-3.23l6.38,6.81l6.97-2.38l-11.13-10.4l3.14-9.87l-5.85,2
		l-2.76,10.69l-0.06,0.02l-2.97-8.73l-6.43,2.2L80.86,51.3z M101.43,44.3l6.43-2.2l-2.65-7.79l2.06-0.7l5.56,6.81l7.19-2.46
		l-6.88-7.58c1.83-1.68,2.68-4.03,1.8-6.61c-1.49-4.37-6.02-5.03-9.72-3.76L94.4,23.69L101.43,44.3z M103.69,29.87l-1.29-3.76
		l2.67-0.91c1.85-0.64,3.05-0.29,3.41,0.77c0.49,1.42-0.06,2.29-2.27,3.05L103.69,29.87z"/>
	<path class="st0" d="M60.63,74.66c4.07,16.49-6,33.15-22.49,37.23c-16.49,4.07-33.15-6-37.23-22.49s6-33.15,22.49-37.23
		C39.89,48.1,56.56,58.17,60.63,74.66z M16.42,93.94l5.64-1.4l-1.19-4.82l1.2-2.67l4.94,6.26l6.12-1.51l-8.72-9.68l3.4-8.18
		l-5.14,1.26l-3.14,8.91l-0.05,0.01l-1.9-7.67l-5.64,1.4L16.42,93.94z M34.45,89.49l5.64-1.4l-1.69-6.83l1.81-0.44l4.25,6.21
		l6.31-1.56l-5.31-6.96c1.68-1.29,2.59-3.23,2.03-5.5c-0.94-3.83-4.75-4.72-8-3.92l-9.5,2.35L34.45,89.49z M37.44,77.38l-0.81-3.3
		l2.34-0.57c1.62-0.41,2.62-0.02,2.85,0.91c0.31,1.25-0.23,1.94-2.17,2.42L37.44,77.38z"/>
	<path class="st0" d="M56.62,119.71c0,0-3.1-4.2,1.01-8.24c3.32-3.27,7.49-1.19,8.64,0s15.85,15.59,15.85,15.59s5.15,4.17,9.77,3.6
		c4.62-0.58,6.69-0.89,9.96-3.46l12.38-12.66c0,0,4.03-5.19,7.49-4.82s4.17,1.77,4.17,1.77l15.41,15.44c0,0,4.32,4.14,9.94,3.8
		s9.36-2.07,12.24-5.67l13.68-13.59c0,0,4.75-3.56,7.78-0.83c0,0,2.45,1.73,2.73,3.88c0,0,1.29,3.74-2.3,6.63l-18.72,18.86
		l9.79,47.95h-10.08v25.49c0,0-1.15,5.04-5.62,4.9c0,0-5.91,1.01-7.05-4.9v-25.48h-4.03v25.06c0,0-0.14,4.89-5.48,5.4
		c0,0-4.75,1.09-7.21-4.96v-25.63v-17.88l13.53-14.11c0,0,4.9-6.2-1.01-11.66c0,0-5.33-4.9-11.66,0.58l-1.73,1.73l1.15-6.2
		l-15.39-15.7l-15.2,15.41v5.91l-2.97-2.59c0,0-5.76-3.46-10.51,1.44c0,0-3.32,3.54-1.7,8.84c0.11,0.36,0.24,0.72,0.4,1.09
		l0.64,0.64l14.15,14.05v42.62c0,0,0.2,6.48-5.99,6.48c0,0-6.2,0.86-7.21-6.91v-29.81c0,0,0.63-2.64-1.43-2.97c0,0-2.07-0.27-2,3.07
		v29.98c0,0,0.06,6.66-6.41,6.66c0,0-5.94,0.41-6.55-7v-71.57L56.62,119.71z"/>
	<circle class="st0" cx="91.88" cy="111.4" r="14.79"/>
	<circle class="st0" cx="151.75" cy="111.4" r="14.79"/>
	<circle class="st0" cx="121.72" cy="146.92" r="11.04"/>
	<path class="st0" d="M95.87,146.92c0,0,3.16-2.16,6.08-0.49l13.17,12.92c0,0,5.91,4.59,13.25,0l12.34-12.43c0,0,3.5-2.41,6.08-0.41
		c0,0,2.33,0.92,2,5.26c0,0-0.33,0.76-0.76,1.42l-15.28,15.34v45.02c0,0,0.28,3.86-4.22,4.97c0,0-5.58-0.13-5.58-4.72v-15.01
		c0,0,0.28-1.3-1.27-1.3c0,0-1.01,0-1.11,1.26c-0.11,1.26,0,15.13,0,15.13s-0.33,4.65-4.27,4.65c0,0-4.12,0.79-5.25-4.55v-45.6
		L95.03,152.4C95.05,152.4,93.53,148.93,95.87,146.92z"/>
	<circle class="st0" cx="51.14" cy="146.9" r="9.97"/>
	<path class="st0" d="M50.1,196.92c-0.1,1.13,0,17.56,0,17.56s-0.3,4.19-3.85,4.19c0,0-3.73,0.71-4.74-4.11v-17.68H39.3l2.21-30.1
		l-14.22-14.45c0,0-1.92-2.83,0.49-5.44c0,0,2.86-1.95,5.49-0.45l11.89,11.66c0,0,5.33,4.14,11.96,0l11.14-11.21
		c0,0,3.16-2.17,5.49-0.37c0,0,2.11,0.83,1.81,4.75c0,0-0.3,0.68-0.68,1.27l-13.8,13.84l2.2,30.5h-2.2v17.31
		c0,0,0.25,3.48-3.81,4.49c0,0-5.04-0.12-5.04-4.26v-17.49L50.1,196.92L50.1,196.92z"/>
</g>
</svg>
