<?xml version="1.0" encoding="utf-8"?>
<!-- Generator: Adobe Illustrator 24.2.1, SVG Export Plug-In . SVG Version: 6.00 Build 0)  -->
<svg version="1.1" id="Lager_1" xmlns="http://www.w3.org/2000/svg" xmlns:xlink="http://www.w3.org/1999/xlink" x="0px" y="0px"
	 viewBox="0 0 183.58 183.58" style="enable-background:new 0 0 183.58 183.58;" xml:space="preserve">
<style type="text/css">
	.st0{fill-rule:evenodd;clip-rule:evenodd;fill:currentColor;}
</style>
<path class="st0" d="M99.21,13.38c0-0.24,0.73-1.22,2.43-2.92c0.49-0.49,0.97-0.97,1.46-1.46c-3.65-0.49-7.54-0.73-11.43-0.73
	c-8.75,0-17.02,1.22-24.8,3.65c0.24,0.24,0.73,0.49,0.97,0.73c2.19,1.46,4.13,3.16,6.08,4.62c5.59,5.11,8.51,10.46,8.51,15.56
	c0,1.46-1.7,5.59-5.11,12.64c-3.4,6.81-5.59,10.7-6.57,11.67c-0.97,1.22-2.67,2.43-4.86,4.13s-3.89,2.92-4.62,3.89
	c-1.46,1.46-1.95,3.89-1.46,7.29c0.24,1.46,0.24,2.67,0,3.4c-0.24,0.97-0.97,1.95-2.19,2.43c-2.43-2.67-4.13-4.62-5.35-5.59
	c-2.19-1.95-4.38-2.92-7.05-2.92c-1.22,0-2.43,1.46-3.65,4.38c-0.97,2.67-1.46,4.86-1.46,7.05c0,3.65,1.95,7.29,5.84,11.43
	c4.38,4.38,8.02,6.57,11.43,6.57c3.4,0,5.35,0.24,6.08,0.24c0.73,0.24,3.89,0.24,9.48,0.24c5.59,0,9.97,2.19,12.89,6.57
	s4.86,10.21,5.59,17.51c0.97,7.29-2.19,16.05-9,26.26c-3.4,5.35-5.84,9.48-7.29,12.16c-2.19,3.89-3.65,7.29-4.62,10.21
	c6.57,1.7,13.62,2.43,21.15,2.43c22.86,0,42.55-8.02,58.84-24.31s24.31-35.74,24.31-58.84c0-5.59-0.49-11.18-1.46-16.29
	c-0.73,1.46-1.46,2.67-1.95,3.16c-0.73,0.97-1.7,1.46-2.92,1.46c-1.7,0-4.13-1.95-7.54-5.59c-3.4-3.89-6.08-5.84-7.78-6.08
	c-0.97,0.97-1.46,2.19-1.46,3.65c0,2.43,0.97,4.62,2.67,6.32c0.73,0.73,2.67,2.19,5.84,4.62c2.67,1.95,4.62,3.89,5.84,5.84
	c1.7,2.67,2.67,5.84,2.67,9.73c0,2.67-1.22,6.81-3.4,12.64c-2.19,5.35-4.86,10.94-8.27,16.78c-3.4,6.08-6.81,10.94-9.97,14.83
	c-3.65,4.38-6.56,6.56-8.51,6.56c-1.7,0-2.67-0.49-2.92-1.46c0,0,0-1.46,0-4.13s0.73-6.57,2.19-11.18
	c1.46-4.62,2.19-8.51,2.19-10.94c0-6.32-1.95-10.7-5.84-13.86c-2.43-1.95-6.81-3.65-13.13-5.11c-6.57-1.46-10.94-2.92-12.89-4.13
	c-3.89-2.43-5.84-6.08-5.84-11.18c0-6.57,1.22-12.16,3.65-16.78c2.92-5.35,7.05-8.02,12.4-8.02c0.97,0,2.92,0.49,5.84,0.97
	c2.92,0.73,5.11,0.97,6.32,0.97s2.67-0.49,4.62-1.46c2.43-1.22,3.65-2.43,3.65-3.89s-1.22-3.16-3.65-5.35
	c-2.67-2.43-5.11-3.65-7.29-3.65c-2.67,0-7.29,2.19-13.62,6.57c-5.84,4.38-9,6.56-9,6.56c-1.22,0-2.43-0.49-3.65-1.46
	c-1.46-0.97-2.19-2.19-2.19-3.65c0-9.97,2.67-16.78,8.27-20.42c1.46-0.97,3.4-1.95,5.84-3.16c1.7-0.97,2.67-2.19,2.67-3.89
	s-0.97-2.92-2.67-3.89c-0.24-0.24-2.19-0.97-5.84-2.43c-2.67-0.97-4.62-2.19-5.84-3.65C100.18,19.21,99.21,16.54,99.21,13.38z
	 M183.58,91.67c0,25.29-9,46.93-26.99,64.92s-39.63,26.99-64.92,26.99s-46.93-9-64.92-26.99S0,116.96,0,91.67s9-46.93,26.75-64.92
	C44.74,8.76,66.38,0,91.67,0s46.93,9,64.92,26.75C174.58,44.74,183.58,66.38,183.58,91.67z M12.64,65.41
	c-2.67,8.27-4.13,17.02-4.13,26.26c0,22.86,8.02,42.55,24.31,58.84c6.81,6.81,14.1,12.16,21.88,16.05c0-3.4-0.24-7.54-0.24-12.64
	c-0.24-5.11-2.43-8.75-6.81-11.18c-4.38-2.43-8.27-3.89-11.43-4.62c-3.16-0.73-4.86-3.4-4.86-8.02c0-4.62,0.97-8.02,2.92-10.21
	s3.4-4.13,4.38-6.32c0.97-1.95,2.67-4.38,5.35-6.81c2.67-2.43-0.73-8.02-9.97-16.05c-9.97-4.13-16.29-8.02-18.48-11.67
	c-2.19-3.65-3.4-8.02-3.4-12.89C12.64,65.65,12.64,65.65,12.64,65.41z"/>
</svg>
