<?xml version="1.0" encoding="utf-8"?>
<!-- Generator: Adobe Illustrator 24.2.1, SVG Export Plug-In . SVG Version: 6.00 Build 0)  -->
<svg version="1.1" id="Lager_1" xmlns="http://www.w3.org/2000/svg" xmlns:xlink="http://www.w3.org/1999/xlink" x="0px" y="0px"
	 viewBox="0 0 235.08 201.85" style="enable-background:new 0 0 235.08 201.85;" xml:space="preserve">
<style type="text/css">
	.st0{fill:currentColor;}
</style>
<g>
	<path class="st0" d="M111.24,25.25V14.8V2.79c0-1.56,1.3-2.79,2.79-2.79h18.98c1.56,0,1.79,0.23,1.79,1.79V15.8
		c0,1.56-0.23,1.79-1.79,1.79h-16.13v7.86l39.73,28.24H71.19L111.24,25.25z M113.9,60.05H64.37v52.78h32.65
		c6.82-7.34,16.88-21.55,16.88-31.74c0,10.19,10,24.41,16.88,31.74h32.65V60.05H113.9z"/>
</g>
<g id="Your_Icon">
	<path class="st0" d="M58.41,87.95L34.43,46.08l2.61-4.56H35.1l-1.64,2.88l-1.64-2.88h-1.95l2.6,4.56L8.48,87.95H58.41z
		 M33.44,68.25l8.99,15.7H24.44L33.44,68.25z"/>
</g>
<g id="Your_Icon_1_">
	<path class="st0" d="M82.04,169.25L46.6,105.71l3.85-6.92h-2.87l-2.43,4.37l-2.43-4.37h-2.85l3.85,6.92L8.28,169.25H82.04z
		 M45.14,139.35l13.29,23.83H31.85L45.14,139.35z"/>
</g>
<g id="Your_Icon_2_">
	<path class="st0" d="M197.44,177.85l-31.25-47.93l3.39-5.22h-2.53l-2.14,3.29l-2.14-3.29h-2.53l3.39,5.22l-31.25,47.93H197.44z
		 M164.91,155.3l11.72,17.98H153.2L164.91,155.3z"/>
</g>
<g id="Your_Icon_3_">
	<path class="st0" d="M33.54,65.48L17.42,37.34l1.75-3.07h-1.3l-1.1,1.93l-1.1-1.93h-1.3l1.75,3.07L0,65.48H33.54z M16.76,52.24
		l6.04,10.55H10.71L16.76,52.24z"/>
</g>
<g id="Your_Icon_4_">
	<path class="st0" d="M157.72,201.85l-42.41-65.06l4.61-7.09h-3.43l-2.9,4.47l-2.9-4.47h-3.43l4.61,7.09l-42.41,65.06H157.72z
		 M113.55,171.24l15.9,24.41H97.64L113.55,171.24z"/>
</g>
<g id="Your_Icon_5_">
	<path class="st0" d="M235.08,101.2l-29.74-45.62l3.23-4.97h-2.4l-2.04,3.13l-2.04-3.13h-2.4l3.23,4.97l-29.74,45.62H235.08z
		 M204.12,79.74l11.15,17.11h-22.3L204.12,79.74z"/>
</g>
<g id="Your_Icon_6_">
	<path class="st0" d="M195.19,37.53L177.15,9.85l1.96-3.02h-1.46l-1.24,1.9l-1.24-1.9h-1.46l1.96,3.02l-18.04,27.68H195.19z
		 M176.41,24.5l6.76,10.39h-13.53L176.41,24.5z"/>
</g>
<g id="Your_Icon_7_">
	<path class="st0" d="M78.47,26.23L64.92,2.58L66.39,0h-1.1l-0.93,1.63L63.43,0h-1.09l1.47,2.58L50.27,26.23H78.47z M64.36,15.1
		l5.08,8.87H59.28L64.36,15.1z"/>
</g>
</svg>
