<?xml version="1.0" encoding="utf-8"?>
<!-- Generator: Adobe Illustrator 24.2.1, SVG Export Plug-In . SVG Version: 6.00 Build 0)  -->
<svg version="1.1" id="Lager_1" xmlns="http://www.w3.org/2000/svg" xmlns:xlink="http://www.w3.org/1999/xlink" x="0px" y="0px"
	 viewBox="0 0 164.96 198.03" style="enable-background:new 0 0 164.96 198.03;" xml:space="preserve">
<style type="text/css">
	.st0{fill-rule:evenodd;clip-rule:evenodd;fill:currentColor;}
	.st1{fill:currentColor;}
</style>
<path class="st0" d="M102.51,35.52c35.87,8.95,62.45,41.38,62.45,80.03c0,45.56-36.92,82.48-82.48,82.48S0,161.11,0,115.55
	C0,76.9,26.58,44.48,62.45,35.52c-2.15-3.53-3.39-7.68-3.39-12.1C59.06,10.52,69.59,0,82.48,0s23.42,10.53,23.42,23.42
	C105.91,27.84,104.67,31.99,102.51,35.52L102.51,35.52z M82.48,14.13c-5.16,0-9.29,4.12-9.29,9.29s4.12,9.29,9.29,9.29
	c5.16,0,9.29-4.12,9.29-9.29C91.77,18.26,87.65,14.13,82.48,14.13z M82.48,47.2c-37.75,0-68.36,30.61-68.36,68.36
	s30.61,68.36,68.36,68.36s68.36-30.61,68.36-68.36S120.23,47.2,82.48,47.2z"/>
<g>
	<path class="st1" d="M69.4,126.11c0.2,0.33,0.47,0.58,0.78,0.77l0.01,0.01l0.02,0.01c0.04,0.02,0.07,0.05,0.11,0.06l42,25.56
		c0.38,0.23,0.8,0.34,1.21,0.34c0.01,0,0.02,0,0.03,0c1.2,0.05,2.36-1.04,2.36-2.34c0-0.6-0.23-1.15-0.6-1.56l-25.4-41.8
		c-0.02-0.03-0.05-0.04-0.06-0.06c-0.12-0.19-0.29-0.34-0.47-0.48c-0.08-0.07-0.14-0.16-0.23-0.22c-0.01,0-0.01-0.01-0.01-0.01
		L46.99,80.76c-0.92-0.56-2.11-0.42-2.87,0.34c-0.76,0.76-0.9,1.95-0.34,2.87L69.4,126.11z M86.41,113.18l1.06-1.06l19.09,31.42
		l-31.4-19.1l1.03-1.03c0.97,0.5,2.32,0.83,3.46,0.83c4.19,0,7.59-3.41,7.59-7.59C87.24,115.49,86.9,114.15,86.41,113.18z
		 M76.72,116.64c0-1.61,1.31-2.92,2.92-2.92c1.68,0,2.92,1.38,2.92,2.92c0,1.61-1.31,2.92-2.92,2.92
		C78.04,119.56,76.72,118.25,76.72,116.64z M84.16,108.83l-1.07,1.07c-1.05-0.54-2.21-0.85-3.44-0.85c-4.19,0-7.59,3.41-7.59,7.59
		c0,1.22,0.32,2.38,0.86,3.43l-1.07,1.07L52.76,89.73L84.16,108.83z"/>
</g>
<g>
	<path class="st1" d="M74.98,55.09h4.92l5.35,8.77h0.05v-8.77h4.2v16.97h-4.3l-5.87-9.6h-0.05v9.6h-4.3V55.09z"/>
</g>
<g>
	<g>
		<path class="st1" d="M74.38,170.6l4.8-0.92c0.32,1.22,1.25,2.08,3.15,2.08c1.55,0,1.9-0.53,1.9-1.05c0-0.65-0.4-1.05-2.55-1.45
			c-4.95-0.9-6.42-2.92-6.42-5.15c0-3.62,2.62-5.85,7.07-5.85c4.3,0,6.35,2.32,6.92,4.17l-4.37,1.33c-0.45-1.33-1.55-1.75-2.75-1.75
			c-1.12,0-1.72,0.45-1.72,1.1c0,0.75,0.55,1.12,3.65,1.57c3.9,0.58,5.65,2.67,5.65,5.37c0,2.95-2.4,5.65-7.67,5.65
			C77.2,175.7,75.08,173.2,74.38,170.6z"/>
	</g>
</g>
<g>
	<path class="st1" d="M22.53,105.84h5.65l3.02,10.92h0.05l3.12-10.92h4.3l-5.45,16.97h-5.17L22.53,105.84z"/>
</g>
<g>
	<path class="st1" d="M126.54,114.43c0-4.92,2.77-8.85,8.07-8.85c5.3,0,8.15,3.82,8.15,8.52c0,5-2.82,8.92-8.05,8.92
		C129.37,123.03,126.54,119.06,126.54,114.43z M131.06,103.14c0-0.87,0.73-1.52,1.58-1.52s1.62,0.65,1.62,1.52
		c0,0.92-0.75,1.6-1.65,1.6C131.74,104.74,131.06,103.99,131.06,103.14z M137.21,114.23c0-2.75-0.77-4.87-2.52-4.87
		c-1.5,0-2.62,1.72-2.62,5.1c0,2.57,0.75,4.72,2.62,4.72C136.59,119.18,137.21,117.13,137.21,114.23z M135.41,103.14
		c0-0.87,0.75-1.52,1.65-1.52c0.82,0,1.6,0.65,1.6,1.52c0,0.92-0.75,1.6-1.65,1.6S135.41,103.99,135.41,103.14z"/>
</g>
</svg>
