<?xml version="1.0" encoding="utf-8"?>
<!-- Generator: Adobe Illustrator 24.2.1, SVG Export Plug-In . SVG Version: 6.00 Build 0)  -->
<svg version="1.1" id="Lager_1" xmlns="http://www.w3.org/2000/svg" xmlns:xlink="http://www.w3.org/1999/xlink" x="0px" y="0px"
	 viewBox="0 0 101.71 217.32" style="enable-background:new 0 0 101.71 217.32;" xml:space="preserve">
<style type="text/css">
	.st0{fill:currentColor;}
</style>
<path class="st0" d="M54.53,183.01l-12.89,9.04l7.76-40.4h-7.41v-23.39h4.28L4.35,62.41c0,0-25.72-59.7,47.93-62.34
	c69.71-2.5,45.29,62.63,45.29,62.63l-31.65,65.29h5.7v23.67h-6.27l9.01,65.66L54.1,202.88L54.53,183.01z M57.04,117.64
	c0,0,14.87-36.59,22.56-54.58c8.02-18.75,5.39-32.88,5.39-32.88S81.29,8.82,40.2,14.59S22.69,60.95,22.69,60.95L57.04,117.64z"/>
</svg>
