<?xml version="1.0" encoding="utf-8"?>
<!-- Generator: Adobe Illustrator 24.2.1, SVG Export Plug-In . SVG Version: 6.00 Build 0)  -->
<svg version="1.1" id="Lager_1" xmlns="http://www.w3.org/2000/svg" xmlns:xlink="http://www.w3.org/1999/xlink" x="0px" y="0px"
	 viewBox="0 0 142.48 142.48" style="enable-background:new 0 0 142.48 142.48;" xml:space="preserve">
<style type="text/css">
	.st0{fill-rule:evenodd;clip-rule:evenodd;fill:currentColor;}
</style>
<path class="st0" d="M79.62,18.86H88c4.61,0,8.38,3.77,8.38,8.38V134.1c0,4.61-3.77,8.38-8.38,8.38H8.38
	c-4.61,0-8.38-3.77-8.38-8.38V27.24c0-4.61,3.77-8.38,8.38-8.38h8.38v-2.1c0-4.61,3.77-8.38,8.38-8.38h9.64
	c0.42-0.84,0.84-1.68,1.68-2.51C39.18,2.31,43.16,0,48.19,0c5.03,0,9.01,2.3,11.73,5.87c0.63,0.84,1.26,1.68,1.68,2.51h9.64
	c4.61,0,8.38,3.77,8.38,8.38V18.86L79.62,18.86z M8.38,27.24V134.1H88V27.24h-8.38v2.1c0,4.61-3.77,8.38-8.38,8.38H25.15
	c-4.61,0-8.38-3.77-8.38-8.38v-2.1H8.38z M71.24,29.33V16.76H58.67c-1.89,0-3.56-1.26-3.98-3.14c-0.21-0.63-0.63-1.68-1.47-2.72
	c-1.26-1.68-2.72-2.51-5.03-2.51s-3.77,0.84-5.03,2.51c-0.84,1.05-1.26,2.1-1.47,2.72c-0.42,1.89-2.1,3.14-3.98,3.14H25.15v12.57
	H71.24z M75.43,54.48c2.3,0,4.19,1.89,4.19,4.19s-1.89,4.19-4.19,4.19H48.19c-2.3,0-4.19-1.89-4.19-4.19s1.89-4.19,4.19-4.19H75.43z
	 M75.43,79.62c2.3,0,4.19,1.89,4.19,4.19S77.73,88,75.43,88H48.19c-2.3,0-4.19-1.89-4.19-4.19s1.89-4.19,4.19-4.19H75.43z
	 M23.89,55.73l1.26,1.26l5.45-5.45c1.68-1.68,4.19-1.68,5.87,0s1.68,4.19,0,5.87l-8.38,8.38c-1.68,1.68-4.19,1.68-5.87,0l-4.19-4.19
	c-1.68-1.68-1.68-4.19,0-5.87C19.7,54.06,22.21,54.06,23.89,55.73z M23.89,80.88l1.26,1.26l5.45-5.45c1.68-1.68,4.19-1.68,5.87,0
	s1.68,4.19,0,5.87l-8.38,8.38c-1.68,1.68-4.19,1.68-5.87,0l-4.19-4.19c-1.68-1.68-1.68-4.19,0-5.87
	C19.7,79.2,22.21,79.2,23.89,80.88z M75.43,104.76c2.3,0,4.19,1.89,4.19,4.19s-1.89,4.19-4.19,4.19H48.19
	c-2.3,0-4.19-1.89-4.19-4.19s1.89-4.19,4.19-4.19H75.43z M23.89,106.02l1.26,1.26l5.45-5.45c1.68-1.68,4.19-1.68,5.87,0
	s1.68,4.19,0,5.87l-8.38,8.38c-1.68,1.68-4.19,1.68-5.87,0l-4.19-4.19c-1.68-1.68-1.68-4.19,0-5.87
	C19.7,104.34,22.21,104.34,23.89,106.02z M142.48,23.05v100.57c0,0.42,0,0.84-0.21,1.26c-0.42,1.26-1.26,2.93-2.51,4.4
	c-1.47,1.89-3.35,3.14-5.66,3.98v5.03c0,2.3-1.89,4.19-4.19,4.19c-2.3,0-4.19-1.89-4.19-4.19v-4.82c-2.3-0.84-3.98-2.1-5.66-3.98
	c-1.47-1.68-2.1-3.35-2.51-4.4c-0.21-0.63-0.21-1.05-0.21-1.47V41.9h-4.19v29.33c0,2.3-1.89,4.19-4.19,4.19s-4.19-1.89-4.19-4.19
	V37.71c0-2.3,1.89-4.19,4.19-4.19h8.38V23.05c0-2.3,1.89-4.19,4.19-4.19h16.76C140.59,18.86,142.48,20.74,142.48,23.05z
	 M125.72,67.05h8.38V41.9h-8.38V67.05z M126.56,124.04c0.84,1.05,1.89,1.68,3.35,1.68c1.47,0,2.51-0.63,3.35-1.68
	c0.42-0.42,0.63-0.84,0.84-1.26V75.43h-8.38v47.35C125.93,123.2,126.14,123.62,126.56,124.04z M125.72,33.52h8.38v-6.29h-8.38V33.52
	z"/>
</svg>
