<?xml version="1.0" encoding="utf-8"?>
<!-- Generator: Adobe Illustrator 24.2.1, SVG Export Plug-In . SVG Version: 6.00 Build 0)  -->
<svg version="1.1" id="Lager_1" xmlns="http://www.w3.org/2000/svg" xmlns:xlink="http://www.w3.org/1999/xlink" x="0px" y="0px"
	 viewBox="0 0 124.58 196.49" style="enable-background:new 0 0 124.58 196.49;" xml:space="preserve">
<style type="text/css">
	.st0{fill:currentColor;}
</style>
<g>
	<g transform="translate(0,-952.36218)">
		<path class="st0" d="M62.36,952.38c-1.09,0.15-1.85,1.2-1.85,2.3v8.3c0,1.1,0.75,2.15,1.85,2.3c1.33,0.19,2.47-0.84,2.47-2.14
			v-8.63C64.83,953.22,63.69,952.2,62.36,952.38z M32.15,965.01c-0.49,0-0.97,0.17-1.36,0.5c-1,0.83-0.95,2.38-0.04,3.3l5.42,5.42
			c1.24,1.24,2.5,1.43,3.38,0.77c1.07-0.81,1.14-2.32,0.23-3.24l-6.1-6.1C33.24,965.23,32.7,965.01,32.15,965.01z M93.2,965.01
			c-0.55,0-1.1,0.22-1.52,0.64l-6,6c-0.78,0.78-0.97,2.04-0.3,2.91c0.81,1.07,2.32,1.14,3.24,0.23l5.99-5.99
			c0.91-0.91,0.96-2.47-0.04-3.3C94.16,965.18,93.68,965.01,93.2,965.01z M62.67,971.79c-13.16,0-25.9,10.21-25.9,24.66
			c0,18.71,13.99,22.65,14.03,35.72c0,0.03,0.03,0.06,0.06,0.06h23.62c0.03,0,0.06-0.03,0.06-0.06
			c0.04-13.07,14.03-17.01,14.03-35.72C88.58,982,75.84,971.79,62.67,971.79L62.67,971.79z M56.03,978.33c0.01,0,0.02,0,0.03,0
			c0.06,0,0.11,0,0.17,0c1.19,0.01,2.15,0.98,2.15,2.17c0,0.9-0.56,1.7-1.41,2.01c-5.26,1.98-9.21,6.64-10.22,12.31
			c-0.21,1.17-1.34,1.95-2.51,1.74s-1.95-1.34-1.74-2.51c1.28-7.18,6.25-13.03,12.92-15.55C55.61,978.41,55.82,978.36,56.03,978.33
			L56.03,978.33z M19.5,995.53c-1.3,0-2.32,1.14-2.14,2.47c0.15,1.09,1.2,1.85,2.3,1.85h8.3c1.1,0,2.15-0.75,2.3-1.85
			c0.19-1.33-0.84-2.47-2.14-2.47H19.5z M97.21,995.53c-1.3,0-2.32,1.14-2.14,2.47c0.15,1.09,1.2,1.85,2.3,1.85h8.3
			c1.1,0,2.15-0.75,2.3-1.85c0.19-1.33-0.84-2.47-2.14-2.47H97.21z M50.8,1036.61v4.19c0,0.03,0.03,0.06,0.06,0.06h23.62
			c0.03,0,0.06-0.03,0.06-0.06v-4.19c0-0.03-0.03-0.06-0.06-0.06H50.86C50.83,1036.55,50.8,1036.58,50.8,1036.61z M50.87,1045.18
			c-0.04,0-0.07,0.03-0.07,0.07c0.04,2.45,2.06,4.25,4.32,4.25h15.11c2.26,0,4.28-1.8,4.32-4.25c0-0.04-0.03-0.07-0.07-0.07H50.87z
			 M58.42,1051.66c-0.04,0-0.07,0.03-0.07,0.07c0.04,2.36,1.95,4.25,4.32,4.25s4.28-1.89,4.32-4.25c0-0.04-0.03-0.07-0.07-0.07
			H58.42z"/>
	</g>
	<g transform="translate(0,-952.36218)">
		<path class="st0" d="M110.41,1024.27c-0.63,0.01-1.23,0.23-1.73,0.62l-46.37,36.8l-46.37-36.8c-0.6-0.47-1.37-0.68-2.12-0.57
			c-1.42,0.18-2.49,1.4-2.48,2.83v9.64l-1.42-0.8c-0.5-0.28-1.07-0.4-1.64-0.35c-1.48,0.12-2.61,1.35-2.61,2.83v11.99l-2.08-0.57
			c-0.36-0.1-0.74-0.13-1.11-0.09c-1.42,0.18-2.49,1.4-2.48,2.83v80.67c0,1.29,0.87,2.42,2.12,2.74l50.66,12.65l0.13,0.04
			c0.04,0.02,0.09,0.03,0.13,0.04h0.04c0.07,0.02,0.15,0.03,0.22,0.04c0.09,0.02,0.18,0.03,0.27,0.04c0.03,0,0.06,0,0.09,0
			c0.04,0,0.09,0,0.13,0s0.09,0,0.13,0h0.27h16.59c0.03,0,0.06,0,0.09,0c0.19,0.01,0.39-0.01,0.58-0.04
			c0.01-0.01,0.03-0.03,0.04-0.04c0.09-0.02,0.18-0.05,0.27-0.09l50.7-12.65c1.25-0.32,2.12-1.45,2.12-2.74v-80.67
			c0.01-1.56-1.25-2.84-2.81-2.85c-0.13,0-0.25,0.01-0.38,0.02c-0.13,0.02-0.27,0.05-0.4,0.09l-2.08,0.57v-11.99
			c0.01-1.56-1.24-2.84-2.81-2.86c-0.51,0-1,0.13-1.44,0.38l-1.42,0.8v-9.64c0.02-1.56-1.22-2.85-2.79-2.87
			C110.47,1024.27,110.44,1024.27,110.41,1024.27L110.41,1024.27z M17.01,1033.03l31.55,25.03l-31.55-18.05V1033.03z
			 M107.63,1033.03v6.99l-31.55,18.05L107.63,1033.03z M11.35,1043.33l29.64,16.94l-29.64-8.23V1043.33z M113.29,1043.33v8.71
			l-29.64,8.23L113.29,1043.33z M5.69,1056.34l1.5,0.4l0.09,0.04c0.23,0.1,0.46,0.18,0.71,0.22c0.1,0.02,0.21,0.04,0.31,0.04
			l42.7,11.85v73.51l-45.31-11.32L5.69,1056.34L5.69,1056.34z M118.95,1056.34v74.75l-45.31,11.32v-73.51l42.78-11.85
			c0.32-0.03,0.64-0.12,0.93-0.27L118.95,1056.34L118.95,1056.34z M56.66,1069.61h11.33v73.6H56.66V1069.61z"/>
	</g>
</g>
</svg>
