<?xml version="1.0" encoding="utf-8"?>
<!-- Generator: Adobe Illustrator 24.2.1, SVG Export Plug-In . SVG Version: 6.00 Build 0)  -->
<svg version="1.1" id="Lager_1" xmlns="http://www.w3.org/2000/svg" xmlns:xlink="http://www.w3.org/1999/xlink" x="0px" y="0px"
	 viewBox="0 0 99.63 169.43" style="enable-background:new 0 0 99.63 169.43;" xml:space="preserve">
<style type="text/css">
	.st0{fill:currentColor;}
</style>
<g>
	<path class="st0" d="M10.15,124l33.43,30.08c3.28-3.85,6.77-7.51,10.47-10.96l-37.09-29.14C14.79,116.95,12.52,120.25,10.15,124z"
		/>
	<path class="st0" d="M27.61,100.52c-1.94,2.31-4.05,4.85-6.3,7.71l38.31,30.1c4.56-3.6,9.46-6.73,14.64-9.35l-46.1-29.12
		L27.61,100.52z"/>
	<path class="st0" d="M42.16,75.7h55.09c-0.39-3.57-0.69-7.17-0.9-10.81H44.14C43.73,68.53,43.07,72.15,42.16,75.7z"/>
	<path class="st0" d="M96.27,28.84H44.73c0.16,3.86,0.26,7.44,0.31,10.81h50.93C96.04,36.05,96.14,32.45,96.27,28.84z"/>
	<path class="st0" d="M95.93,46.86H45.09c-0.03,3.95-0.14,7.54-0.34,10.81h51.33C95.97,54.09,95.92,50.48,95.93,46.86z"/>
	<path class="st0" d="M32.74,94.23l45.31,28.62c-9.57-11.11-8.98-20.68-7.49-25.82c1.87-5.82,5.71-10.81,10.85-14.12H39.66
		C37.84,86.96,35.52,90.76,32.74,94.23z"/>
	<path class="st0" d="M77.49,99.04c-2.04,7.01,1.32,14.95,9.37,22.56c2.92-2.3,5.43-5.09,7.41-8.24c4.77-7.64,6.44-16.8,4.68-25.63
		c-0.26-1.4-0.46-2.83-0.69-4.25C87.65,85.79,79.63,91.68,77.49,99.04z"/>
	<path class="st0" d="M2.28,159.09c4.12,6.67,11.51,10.62,19.35,10.33h0.01c6.54-0.01,12.66-3.21,16.4-8.58
		c0.32-0.42,0.63-0.79,0.95-1.19L6.31,130.24C-2.11,144.6-0.61,153.81,2.28,159.09z"/>
	<path class="st0" d="M96.55,21.63c0.11-2.5,0.22-5,0.33-7.5c0.16-3.47,0.31-6.93,0.45-10.38c0.08-1.99-1.47-3.67-3.45-3.75
		c-0.05,0-0.1,0-0.15,0H46.87c-1.99,0-3.6,1.61-3.6,3.6c0,0.09,0,0.17,0.01,0.26c0.47,6.43,0.84,12.32,1.13,17.76L96.55,21.63z"/>
</g>
</svg>
