<?xml version="1.0" encoding="utf-8"?>
<!-- Generator: Adobe Illustrator 24.2.1, SVG Export Plug-In . SVG Version: 6.00 Build 0)  -->
<svg version="1.1" id="Lager_1" xmlns="http://www.w3.org/2000/svg" xmlns:xlink="http://www.w3.org/1999/xlink" x="0px" y="0px"
	 viewBox="0 0 148.23 173.76" style="enable-background:new 0 0 148.23 173.76;" xml:space="preserve">
<style type="text/css">
	.st0{fill:currentColor;}
</style>
<g>
	<path class="st0" d="M117.85,111.43c0.05-5.09,0.03-16.26-0.86-27.3c0.08,4.65,0.2,8.91,0.36,11.14
		C117.44,96.55,117.64,103.24,117.85,111.43z"/>
	<path class="st0" d="M75.29,15.71c0.15-3.58-0.04-7.41,2.99-7.19c1.45,0.11,3.96,0.48,7.06,1.1c3.44,0.69,2.95,19.32,2.95,19.32
		l12.46,4.84c0.41-13.48-2.96-29.14-6.32-30.1C88.79,2.07,80.52-1.28,72.3,0.52c-5.49,1.2-6.96,21.36-6.96,21.36l9.61,2.52
		C74.95,24.41,75.05,21.43,75.29,15.71z"/>
	<path class="st0" d="M17.32,83.87c2.02,0.75,5.36,1.85,9.31,3.09c2.95-8.17,7.96-14.41,7.96-14.41s1.16-3.03,6.96-1.81
		c5.8,1.22,6.08,3.87,6.08,3.87s-3.76,6.1-7.42,14.31c-0.23,0.51-0.52,1.14-0.75,1.91c9.2,2.68,18.1,5.06,20.65,5.29
		c5.03,0.46,17.68,1.01,20.08-11.15c2.37-12.01,4.72-19.33,6.71-23.91c0.4-1,0.76-1.83,1.02-2.42c0.54-1.23,2.2-3.7,4.61-6.12l0,0
		c0.01-0.02,0.02-0.03,0.03-0.03c3.22-3.21,7.77-6.33,12.85-6.31c0.27,0,0.59,0.03,0.96,0.09c-2.99-3.33-6.4-6.16-10.03-7.56
		c-0.83-0.32-30.79-12.16-39.74-10.89c-0.26,0.04-0.5,0.07-0.73,0.1c0.43-0.06,0.73-0.1,0.73-0.1s-20.52,0.51-34.09,14.07
		C15.42,48.97,9.2,61.68,5.29,73.88C5.26,76.98,9.21,80.88,17.32,83.87z"/>
	<path class="st0" d="M57.37,105.22c-4.03-0.74-11.53-2.79-19.52-5.16c-1.22,4.81-0.18,13.07-0.18,13.07s-1.57,3.75-7.76,2.38
		c-5.28-1.17-5.14-4.98-5.14-4.98s-1.35-7.72-0.16-14.52c-7.6-2.39-14.06-4.54-16.44-5.46c-2.86-1.09-4.92-2.62-6.41-4.32
		c-0.11,0.68-0.21,3.41-0.3,4.06c-5.39,38.38,5.8,54.92,6.59,58.41c1.07,4.69,21.51,14.53,41.25,21.74
		c11.45,4.18,24.23,3.37,29.31,3.01l0.37-0.02c0.81-14.84,3.01-53.48,4.09-77.12C81.36,104.99,67.03,106.99,57.37,105.22z"/>
	<path class="st0" d="M117.85,111.43c-0.22-8.19-0.41-14.88-0.5-16.16c-0.16-2.22-0.28-6.48-0.36-11.13
		c-0.79-9.83-3.32-20.38-5.49-25.86c-3.64-9.23-14.22,2.35-17.2,9.64c-3.09,7.55-6.02,94.55-6.31,103.18
		c7.38-1.92,17.96-4.68,19.26-6.72c2.75-4.3,4.24-8.47,4.92-12.01c0.46-2.36,6.56-4.57,6.56-4.57s-0.43-18.76-0.82-33.91l-0.11,0.4
		C117.81,114.29,117.84,113.24,117.85,111.43z"/>
	<path class="st0" d="M144.93,73.6c0,0-1.57-18.65-1.92-22.27c-0.86-8.75-8.75-36.9-35.66-15.33l7.13,7.78
		c0,0,18.24-16.39,18.92,22.66c0.06,3.3,0.28,7.92,2.26,35.7c2.2,30.72-9.81,30.89-9.81,30.89l0.54,13.06c0,0,4.46-1.17,9.07-3.11
		c6.52-2.75,12.77-14.24,12.77-31.1C148.23,105.22,144.93,73.6,144.93,73.6z"/>
	<path class="st0" d="M50.69,21.46l5.95-0.91v-5.04l1.15-4.12c0,0-5.49,2.52-7.09,5.03c-1.6,2.52-2.29,3.89-2.29,5.03
		C48.4,22.61,50.69,21.46,50.69,21.46z"/>
</g>
</svg>
