<?xml version="1.0" encoding="utf-8"?>
<!-- Generator: Adobe Illustrator 24.2.1, SVG Export Plug-In . SVG Version: 6.00 Build 0)  -->
<svg version="1.1" id="Lager_1" xmlns="http://www.w3.org/2000/svg" xmlns:xlink="http://www.w3.org/1999/xlink" x="0px" y="0px"
	 viewBox="0 0 203.36 158.37" style="enable-background:new 0 0 203.36 158.37;" xml:space="preserve">
<style type="text/css">
	.st0{fill:currentColor;}
</style>
<g>
	<circle class="st0" cx="41.4" cy="61.31" r="10.71"/>
	<path class="st0" d="M61.31,90c-0.21-0.43-0.43-1.07-0.64-1.71c-1.71-4.71-4.92-13.49-13.06-13.49H35.19
		c-7.71,0-13.27-2.57-14.99-4.07c-1.07-1.07-4.28-6.64-6.64-11.13l4.92-23.55l11.78,2.57c1.93,0.43,3.85-0.86,4.28-2.78l5.35-25.69
		c0.43-1.93-0.86-3.85-2.78-4.28L9.7,0.09C7.77-0.34,5.85,0.95,5.42,2.87L0.08,28.55c-0.43,1.93,0.86,3.85,2.78,4.28l11.78,2.57
		l-4.5,21.41c-0.86-0.21-1.93,0-3,0.43c-2.36,1.28-3.21,4.07-1.93,6.21c2.36,4.28,6.42,11.99,8.99,14.35
		c2.78,2.57,8.56,5.35,16.7,6.21l0.43,25.69l-4.92,42.61c-0.43,3,1.71,5.57,4.71,6s5.57-1.71,6-4.71l4.5-38.75l4.28,38.54
		c0.21,2.78,2.57,4.71,5.35,4.71c0.21,0,0.43,0,0.64,0c3-0.43,5.14-3,4.71-6l-4.92-42.61l0.43-17.99c0.21,0.64,0.43,1.28,0.64,1.93
		c1.07,2.57,2.78,10.28,3.64,14.77c0.43,2.14,2.36,3.64,4.5,3.64c0.21,0,0.64,0,0.86,0c2.57-0.43,4.07-3,3.64-5.35
		C65.17,105.2,63.03,94.07,61.31,90z"/>
	<circle class="st0" cx="161.73" cy="61.31" r="10.71"/>
	<path class="st0" d="M203.27,28.55l-5.35-25.69c-0.43-1.93-2.36-3.21-4.28-2.78l-27.62,5.78c-1.93,0.43-3.21,2.36-2.78,4.28
		l5.35,25.69c0.43,1.93,2.36,3.21,4.28,2.78l11.78-2.57l4.92,23.55C187,64.3,184,69.65,182.93,70.72c-1.71,1.5-7.28,4.07-14.99,4.07
		h-12.42c-8.14,0-11.35,8.78-13.06,13.49c-0.21,0.64-0.43,1.28-0.64,1.71c-1.71,4.28-3.85,15.2-4.07,16.49
		c-0.43,2.57,1.07,4.92,3.64,5.35c0.21,0,0.64,0,0.86,0c2.14,0,4.07-1.5,4.5-3.64c0.86-4.28,2.57-12.2,3.64-14.77
		c0.21-0.64,0.43-1.28,0.64-1.93l0.43,17.99l-4.92,42.61c-0.43,3,1.71,5.57,4.71,6s5.57-1.71,6-4.71l4.5-38.75l4.5,38.75
		c0.21,2.78,2.57,4.71,5.35,4.71c0.21,0,0.43,0,0.64,0c3-0.43,5.14-3,4.71-6l-4.92-42.61l0.43-25.69c8.14-0.86,13.92-3.64,16.7-6.21
		c2.36-2.14,6.64-9.85,8.99-14.35c1.28-2.36,0.21-5.14-1.93-6.21c-0.86-0.43-1.93-0.64-3-0.43l-4.5-21.41l11.78-2.57
		C202.41,32.41,203.7,30.48,203.27,28.55z"/>
	<circle class="st0" cx="101.57" cy="61.31" r="10.71"/>
	<path class="st0" d="M129.19,77.58c2.36-2.14,6.64-9.85,8.99-14.35c1.28-2.36,0.21-5.14-1.93-6.21l0,0l-0.64-20.77h4.07
		c1.28,0,2.14-1.07,2.14-2.14v-19.7c0-1.28-1.07-2.14-2.14-2.14H63.46c-1.28,0-2.14,1.07-2.14,2.14v19.7c0,1.28,1.07,2.14,2.14,2.14
		h3.85l0.21,20.77c-0.21,0-0.21,0-0.43,0.21c-2.36,1.28-3.21,4.07-1.93,6.21c2.36,4.28,6.42,11.99,8.99,14.35
		c2.78,2.57,8.56,5.35,16.7,6.21l0.43,25.69l-4.92,42.61c-0.43,3,1.71,5.57,4.71,6c3,0.43,5.57-1.71,6-4.71l4.5-38.97l4.5,38.75
		c0.21,2.78,2.57,4.71,5.35,4.71c0.21,0,0.43,0,0.64,0c3-0.43,5.14-3,4.71-6l-4.92-42.61l0.43-25.69
		C120.41,83.15,126.4,80.15,129.19,77.58z M73.3,59.17c-0.43-0.86-1.07-1.28-1.71-1.71l-0.21-21.2h60.16l0.21,20.77
		c-0.86,0.43-1.71,1.07-2.14,1.93c-2.57,4.71-6,10.71-6.85,11.78c-1.71,1.5-7.28,4.07-14.99,4.07H95.35
		c-7.71,0-13.27-2.57-14.99-4.07C79.3,69.66,75.87,63.88,73.3,59.17z"/>
</g>
</svg>
