<?xml version="1.0" encoding="utf-8"?>
<!-- Generator: Adobe Illustrator 24.2.1, SVG Export Plug-In . SVG Version: 6.00 Build 0)  -->
<svg version="1.1" id="Lager_1" xmlns="http://www.w3.org/2000/svg" xmlns:xlink="http://www.w3.org/1999/xlink" x="0px" y="0px"
	 viewBox="0 0 151.26 138.06" style="enable-background:new 0 0 151.26 138.06;" xml:space="preserve">
<style type="text/css">
	.st0{fill:currentColor;}
</style>
<path class="st0" d="M133.97,7.38c-7.93-5.67-15.89-6.8-17.37-6.97C115.94,0.29,113.99,0,111.12,0c-7.43,0-21.86,2.01-35.49,15.38
	C62,2.01,47.57,0,40.14,0c-2.87,0-4.82,0.3-5.48,0.41c-1.47,0.17-9.44,1.31-17.37,6.97C9.4,13.01,0,24.33,0,46.22
	c0,40.71,70.35,89.09,73.34,91.13c0.69,0.47,1.49,0.71,2.29,0.71s1.6-0.24,2.29-0.71c3-2.04,73.34-50.41,73.34-91.13
	C151.26,24.33,141.86,13.02,133.97,7.38z"/>
</svg>
