<?xml version="1.0" encoding="utf-8"?>
<!-- Generator: Adobe Illustrator 24.2.1, SVG Export Plug-In . SVG Version: 6.00 Build 0)  -->
<svg version="1.1" id="Lager_1" xmlns="http://www.w3.org/2000/svg" xmlns:xlink="http://www.w3.org/1999/xlink" x="0px" y="0px"
	 viewBox="0 0 145.64 166.3" style="enable-background:new 0 0 145.64 166.3;" xml:space="preserve">
<style type="text/css">
	.st0{fill:currentColor;}
</style>
<path class="st0" d="M14.55,81.26L1.85,71.1l12.7-10.3V81.26z M131.08,60.73v20.53l12.73-10.16L131.08,60.73z M58.54,116.49
	L19.2,84.98V0h107.22v84.98l-39.34,31.51l-14.27-11.41L58.54,116.49z M0,75.57v87.77l0.46-0.36l54.36-43.53L0,75.57z M131.08,87.23
	v0.07h-0.11l-40.16,32.15l52.11,41.7l2.72,2.18V75.56L131.08,87.23z M72.81,111.01L3.71,166.3h138.2l-1.75-1.39L72.81,111.01z
	 M70.68,94.16c15.61,0,23.78-7.44,23.78-17.06c0-4.76-1.76-8.27-5.07-10.86c4.45-3.1,6.62-7.65,6.62-12.61
	c0-10.13-8.27-15.3-21.3-16.34c-10.24-0.93-12.41-2.58-12.41-6.31c0-3.21,2.9-5.58,8.79-5.58c7.65,0,10.86,3.41,12.1,6.72
	l10.55-2.58c-2.38-8.27-10.96-13.13-22.13-13.13c-12.41,0-21.71,6.51-21.71,16.44c0,5.17,1.96,8.69,5.58,11.27
	c-4.34,2.69-7.13,6.82-7.13,12.2c0,9.93,7.44,14.17,20.06,16.13c10.75,1.65,13.13,3.21,13.13,6.72c0,3-3,5.89-10.34,5.89
	c-7.65,0-13.03-3-13.96-8.06l-11.17,2.48C47.62,86.1,54.55,94.16,70.68,94.16z M77.3,61.49c-9.31-1.14-16.34-2.58-16.34-7.24
	c0-3,2.17-5.17,7.44-5.58c10.75,2.07,14.68,3.21,14.68,7.13C83.09,58.18,81.33,60.46,77.3,61.49z"/>
</svg>
