<?xml version="1.0" encoding="utf-8"?>
<!-- Generator: Adobe Illustrator 24.2.1, SVG Export Plug-In . SVG Version: 6.00 Build 0)  -->
<svg version="1.1" id="Lager_1" xmlns="http://www.w3.org/2000/svg" xmlns:xlink="http://www.w3.org/1999/xlink" x="0px" y="0px"
	 viewBox="0 0 153.64 190.36" style="enable-background:new 0 0 153.64 190.36;" xml:space="preserve">
<style type="text/css">
	.st0{fill:currentColor;}
</style>
<polygon class="st0" points="30.04,134.68 59.72,134.68 59.72,105.24 86.09,105.24 86.09,135.39 115.77,135.39 115.77,161.31 
	86.1,161.31 86.1,190.36 59.72,190.36 59.72,161.31 30.04,161.31 "/>
<polygon class="st0" points="67.91,67.47 97.58,67.47 97.58,38.03 123.96,38.03 123.96,68.19 153.64,68.19 153.64,94.11 
	123.97,94.11 123.97,123.16 97.58,123.16 97.58,94.11 67.91,94.11 "/>
<polygon class="st0" points="0,29.45 29.67,29.45 29.67,0 56.05,0 56.05,30.16 85.73,30.16 85.73,56.08 56.05,56.08 56.05,85.13 
	29.67,85.13 29.67,56.08 0,56.08 "/>
</svg>
