<?xml version="1.0" encoding="utf-8"?>
<!-- Generator: Adobe Illustrator 24.2.1, SVG Export Plug-In . SVG Version: 6.00 Build 0)  -->
<svg version="1.1" id="Lager_1" xmlns="http://www.w3.org/2000/svg" xmlns:xlink="http://www.w3.org/1999/xlink" x="0px" y="0px"
	 viewBox="0 0 189.27 188.35" style="enable-background:new 0 0 189.27 188.35;" xml:space="preserve">
<style type="text/css">
	.st0{fill:currentColor;enable-background:new    ;}
</style>
<g>
	<g>
		<path class="st0" d="M33.64,128.29c10.73-0.28,19.7-5.84,26.74-16.36c-0.79-0.95-1.93-2.21-2.91-2.83
			c-3.8-2.37-7.79-2.99-10.96-1.69c-2.38,0.95-3.76,2.42-4.21,4.5c-0.78,3.57,1.42,7.83,2.39,8.84l2.42,2.54l-3.5-0.17
			c-14.17-0.7-25.39-7.37-30.76-18.29c-4.96-10.07-4.16-22.36,2.05-31.31c7.64-11.03,24.4-17.08,42.88-9.8
			c-4.86-5.39-12.74-11.5-23.81-11.77c-8.14-0.2-16.04,3.02-22.23,9.07C4.25,68.33-0.02,79.01,0,90.32
			c0.02,11.15,4.32,21.72,11.8,29.01C17.94,125.3,25.69,128.48,33.64,128.29z"/>
		<path class="st0" d="M65.58,143c-2.18-1.79-3.47-3.82-3.47-6.14c0-1.78,0.81-4.32,3.98-6.66c-0.28-4.17-0.91-7.67-1.74-10.57
			c-17.48,25.7-39.77,18.98-46.36,16.16c-5.16-2.21-9-5.31-11.72-8.08c4.66,12.24,16.91,35.43,41.9,31.31
			C56.16,157.7,63.82,150.56,65.58,143z"/>
		<path class="st0" d="M155.63,128.29c7.95,0.2,15.7-2.99,21.84-8.96c7.48-7.29,11.78-17.86,11.8-29.01
			c0.02-11.31-4.26-21.99-11.73-29.3c-6.19-6.05-14.09-9.27-22.24-9.07c-11.07,0.28-18.94,6.38-23.8,11.77
			c18.48-7.28,35.24-1.23,42.88,9.8c6.21,8.95,7.01,21.24,2.05,31.31c-5.38,10.92-16.59,17.58-30.77,18.29l-3.5,0.17l2.42-2.54
			c0.97-1.02,3.17-5.27,2.39-8.84c-0.45-2.08-1.83-3.55-4.22-4.51c-3.15-1.3-7.14-0.68-10.95,1.7c-0.98,0.61-2.12,1.88-2.91,2.83
			C135.92,122.44,144.89,128.01,155.63,128.29z"/>
		<path class="st0" d="M77.93,73.48l4.14,11.49c1.85,4.76,3.61,9.26,4.96,14.87c2.24,9.3,2.78,16.94,3.21,23.08l0.08,1.09
			c0,0,0.01,0.11,0.01,0.13c1.56-0.05,4.08-0.13,4.08-0.13c0,0,0.47,0.06,0.48,0c0,0,2.53,0.08,4.08,0.13
			c0-0.02,0.09-1.28,0.09-1.28c0.46-6.45,0.97-13.75,3.2-23.01c1.35-5.62,3.11-10.13,4.97-14.9c0,0,4.12-11.45,4.13-11.46
			c2.34-7.32,3.3-14.35,3.3-20.96c0-26.82-15.85-46.81-20.02-51.59C90.46,5.69,74.6,25.57,74.6,52.42
			C74.6,59.06,75.57,66.12,77.93,73.48z"/>
		<path class="st0" d="M48.31,46.97c-2.54-5.13-3.6-10-3.6-14.5c0-10.65,5.68-19.18,10.17-24.28c-9.64,4.54-27.82,15.68-41.12,37.49
			C20.39,41.41,31.87,38.11,48.31,46.97z"/>
		<path class="st0" d="M94.87,141.97c15.7,0,23.15-3.79,24.28-5.11c-1.13-1.32-8.58-5.11-24.28-5.11h-0.48
			c-15.7,0-23.15,3.79-24.27,5.11c1.13,1.32,8.57,5.11,24.27,5.11H94.87z"/>
		<path class="st0" d="M73.36,149.63c-0.68,2.54-7.21,23.44-36.17,19.8c5.21,3.7,14.24,9.49,23.47,12.58
			c12.89-6.23,20.14-17.37,21.47-33.17c-3.08-0.44-5.83-1.04-8.28-1.78C73.63,148.24,73.38,149.62,73.36,149.63z"/>
		<path class="st0" d="M53.01,96.75c10.65,3.1,18.37,13.98,20.67,29.12c0,0,0.05,0.51,0.1,0.91c2.37-0.72,4.96-1.32,7.82-1.75
			c-0.57-7.95-2.18-26.48-11.37-42.47c-6.51-12.74-25.15-16.12-37.47-10.63c-4.24,1.89-12.3,7-12.3,18.36c0,3.41,0.72,7.38,2.5,12
			c3.26,6.28,7.38,8.97,10.13,10.24c-0.33-1.1-0.6-2.3-0.6-3.61c0-2.42,0.74-5.08,2.9-7.55C39.55,96.57,46.31,94.8,53.01,96.75z"/>
		<path class="st0" d="M153.89,101.37c2.15,2.47,2.89,5.13,2.89,7.55c0,1.32-0.27,2.52-0.6,3.62c2.74-1.26,6.86-3.91,10.07-10.11
			c1.8-4.67,2.53-8.69,2.53-12.13c0-11.39-8.05-16.48-12.28-18.37c-12.32-5.49-30.96-2.11-37.49,10.69
			c-9.17,15.93-10.77,34.47-11.34,42.41c2.86,0.43,5.45,1.03,7.81,1.75c0.04-0.36,0.09-0.8,0.1-0.91
			c2.3-15.14,10.02-26.02,20.67-29.12C142.96,94.8,149.72,96.57,153.89,101.37z"/>
		<path class="st0" d="M115.9,149.63l-0.01,0.04c0,0-0.25-1.41-0.46-2.61c-2.45,0.74-5.21,1.34-8.29,1.78
			c1.34,15.81,8.59,26.94,21.47,33.17c9.26-3.1,18.27-8.89,23.47-12.59C123.12,173.07,116.58,152.18,115.9,149.63z"/>
		<path class="st0" d="M140.96,46.97c16.44-8.86,27.92-5.56,34.55-1.29c-13.3-21.81-31.48-32.95-41.12-37.49
			c4.49,5.1,10.17,13.63,10.17,24.29C144.56,36.97,143.5,41.84,140.96,46.97z"/>
		<path class="st0" d="M94.87,149.72c0,0-0.25-0.01-0.48,0c0,0-2.51-0.08-4.08-0.12c-0.49,12.61-2.15,25.78-13.96,36.96
			c6.96,1.57,16.11,1.78,18.07,1.79h0.43c1.97-0.01,11.12-0.22,18.07-1.79c-11.79-11.18-13.46-24.35-13.95-36.96
			C97.39,149.64,94.87,149.72,94.87,149.72z"/>
		<path class="st0" d="M171.28,135.8c-6.59,2.81-28.89,9.52-46.36-16.16c-0.83,2.9-1.47,6.39-1.74,10.58
			c3.17,2.33,3.98,4.87,3.98,6.65c0,2.32-1.3,4.34-3.47,6.13c1.77,7.57,9.43,14.71,17.42,16.03c24.99,4.11,37.23-19.06,41.9-31.31
			C180.28,130.49,176.44,133.59,171.28,135.8L171.28,135.8z"/>
	</g>
	<path class="st0" d="M64.41,58.18c-1.01-4.38-1.67-8.62-1.67-12.57C62.75,22.76,77.64,7.24,86.47,0
		C73.3,3.35,63.15,10.59,58.45,20.92c-1.94,4.25-2.88,8.76-2.88,13.33C55.57,42.39,58.69,50.7,64.41,58.18z"/>
	<path class="st0" d="M124.6,58.18c1.01-4.38,1.67-8.62,1.67-12.57c0-22.85-14.89-38.37-23.72-45.62
		c13.17,3.35,23.31,10.59,28.02,20.92c1.94,4.25,2.88,8.76,2.88,13.33C133.45,42.39,130.33,50.7,124.6,58.18z"/>
</g>
</svg>
