<?xml version="1.0" encoding="utf-8"?>
<!-- Generator: Adobe Illustrator 24.2.1, SVG Export Plug-In . SVG Version: 6.00 Build 0)  -->
<svg version="1.1" id="Lager_1" xmlns="http://www.w3.org/2000/svg" xmlns:xlink="http://www.w3.org/1999/xlink" x="0px" y="0px"
	 viewBox="0 0 185.84 185.84" style="enable-background:new 0 0 185.84 185.84;" xml:space="preserve">
<style type="text/css">
	.st0{fill:currentColor;}
</style>
<g transform="matrix( 1, 0, 0, 1, 0,0) ">
	<g>
		<g id="a">
			<path class="st0" d="M178.51,56.79c-4.68-11.08-11.32-20.92-19.93-29.53c-8.6-8.6-18.45-15.25-29.53-19.93
				C117.56,2.44,105.51,0,92.92,0S68.28,2.44,56.79,7.33c-11.08,4.68-20.92,11.32-29.53,19.93S12.01,45.71,7.33,56.79
				C2.44,68.28,0,80.33,0,92.92c0,12.6,2.44,24.64,7.33,36.13c4.68,11.08,11.32,20.92,19.93,29.53c8.6,8.6,18.45,15.25,29.53,19.93
				c11.49,4.89,23.54,7.33,36.13,7.33s24.64-2.44,36.13-7.33c11.08-4.68,20.92-11.32,29.53-19.93c8.6-8.6,15.25-18.45,19.93-29.53
				c4.89-11.49,7.33-23.54,7.33-36.13C185.84,80.33,183.39,68.28,178.51,56.79 M77.54,53.38c4.27-4.2,9.39-6.3,15.38-6.3
				c5.99,0,11.08,2.1,15.28,6.3c4.27,4.27,6.4,9.39,6.4,15.38s-2.13,11.08-6.4,15.28c-2,2.13-4.03,3.68-6.09,4.65l-0.41,0.21
				l-0.31,0.21l13.21,49.14H72.58L86.1,89.21H86c-3.1-1.1-5.54-2.48-7.33-4.13c-0.13-0.08-0.27-0.18-0.41-0.31
				c-0.83-0.75-1.62-1.57-2.37-2.48c-0.44-0.57-0.89-1.19-1.34-1.86c-0.01-0.05-0.05-0.12-0.1-0.21c-0.52-0.83-1-1.69-1.45-2.58
				c-0.62-1.46-1.1-3.01-1.45-4.65c-0.07-0.58-0.14-1.2-0.21-1.86c-0.07-0.73-0.1-1.49-0.1-2.27v-0.1c0-1.44,0.14-2.85,0.41-4.23
				C72.39,60.34,74.35,56.62,77.54,53.38z"/>
		</g>
	</g>
</g>
</svg>
